<svg width="260" height="144" viewBox="0 0 260 144" fill="none" xmlns="http://www.w3.org/2000/svg">
<mask id="mask0" mask-type="alpha" maskUnits="userSpaceOnUse" x="0" y="0" width="260" height="144">
<rect width="260" height="144" fill="#013E6F"/>
</mask>
<g mask="url(#mask0)">
<rect width="260" height="144" fill="#013E6F"/>
<path d="M83.6279 64L61.0005 86.6274L38.373 64" stroke="#B28900" stroke-width="4"/>
<path d="M38.3741 109.627L61.0015 86.9995L83.6289 109.627" stroke="#B28900" stroke-width="4"/>
<rect x="29" y="86.4844" width="12" height="12" transform="rotate(-45 29 86.4844)" stroke="#B28900" stroke-width="4"/>
<rect x="76" y="86.4844" width="12" height="12" transform="rotate(-45 76 86.4844)" stroke="#B28900" stroke-width="4"/>
<path d="M53 110.485L61.4853 102L69.9706 110.485" stroke="#B28900" stroke-width="4"/>
<path d="M69.9707 61.9991L61.4854 70.4844L53.0001 61.9991" stroke="#B28900" stroke-width="4"/>
<path d="M209.628 64L187 86.6274L164.373 64" stroke="#B28900" stroke-width="4"/>
<path d="M164.374 109.627L187.001 86.9995L209.629 109.627" stroke="#B28900" stroke-width="4"/>
<rect x="155" y="86.4844" width="12" height="12" transform="rotate(-45 155 86.4844)" stroke="#B28900" stroke-width="4"/>
<rect x="202" y="86.4844" width="12" height="12" transform="rotate(-45 202 86.4844)" stroke="#B28900" stroke-width="4"/>
<path d="M179 110.485L187.485 102L195.971 110.485" stroke="#B28900" stroke-width="4"/>
<path d="M195.971 61.9991L187.485 70.4844L179 61.9991" stroke="#B28900" stroke-width="4"/>
<path d="M107 63H141M107 75H141M107 87H141M107 99H141M107 111H141" stroke="#003056" stroke-width="6"/>
<path d="M233 63H267M233 75H267M233 87H267M233 99H267M233 111H267" stroke="#003056" stroke-width="6"/>
<path d="M-19 63H15M-19 75H15M-19 87H15M-19 99H15M-19 111H15" stroke="#003056" stroke-width="6"/>
<path d="M20.6279 -3L-1.99954 19.6274L-24.627 -3" stroke="#B28900" stroke-width="4"/>
<path d="M-24.6259 42.627L-1.99851 19.9995L20.6289 42.627" stroke="#B28900" stroke-width="4"/>
<rect x="13" y="19.4844" width="12" height="12" transform="rotate(-45 13 19.4844)" stroke="#B28900" stroke-width="4"/>
<path d="M-10 43.4853L-1.51472 35L6.97056 43.4853" stroke="#B28900" stroke-width="4"/>
<path d="M6.9707 -5.00091L-1.51458 3.48438L-9.99986 -5.0009" stroke="#B28900" stroke-width="4"/>
<path d="M43.9707 -5H77.9707M43.9707 7H77.9707M43.9707 19H77.9707M43.9707 31H77.9707M43.9707 43H77.9707" stroke="#003056" stroke-width="6"/>
<path d="M146.599 -3L123.971 19.6274L101.344 -3" stroke="#B28900" stroke-width="4"/>
<path d="M101.345 42.627L123.972 19.9995L146.6 42.627" stroke="#B28900" stroke-width="4"/>
<rect x="91.9707" y="19.4844" width="12" height="12" transform="rotate(-45 91.9707 19.4844)" stroke="#B28900" stroke-width="4"/>
<rect x="138.971" y="19.4844" width="12" height="12" transform="rotate(-45 138.971 19.4844)" stroke="#B28900" stroke-width="4"/>
<path d="M115.971 43.4853L124.456 35L132.941 43.4853" stroke="#B28900" stroke-width="4"/>
<path d="M132.941 -5.00091L124.456 3.48438L115.971 -5.0009" stroke="#B28900" stroke-width="4"/>
<path d="M169.941 -5H203.941M169.941 7H203.941M169.941 19H203.941M169.941 31H203.941M169.941 43H203.941" stroke="#003056" stroke-width="6"/>
<path d="M272.569 -3L249.941 19.6274L227.314 -3" stroke="#B28900" stroke-width="4"/>
<path d="M227.315 42.627L249.942 19.9995L272.57 42.627" stroke="#B28900" stroke-width="4"/>
<rect x="217.941" y="19.4844" width="12" height="12" transform="rotate(-45 217.941 19.4844)" stroke="#B28900" stroke-width="4"/>
<path d="M241.941 43.4853L250.426 35L258.911 43.4853" stroke="#B28900" stroke-width="4"/>
<path d="M258.912 -5.00091L250.426 3.48438L241.941 -5.0009" stroke="#B28900" stroke-width="4"/>
<path d="M20.6279 132L-1.99954 154.627L-24.627 132" stroke="#B28900" stroke-width="4"/>
<rect x="13" y="154.484" width="12" height="12" transform="rotate(-45 13 154.484)" stroke="#B28900" stroke-width="4"/>
<path d="M6.9707 129.999L-1.51458 138.484L-9.99986 129.999" stroke="#B28900" stroke-width="4"/>
<path d="M43.9707 130H77.9707M43.9707 142H77.9707M43.9707 154H77.9707M43.9707 166H77.9707M43.9707 178H77.9707" stroke="#003056" stroke-width="6"/>
<path d="M146.599 132L123.971 154.627L101.344 132" stroke="#B28900" stroke-width="4"/>
<rect x="91.9707" y="154.484" width="12" height="12" transform="rotate(-45 91.9707 154.484)" stroke="#B28900" stroke-width="4"/>
<rect x="138.971" y="154.484" width="12" height="12" transform="rotate(-45 138.971 154.484)" stroke="#B28900" stroke-width="4"/>
<path d="M132.941 129.999L124.456 138.484L115.971 129.999" stroke="#B28900" stroke-width="4"/>
<path d="M169.941 130H203.941M169.941 142H203.941M169.941 154H203.941M169.941 166H203.941M169.941 178H203.941" stroke="#003056" stroke-width="6"/>
<path d="M272.569 132L249.941 154.627L227.314 132" stroke="#B28900" stroke-width="4"/>
<rect x="217.941" y="154.484" width="12" height="12" transform="rotate(-45 217.941 154.484)" stroke="#B28900" stroke-width="4"/>
<path d="M258.912 129.999L250.426 138.484L241.941 129.999" stroke="#B28900" stroke-width="4"/>
</g>
</svg>
