<svg width="260" height="144" viewBox="0 0 260 144" fill="none" xmlns="http://www.w3.org/2000/svg">
<mask id="mask0" mask-type="alpha" maskUnits="userSpaceOnUse" x="0" y="0" width="260" height="144">
<rect x="260" y="144" width="260" height="144" transform="rotate(180 260 144)" fill="#003056"/>
</mask>
<g mask="url(#mask0)">
<rect x="267" y="144" width="277" height="144" transform="rotate(180 267 144)" fill="#003056"/>
<path d="M199 160L173 127L199 99.5L173 67.5L199 41L173 14.5L199 -15.5" stroke="#B28900" stroke-width="12"/>
<path d="M219 160L193 127L219 99.5L193 67.5L219 41L193 14.5L219 -15.5" stroke="#7597BA" stroke-width="6"/>
<path d="M179 160L153 127L179 99.5L153 67.5L179 41L153 14.5L179 -15.5" stroke="#7597BA" stroke-width="6"/>
<path d="M208 128.5L231 106L231 151L208 128.5Z" fill="#013E6F"/>
<path d="M166 156.5L143 134L143 179L166 156.5Z" fill="#013E6F"/>
<path d="M208 70.5L231 48L231 93L208 70.5Z" fill="#013E6F"/>
<path d="M166 98.5L143 76L143 121L166 98.5Z" fill="#013E6F"/>
<path d="M208 11.5L231 -11L231 34L208 11.5Z" fill="#013E6F"/>
<path d="M166 41.5L143 19L143 64L166 41.5Z" fill="#013E6F"/>
<path d="M166 -11.5L143 -34L143 11L166 -11.5Z" fill="#013E6F"/>
<path d="M8.00013 160L-17.9999 127L8.00016 99.5L-18 67.5L8.00011 41L-18 14.5L8.00017 -15.5" stroke="#B28900" stroke-width="12"/>
<path d="M28.0001 160L2.00007 127L28.0002 99.5L2.00004 67.5L28.0001 41L1.99999 14.5L28.0002 -15.5" stroke="#7597BA" stroke-width="6"/>
<path d="M17 128.5L40 106L40 151L17 128.5Z" fill="#013E6F"/>
<path d="M17 70.5L40 48L40 93L17 70.5Z" fill="#013E6F"/>
<path d="M17 11.5L40 -11L40 34L17 11.5Z" fill="#013E6F"/>
<rect x="255" y="144" width="15" height="144" transform="rotate(180 255 144)" fill="#7597BA"/>
<rect x="135" y="144" width="18" height="144" transform="rotate(180 135 144)" fill="#7597BA"/>
<rect x="65" y="144" width="18" height="144" transform="rotate(180 65 144)" fill="#7597BA"/>
<rect x="110" y="152" width="6.33333" height="38" transform="rotate(180 110 152)" fill="#013E6F"/>
<rect x="99.4443" y="152" width="6.33333" height="38" transform="rotate(180 99.4443 152)" fill="#013E6F"/>
<rect x="88.8887" y="152" width="6.33333" height="38" transform="rotate(180 88.8887 152)" fill="#013E6F"/>
<rect x="78.3335" y="152" width="6.33333" height="38" transform="rotate(180 78.3335 152)" fill="#013E6F"/>
<rect x="72" y="108" width="6.33333" height="38" transform="rotate(-90 72 108)" fill="#7597BA"/>
<rect x="72" y="97.4453" width="6.33333" height="38" transform="rotate(-90 72 97.4453)" fill="#7597BA"/>
<rect x="72" y="86.8887" width="6.33333" height="38" transform="rotate(-90 72 86.8887)" fill="#7597BA"/>
<rect x="72" y="76.334" width="6.33333" height="38" transform="rotate(-90 72 76.334)" fill="#7597BA"/>
<rect x="110" y="64" width="6.33333" height="38" transform="rotate(180 110 64)" fill="#013E6F"/>
<rect x="99.4443" y="64" width="6.33333" height="38" transform="rotate(180 99.4443 64)" fill="#013E6F"/>
<rect x="88.8887" y="64" width="6.33333" height="38" transform="rotate(180 88.8887 64)" fill="#013E6F"/>
<rect x="78.3335" y="64" width="6.33333" height="38" transform="rotate(180 78.3335 64)" fill="#013E6F"/>
<rect x="72" y="20" width="6.33333" height="38" transform="rotate(-90 72 20)" fill="#7597BA"/>
<rect x="72" y="9.44531" width="6.33333" height="38" transform="rotate(-90 72 9.44531)" fill="#7597BA"/>
</g>
</svg>
