<svg width="40" height="40" viewBox="0 0 40 40" fill="none" xmlns="http://www.w3.org/2000/svg">
<path d="M19.9998 -0.000259399C8.95976 -0.000259399 -0.000244141 8.95974 -0.000244141 19.9997C-0.000244141 31.0397 8.95976 39.9997 19.9998 39.9997C31.0398 39.9997 39.9998 31.0397 39.9998 19.9997C39.9998 8.95974 31.0398 -0.000259399 19.9998 -0.000259399ZM21.7598 31.5197V33.9997H18.2598V31.4197C16.7798 31.0597 13.4798 29.8797 12.2198 25.4997L15.5198 24.1597C15.6398 24.5997 16.6798 28.3397 20.3198 28.3397C22.1798 28.3397 24.2798 27.3797 24.2798 25.1197C24.2798 23.1997 22.8798 22.1997 19.7198 21.0597C17.5198 20.2797 13.0198 18.9997 13.0198 14.4397C13.0198 14.2397 13.0398 9.63974 18.2598 8.51974V5.99974H21.7598V8.47974C25.4398 9.11974 26.7798 12.0597 27.0798 12.9397L23.9198 14.2797C23.6998 13.5797 22.7398 11.5997 20.1198 11.5997C18.7198 11.5997 16.4998 12.3397 16.4998 14.3797C16.4998 16.2797 18.2198 16.9997 21.7798 18.1797C26.5798 19.8397 27.7998 22.2797 27.7998 25.0797C27.7998 30.3397 22.7998 31.3397 21.7598 31.5197Z" fill="#FFC915"/>
</svg>
