<svg width="194" height="56" viewBox="0 0 194 56" fill="none" xmlns="http://www.w3.org/2000/svg">
<path d="M73.4979 31.6592C73.1248 32.5552 72.6025 33.0032 71.931 33.2272C69.991 34.0485 66.8571 34.1979 64.7679 34.1979C56.8587 34.1979 51.1133 29.4939 51.1133 20.8325C51.1133 11.8725 57.0079 6.42188 65.7379 6.42188C67.9764 6.42188 70.6625 6.72054 72.4533 7.31787C73.1994 7.54187 73.5725 7.98988 73.7964 8.66188C74.0948 9.55788 74.0948 12.2459 74.0948 14.2619L72.5279 14.4112C72.0802 12.6192 71.7071 11.2005 71.334 10.6032C71.1102 10.1552 70.6625 9.70721 70.1402 9.48321C69.021 8.96054 67.454 8.66188 65.4394 8.66188C59.0971 8.66188 54.6948 12.8432 54.6948 20.5339C54.6948 27.8512 58.7987 32.2565 65.141 32.2565C66.7079 32.2565 68.424 32.0325 69.3941 31.6592C70.1402 31.3605 70.5879 30.9125 70.961 30.5392C71.5579 29.8672 72.3041 28.1499 73.0502 26.4325L74.6171 26.7312C74.5425 27.7765 74.1694 30.0912 73.4979 31.6592ZM90.361 34.2725C81.9294 34.2725 77.3033 28.3739 77.3033 20.3845C77.3033 12.1712 82.8994 6.49654 90.361 6.49654C98.5687 6.49654 103.195 11.7232 103.195 20.2352C103.269 28.5232 97.8971 34.2725 90.361 34.2725ZM90.2117 8.58721C84.6902 8.58721 80.9594 12.7685 80.9594 19.8619C80.9594 27.9259 84.7648 32.1819 90.5102 32.1819C96.0317 32.1819 99.6879 28.0005 99.6879 20.8325C99.6879 13.3659 95.9571 8.58721 90.2117 8.58721ZM110.806 33.6005C109.388 33.6005 107.299 33.6752 104.911 33.6752V32.1819C106.329 32.0325 107.373 31.8832 107.821 31.7339C108.493 31.4352 108.642 31.2859 108.642 29.2699V11.3499C108.642 9.63254 108.493 9.48321 108.269 9.18454C107.97 8.96054 107.373 8.73654 104.986 8.58721V7.09387H112.373C115.581 7.09387 117.819 7.16854 119.386 7.46721C123.49 8.28854 125.803 10.7525 125.803 14.7845C125.803 19.9365 122.073 22.6992 115.506 22.6992C114.387 22.6992 113.193 22.6992 112.149 22.5499V29.1952C112.149 30.6885 112.223 31.2859 112.522 31.5845C112.895 31.8832 113.865 32.0325 116.327 32.2565V33.7499C114.089 33.6752 111.776 33.6005 110.806 33.6005ZM114.835 20.7579C119.312 20.7579 122.073 19.1899 122.073 15.0832C122.073 12.2459 121.028 10.2299 118.267 9.48321C116.999 9.18454 115.283 8.96054 112.074 8.96054V20.6832C112.969 20.7579 114.163 20.7579 114.835 20.7579ZM132.743 33.6005C131.325 33.6005 129.161 33.6752 126.848 33.6752V32.1819C128.266 32.0325 129.31 31.8832 129.758 31.7339C130.429 31.4352 130.579 31.2859 130.579 29.2699V11.3499C130.579 9.63254 130.429 9.48321 130.206 9.18454C129.907 8.96054 129.31 8.73654 126.923 8.58721V7.09387H134.309C137.518 7.09387 139.756 7.16854 141.323 7.46721C145.427 8.28854 147.74 10.7525 147.74 14.7845C147.74 19.9365 144.009 22.6992 137.443 22.6992C136.324 22.6992 135.13 22.6992 134.086 22.5499V29.1952C134.086 30.6885 134.16 31.2859 134.459 31.5845C134.832 31.8832 135.802 32.0325 138.264 32.2565V33.7499C136.026 33.6752 133.638 33.6005 132.743 33.6005ZM136.697 20.7579C141.174 20.7579 143.935 19.1899 143.935 15.0832C143.935 12.2459 142.89 10.2299 140.129 9.48321C138.861 9.18454 137.145 8.96054 133.936 8.96054V20.6832C134.906 20.7579 136.026 20.7579 136.697 20.7579ZM154.232 33.6005C153.262 33.6005 150.576 33.6752 148.785 33.6752V32.1819C151.098 32.0325 151.844 31.8832 152.143 31.5099C152.441 31.2859 152.441 30.8379 152.441 29.0459V11.5739C152.441 10.0805 152.366 9.48321 152.143 9.18454C151.844 8.88587 151.322 8.66187 148.785 8.51254V7.01921C150.65 7.09387 153.262 7.09387 154.232 7.09387C155.276 7.09387 157.813 7.01921 159.604 7.01921V8.51254C156.918 8.73654 156.396 8.96054 156.097 9.25921C155.873 9.55787 155.799 10.1552 155.799 11.4992V29.1205C155.799 30.9125 155.873 31.2859 156.097 31.5099C156.396 31.8085 157.216 32.0325 159.529 32.1819V33.6752C157.813 33.6752 155.276 33.6005 154.232 33.6005ZM167.066 33.6005C166.17 33.6005 164.379 33.6752 162.066 33.6752V32.1819C164.753 32.0325 165.275 31.7339 165.573 31.3605C165.797 30.9872 165.797 30.1659 165.797 28.0752C165.797 23.7445 165.872 12.8432 165.872 12.6192C165.872 10.7525 165.797 9.93121 165.573 9.63254C165.349 9.18454 164.976 8.96054 164.23 8.81121C163.633 8.66187 162.589 8.58721 161.992 8.51254V7.01921C162.887 7.09387 165.126 7.09387 165.797 7.09387C166.469 7.09387 167.588 7.09387 169.006 7.01921C173.93 13.6645 179.079 20.5339 184.153 27.2539C184.078 22.0272 184.003 14.1872 183.929 12.6192C183.854 10.4539 183.854 9.70721 183.556 9.25921C183.332 8.96054 182.735 8.66187 180.123 8.51254V7.01921C182.362 7.09387 184.153 7.09387 185.048 7.09387C186.242 7.09387 187.958 7.01921 190.196 7.01921V8.51254C187.659 8.73654 187.137 8.81121 186.764 9.18454C186.391 9.48321 186.316 10.1552 186.316 12.5445C186.316 16.6512 186.242 21.9525 186.242 26.6565C186.242 28.5232 186.316 32.1072 186.316 33.6005H184.376C183.183 32.0325 179.974 27.2539 168.036 11.5739C168.11 16.9499 168.185 26.9552 168.185 28.1499C168.185 30.5392 168.185 31.1365 168.483 31.5099C168.856 31.9579 169.603 32.0325 172.065 32.1819V33.6752C169.901 33.6752 168.259 33.6005 167.066 33.6005Z" fill="white"/>
<path d="M55.1406 47.115L55.8868 46.1443C56.4837 46.667 57.0806 47.0403 57.9014 47.0403C58.6475 47.0403 59.0952 46.667 59.0952 46.0696C59.0952 45.547 58.8714 45.2483 57.6029 44.8003C56.1106 44.2776 55.3645 43.6803 55.3645 42.4856C55.3645 41.2163 56.4091 40.3203 57.8268 40.3203C58.7222 40.3203 59.5429 40.619 60.2891 41.2163L59.5429 42.187C59.0206 41.739 58.4237 41.4403 57.8268 41.4403C57.1552 41.4403 56.7075 41.8136 56.7075 42.3363C56.7075 42.859 57.006 43.1576 58.2745 43.6803C59.6922 44.203 60.3637 44.8003 60.3637 45.995C60.3637 47.339 59.3191 48.235 57.8268 48.235C56.9314 48.235 55.9614 47.9363 55.1406 47.115ZM65.9599 41.5896H63.9452V40.395H69.3175V41.5896H67.3029V48.1603H66.0345V41.5896H65.9599ZM74.466 40.3203H75.7345L78.5699 48.0857H77.2268L76.5552 46.2936H73.5706L72.8991 48.0857H71.6306L74.466 40.3203ZM76.1822 45.1736L75.0629 42.0376L73.9437 45.1736H76.1822ZM83.0468 41.5896H81.0322V40.395H86.4045V41.5896H84.3152V48.1603H83.0468V41.5896ZM90.0606 40.395H94.9106V41.5896H91.3291V43.6803H94.5375V44.8003H91.3291V46.9657H94.9852V48.1603H90.0606V40.395ZM104.238 45.1736V40.395H105.506V45.1736C105.506 46.443 106.103 47.0403 107.073 47.0403C108.043 47.0403 108.64 46.443 108.64 45.1736V40.3203H109.908V45.099C109.908 47.1897 108.789 48.235 106.998 48.235C105.357 48.235 104.238 47.1896 104.238 45.1736ZM114.236 40.395H115.43L118.862 45.547V40.395H120.131V48.1603H119.011L115.504 42.859V48.1603H114.236V40.395ZM124.458 40.395H125.727V48.1603H124.458V40.395ZM129.458 40.395H130.875L132.741 46.219L134.606 40.395H135.949L133.263 48.1603H132.069L129.458 40.395ZM139.605 40.395H144.455V41.5896H140.874V43.6803H144.082V44.8003H140.874V46.9657H144.53V48.1603H139.605V40.395ZM148.484 40.395H151.245C152.141 40.395 152.812 40.6936 153.334 41.1416C153.708 41.515 154.006 42.1123 154.006 42.859V42.9336C154.006 44.1283 153.334 44.875 152.439 45.1736L154.23 48.1603H152.738L151.096 45.3976H149.753V48.1603H148.484V40.395ZM151.171 44.2776C152.141 44.2776 152.738 43.755 152.738 42.9336C152.738 42.0376 152.141 41.5896 151.245 41.5896H149.828V44.2776H151.171ZM157.438 47.115L158.184 46.1443C158.781 46.667 159.378 47.0403 160.199 47.0403C160.945 47.0403 161.393 46.667 161.393 46.0696C161.393 45.547 161.169 45.2483 159.901 44.8003C158.408 44.2776 157.662 43.6803 157.662 42.4856C157.662 41.2163 158.707 40.3203 160.124 40.3203C161.02 40.3203 161.841 40.619 162.587 41.2163L161.841 42.187C161.318 41.739 160.721 41.4403 160.124 41.4403C159.453 41.4403 159.005 41.8136 159.005 42.3363C159.005 42.859 159.304 43.1576 160.572 43.6803C161.99 44.203 162.661 44.8003 162.661 45.995C162.661 47.339 161.617 48.235 160.124 48.235C159.229 48.235 158.259 47.9363 157.438 47.115ZM166.691 40.395H167.959V48.1603H166.691V40.395ZM173.704 41.5896H171.69V40.395H177.062V41.5896H175.048V48.1603H173.779V41.5896H173.704ZM183.031 45.0243L180.42 40.395H181.912L183.703 43.755L185.494 40.395H186.911L184.3 45.0243V48.0857H183.031V45.0243Z" fill="#FFC915"/>
<path d="M43.7989 8.80976V7.54042L42.6797 7.01776C42.4559 6.94309 35.2182 3.73242 23.8766 3.73242H23.7274C12.3112 3.73242 5.14816 6.94309 4.8497 7.09242L3.73047 7.54042V18.9644C3.8797 24.9378 4.02893 32.4044 8.28201 38.8258C12.0128 44.4258 18.8028 50.4738 23.1305 52.0418L23.7274 52.2658L24.3243 52.0418C28.7266 50.4738 35.5166 44.4258 39.1728 38.8258C43.4259 32.4044 43.5751 24.9378 43.7243 18.9644V8.80976H43.7989ZM38.5012 36.5111C37.6805 36.1378 35.5166 35.0178 34.9197 34.7191C34.6212 26.8044 26.4882 26.8044 19.9966 10.8258C19.6235 15.4551 18.0566 16.8738 18.0566 16.8738C18.0566 16.8738 18.5043 12.4684 17.3105 10.1538C10.5205 11.3484 6.86432 9.63109 7.08816 9.78042C7.16278 10.0044 7.7597 11.7218 10.5951 15.3058C16.1166 22.2498 25.9659 32.5538 37.8297 37.4071C37.7551 37.4818 37.7551 37.5564 37.6805 37.6311C34.1735 42.9324 27.6074 48.6818 23.7274 50.1004C19.8474 48.6818 13.2812 42.9324 9.77432 37.6311C6.04355 32.1058 5.74508 25.6098 5.59585 18.9644V8.80976C5.59585 8.80976 12.6097 5.67376 23.7274 5.67376H23.8766C34.9943 5.67376 42.0082 8.80976 42.0082 8.80976V18.9644C41.8589 25.0871 41.5605 31.1351 38.5012 36.5111Z" fill="#FFC915"/>
<path d="M34.9215 34.7309C35.5184 35.0295 37.6823 36.1495 38.503 36.5229C41.5623 31.1469 41.8607 25.0989 42.01 18.9762V8.82155C42.01 8.82155 34.9961 5.68555 23.8784 5.68555H23.7292C12.6115 5.68555 5.59766 8.82155 5.59766 8.82155V18.9762C5.74689 25.6215 6.04535 32.1175 9.77612 37.6429C13.283 42.9442 19.8492 48.6935 23.7292 50.1122C27.6092 48.6935 34.1754 42.9442 37.6823 37.6429C37.7569 37.5682 37.7569 37.4935 37.8315 37.4189C25.9677 32.5655 16.1184 22.2615 10.5969 15.3175C7.7615 11.7335 7.16458 10.0162 7.08996 9.79221C6.86612 9.64288 10.5223 11.3602 17.3123 10.1655C18.5061 12.4802 18.0584 16.8855 18.0584 16.8855C18.0584 16.8855 19.6253 15.4669 19.9984 10.8375C26.49 26.8162 34.623 26.8162 34.9215 34.7309Z" fill="#003056"/>
<path d="M23.8021 48.3839C24.2498 48.1599 26.7121 47.0399 30.5175 43.4559C32.3829 41.7385 34.0244 39.9465 35.5913 37.7812L33.5767 36.9598C28.7267 38.4532 24.6229 35.8398 24.6229 35.8398C26.936 35.6158 27.6075 34.6452 27.6075 34.6452C25.5183 34.7945 23.5036 34.4212 21.6383 33.8985C15.1467 28.5972 9.17749 21.3545 7.38672 15.9785V20.2345C7.61056 26.1332 7.98364 31.5092 11.0429 36.5119C14.4752 41.8132 20.2952 46.7412 23.8021 48.3839Z" fill="#FFC915"/>
</svg>
