<svg width="30" height="36" viewBox="0 0 30 36" fill="none" xmlns="http://www.w3.org/2000/svg">
<path d="M29.67 3.76615V2.82462L28.8413 2.43692C28.6755 2.38154 23.3161 0 14.9179 0H14.8074C6.35392 0 1.04978 2.38154 0.828772 2.49231L0 2.82462V11.2985C0.110503 15.7292 0.221006 21.2677 3.37034 26.0308C6.13292 30.1846 11.1608 34.6708 14.3654 35.8338L14.8074 36L15.2494 35.8338C18.5092 34.6708 23.5371 30.1846 26.2445 26.0308C29.3938 21.2677 29.5043 15.7292 29.6148 11.2985V3.76615H29.67ZM25.7472 24.3138C25.1394 24.0369 23.5371 23.2062 23.0951 22.9846C22.8741 17.1138 16.8517 17.1138 12.0448 5.26154C11.7686 8.69538 10.6083 9.74769 10.6083 9.74769C10.6083 9.74769 10.9398 6.48 10.0558 4.76308C5.02789 5.64923 2.32056 4.37538 2.48632 4.48615C2.54157 4.65231 2.98358 5.92615 5.08314 8.58462C9.17175 13.7354 16.4649 21.3785 25.2499 24.9785C25.1947 25.0338 25.1947 25.0892 25.1394 25.1446C22.5426 29.0769 17.6805 33.3415 14.8074 34.3938C11.9343 33.3415 7.07219 29.0769 4.47537 25.1446C1.7128 21.0462 1.49179 16.2277 1.38129 11.2985V3.76615C1.38129 3.76615 6.57493 1.44 14.8074 1.44H14.9179C23.1504 1.44 28.344 3.76615 28.344 3.76615V11.2985C28.2335 15.84 28.0125 20.3262 25.7472 24.3138Z" fill="#FFC915"/>
<path d="M23.0966 22.9938C23.5387 23.2154 25.141 24.0461 25.7487 24.3231C28.014 20.3354 28.235 15.8492 28.3455 11.3077V3.77537C28.3455 3.77537 23.1519 1.44922 14.9194 1.44922H14.8089C6.57645 1.44922 1.38281 3.77537 1.38281 3.77537V11.3077C1.49332 16.2369 1.71432 21.0554 4.4769 25.1538C7.07372 29.0861 11.9358 33.3508 14.8089 34.4031C17.682 33.3508 22.5441 29.0861 25.141 25.1538C25.1962 25.0985 25.1962 25.0431 25.2515 24.9877C16.4665 21.3877 9.17327 13.7446 5.08466 8.59383C2.98511 5.93537 2.54309 4.66153 2.48784 4.49537C2.32209 4.3846 5.02941 5.65845 10.0573 4.7723C10.9413 6.48922 10.6098 9.75691 10.6098 9.75691C10.6098 9.75691 11.7701 8.7046 12.0464 5.27076C16.8532 17.1231 22.8756 17.1231 23.0966 22.9938Z" fill="#003056"/>
<path d="M14.8624 33.1209C15.1939 32.9548 17.0172 32.124 19.835 29.4655C21.2163 28.1917 22.4318 26.8624 23.5921 25.2563L22.1003 24.6471C18.509 25.7548 15.4701 23.8163 15.4701 23.8163C17.1829 23.6501 17.6802 22.9301 17.6802 22.9301C16.1331 23.0409 14.6414 22.764 13.2601 22.3763C8.45319 18.444 4.03307 13.0717 2.70703 9.08398V12.2409C2.87279 16.6163 3.14904 20.604 5.41435 24.3148C7.95592 28.2471 12.2655 31.9024 14.8624 33.1209Z" fill="#FFC915"/>
</svg>
