<?xml version="1.0" encoding="UTF-8"?><svg id="Layer_1" xmlns="http://www.w3.org/2000/svg" viewBox="0 0 228.03 66.7"><defs><style>.cls-1{fill:#ffc709;}.cls-2{fill:#133156;}</style></defs><path class="cls-2" d="M104.64,41.6c.71-.27,1.27-.76,1.65-1.7.71-1.75,1.13-4.26,1.27-5.51l-1.69-.31c-.75,1.93-1.6,3.77-2.21,4.48-.38.41-.9.85-1.7,1.21-1.03.4-2.87.67-4.57.67-6.78,0-11.2-4.75-11.2-12.69,0-8.39,4.71-12.92,11.53-12.92,2.12,0,3.86.36,5.04.9.56.27,1.08.76,1.32,1.25.37.67.8,2.2,1.27,4.17l1.64-.13c0-2.2-.04-5.07-.33-6.05-.19-.72-.61-1.17-1.41-1.44-1.93-.67-4.76-.98-7.2-.98-9.47,0-15.77,5.88-15.77,15.6s6.17,14.53,14.69,14.53c2.21,0,5.55-.23,7.67-1.08Z"/><path class="cls-2" d="M123.86,12.55c-8.05,0-14.08,6.19-14.08,15.07s4.99,15.07,14.03,15.07c8.1,0,13.84-6.23,13.84-15.2s-4.94-14.93-13.79-14.93ZM124,40.44c-6.22,0-10.31-4.62-10.31-13.36,0-7.67,4-12.24,9.98-12.24s10.17,5.2,10.17,13.28-3.91,12.33-9.84,12.33Z"/><path class="cls-2" d="M153.59,13.58c-1.7-.31-4.1-.4-7.53-.4h-7.96v1.61c2.59.18,3.25.4,3.53.67.28.32.42.54.42,2.38v19.51c0,2.2-.1,2.33-.85,2.65-.43.18-1.6.36-3.11.49v1.62c2.54-.05,4.8-.09,6.36-.09.99,0,3.53.04,5.79.09v-1.62c-2.63-.22-3.72-.36-4.09-.72-.38-.36-.43-.98-.43-2.6v-7.18c1.13.14,2.4.14,3.63.14,7.11,0,11.11-2.96,11.11-8.56,0-4.39-2.45-7.13-6.87-7.98ZM148.74,28.06c-.7,0-1.98,0-3.01-.09v-12.74c3.49,0,5.32.23,6.69.58,2.97.81,4.1,2.96,4.1,6.05,0,4.49-2.92,6.19-7.77,6.19Z"/><path class="cls-2" d="M176.52,13.58c-1.7-.31-4.09-.4-7.53-.4h-7.96v1.61c2.59.18,3.25.4,3.53.67.28.32.43.54.43,2.38v19.51c0,2.2-.09,2.33-.85,2.65-.42.18-1.6.36-3.11.49v1.62c2.54-.05,4.8-.09,6.36-.09.99,0,3.53.04,5.79.09v-1.62c-2.63-.22-3.72-.36-4.09-.72-.38-.36-.43-.98-.43-2.6v-7.18c1.13.14,2.4.14,3.63.14,7.11,0,11.11-2.96,11.11-8.56,0-4.39-2.45-7.13-6.87-7.98ZM171.67,28.06c-.7,0-1.98,0-3.01-.09v-12.74c3.49,0,5.32.23,6.69.58,2.97.81,4.1,2.96,4.1,6.05,0,4.49-2.92,6.19-7.77,6.19Z"/><path class="cls-2" d="M195.63,40.48c-2.5-.18-3.44-.4-3.72-.76-.23-.27-.33-.67-.33-2.6v-19.06c0-1.52.05-2.15.28-2.47.33-.36.85-.54,3.77-.81v-1.61c-1.93.04-4.66.09-5.79.09-1.03,0-3.91-.05-5.89-.09v1.61c2.73.23,3.34.41,3.63.76.23.31.33.94.33,2.56v18.97c0,1.97-.05,2.42-.33,2.69-.33.36-1.13.54-3.63.72v1.62c1.98-.04,4.85-.09,5.89-.09,1.13,0,3.86.05,5.79.09v-1.62Z"/><path class="cls-2" d="M222.52,13.27c-.99,0-2.92-.05-5.32-.09v1.61c2.83.18,3.43.45,3.67.81.28.45.33,1.3.37,3.63.05,1.66.19,10.22.23,15.87-5.46-7.27-11.01-14.75-16.29-21.93-1.55.09-2.73.09-3.48.09-.7,0-3.11-.05-4.1-.09v1.61c.66.04,1.79.18,2.45.31.8.18,1.18.45,1.41.9.19.31.28,1.21.28,3.23,0,.31-.1,12.1-.1,16.81,0,2.29,0,3.19-.23,3.59-.29.4-.9.72-3.77.85v1.62c2.45-.04,4.43-.09,5.37-.09,1.32,0,3.1.05,5.5.09v-1.62c-2.68-.18-3.49-.31-3.86-.76-.33-.36-.33-1.03-.33-3.63,0-1.26-.14-12.15-.19-17.98,12.85,17.04,16.34,22.24,17.61,23.95h2.12c0-1.62-.1-5.47-.1-7.53,0-5.07.05-10.81.05-15.29,0-2.65.09-3.32.47-3.68.42-.4.99-.54,3.72-.76v-1.61c-2.4.04-4.24.09-5.51.09Z"/><path class="cls-2" d="M89.83,52.95c-1.17-.48-1.42-.68-1.42-1.11h0c0-.4.33-.66.87-.66.58,0,1.12.31,1.59.69l.86-1.18c-.68-.62-1.54-.92-2.41-.92-1.44,0-2.44.89-2.44,2.19v.02c0,1.28.82,1.78,2.14,2.29,1.07.41,1.28.64,1.28,1.01h0c0,.45-.36.75-.96.75-.74,0-1.35-.4-1.85-.84l-.92,1.14c.82.77,1.82,1.1,2.76,1.1,1.45,0,2.51-.85,2.51-2.24v-.02c0-1.16-.7-1.72-2.01-2.23Z"/><polygon class="cls-2" points="95.58 51.31 97.45 51.31 97.45 57.35 98.99 57.35 98.99 51.31 100.87 51.31 100.87 49.88 95.58 49.88 95.58 51.31"/><path class="cls-2" d="M106.28,49.84l-2.68,7.51h1.56l.54-1.62h2.57l.56,1.62h1.6l-2.68-7.51h-1.47ZM106.17,54.36l.82-2.43.81,2.43h-1.63Z"/><polygon class="cls-2" points="113.17 51.31 115.04 51.31 115.04 57.35 116.58 57.35 116.58 51.31 118.46 51.31 118.46 49.88 113.17 49.88 113.17 51.31"/><polygon class="cls-2" points="123.96 54.28 126.84 54.28 126.84 52.89 123.96 52.89 123.96 51.28 127.24 51.28 127.24 49.88 122.43 49.88 122.43 57.35 127.28 57.35 127.28 55.95 123.96 55.95 123.96 54.28"/><path class="cls-2" d="M140.92,54.49c0,1.04-.5,1.55-1.3,1.55s-1.3-.52-1.3-1.58v-4.58h-1.55v4.57c0,2.02,1.11,3.02,2.83,3.02s2.86-.99,2.86-3.05v-4.53h-1.53v4.61Z"/><polygon class="cls-2" points="151.43 54.23 148.58 49.88 147.15 49.88 147.15 57.35 148.67 57.35 148.67 52.83 151.63 57.35 152.95 57.35 152.95 49.88 151.43 49.88 151.43 54.23"/><rect class="cls-2" x="157.75" y="49.88" width="1.55" height="7.47"/><polygon class="cls-2" points="166.68 55.02 165.1 49.88 163.43 49.88 165.95 57.39 167.38 57.39 169.89 49.88 168.26 49.88 166.68 55.02"/><polygon class="cls-2" points="175.56 54.28 178.44 54.28 178.44 52.89 175.56 52.89 175.56 51.28 178.83 51.28 178.83 49.88 174.02 49.88 174.02 57.35 178.88 57.35 178.88 55.95 175.56 55.95 175.56 54.28"/><path class="cls-2" d="M188.86,52.36v-.04c0-.74-.23-1.32-.63-1.73-.47-.47-1.16-.71-2.03-.71h-2.81v7.47h1.55v-2.45h.97l1.38,2.45h1.77l-1.59-2.77c.82-.36,1.39-1.08,1.39-2.21ZM187.31,52.41c0,.67-.43,1.12-1.22,1.12h-1.14v-2.25h1.11c.79,0,1.25.37,1.25,1.12h0Z"/><path class="cls-2" d="M196.01,52.95c-1.16-.48-1.42-.68-1.42-1.11h0c0-.4.33-.66.87-.66.57,0,1.12.31,1.59.69l.86-1.18c-.68-.62-1.54-.92-2.41-.92-1.44,0-2.44.89-2.44,2.19v.02c0,1.28.83,1.78,2.15,2.29,1.07.41,1.28.64,1.28,1.01h0c0,.45-.36.75-.96.75-.75,0-1.36-.4-1.86-.84l-.92,1.14c.82.77,1.82,1.1,2.76,1.1,1.45,0,2.51-.85,2.51-2.24v-.02c0-1.16-.71-1.72-2.01-2.23Z"/><rect class="cls-2" x="202.44" y="49.88" width="1.55" height="7.47"/><polygon class="cls-2" points="208.17 51.31 210.05 51.31 210.05 57.35 211.59 57.35 211.59 51.31 213.47 51.31 213.47 49.88 208.17 49.88 208.17 51.31"/><polygon class="cls-2" points="220.54 52.81 219.07 49.88 217.32 49.88 219.75 54.4 219.75 57.35 221.3 57.35 221.3 54.38 223.73 49.88 222.03 49.88 220.54 52.81"/><polygon class="cls-2" points="3.63 63.77 2.21 61.51 1.14 61.51 3.17 64.61 3.17 66.63 4.08 66.63 4.08 64.59 6.11 61.51 5.08 61.51 3.63 63.77"/><polygon class="cls-2" points="9.97 64.45 12.53 64.45 12.53 63.64 9.97 63.64 9.97 62.31 12.86 62.31 12.86 61.51 9.07 61.51 9.07 66.63 12.9 66.63 12.9 65.82 9.97 65.82 9.97 64.45"/><path class="cls-2" d="M17.94,61.47l-2.25,5.15h.92l.53-1.24h2.42l.52,1.24h.95l-2.25-5.15h-.83ZM17.47,64.59l.88-2.05.88,2.05h-1.76Z"/><path class="cls-2" d="M28.25,63.14h0c0-.46-.15-.84-.42-1.12-.33-.32-.83-.51-1.48-.51h-2.28v5.12h.9v-1.78h1.13l1.26,1.78h1.07l-1.38-1.94c.71-.2,1.21-.71,1.21-1.55ZM24.97,64.05v-1.72h1.31c.66,0,1.06.3,1.06.85h0c0,.53-.41.87-1.05.87h-1.32Z"/><path class="cls-2" d="M33.51,63.66c-.99-.23-1.22-.41-1.22-.8h0c0-.35.31-.62.83-.62.47,0,.93.18,1.39.53l.48-.68c-.52-.42-1.11-.64-1.86-.64-1.02,0-1.75.61-1.75,1.48h0c0,.96.61,1.28,1.7,1.54.95.22,1.16.42,1.16.78h0c0,.4-.35.66-.91.66-.63,0-1.13-.24-1.62-.67l-.54.64c.61.55,1.35.82,2.14.82,1.07,0,1.83-.57,1.83-1.53h0c0-.86-.56-1.25-1.64-1.51Z"/><path class="cls-2" d="M73.08,1.32c0-.38-.16-.69-.47-.94-.31-.25-.66-.38-1.03-.38-.5,0-.88.22-1.13.66-.66,1.03-1.29,1.72-1.88,2.07-.6.35-1.47.52-2.63.52h-14.38c-.78,0-1.32.38-1.6,1.13l-7.75,19.07c-.58-1.83-1.61-3.42-3.1-4.77-2.44-2.23-5.58-3.34-9.42-3.34-2.26,0-4.43.57-6.5,1.72-2.07,1.15-4.15,2.93-6.22,5.35-.31.36-.59.7-.86,1.02v-5.89c0-6.56.12-11.28.31-15.95.02-.51-.23-1-.67-1.28h-.02c-.41-.28-.92-.31-1.36-.1C10.46,2.09,3.66,6.45.57,7.96c-.48.23-.7.8-.49,1.29h0c.26.61.9.93,1.53.79,1.14-.24,4.36-1.74,5.55-1.74s1.72.69,1.86,1.93c.21,1.65.27,6.12.27,8.6v16.37c0,2.34-.14,3.58-.62,4.13-.38.44-3.13.83-6.51,1.16-.52.05-.91.48-.91,1v.56c0,.57.46,1.02,1.03,1.01,2.29-.05,6.34-.09,8.77-.11.48,0,.9,0,1.23,0,.19,0,.34,0,.47,0,1.47,0,7.45.05,10.39.12.57.01,1.03-.44,1.03-1.01v-.53c0-.53-.41-.97-.94-1.01-3.62-.24-6.3-.75-6.62-1.32-.34-.48-.48-1.38-.48-3.99v-7.45s.05-.04.07-.06c3.25-3.53,6.74-5.3,10.46-5.3,5.21,0,7.81,2.36,7.81,7.07,0,2.33-1.23,5.19-3.7,8.59-2.46,3.4-7.24,8.45-14.34,15.15-2.73,2.58-4.09,3.94-4.09,4.1,0,.68.29,1.03.88,1.03,1.83-.37,7.2-.56,16.11-.56,4.94,0,8.7.08,11.3.25-1.33-1.26-2.56-2.68-3.48-4.06-.66-1-1.16-2.05-1.54-3.12h-12.42c.59-.53,1.49-1.33,2.69-2.41,3.41-2.99,6.23-5.59,8.49-7.79,0-2.09.01-5.73.01-5.73l.7-.33c.13-.06,2.24-1,5.82-1.59,1.04-1.73,1.65-3.34,1.82-4.84.27.15.59.27.95.38,4.28,1.27,7.55,2.82,9.79,4.63,3.08.58,4.93,1.36,5.05,1.41l.63.26s.04,5.9.02,6.91c-.09,4.03-.52,8.28-3,12.07-.02.03-.04.06-.06.1-2.26,3.42-6.44,7.12-9.11,8.08l-.25.09c-.1.05-.21.09-.31.13-.12.04-.24.09-.36.13-.13.04-.25.08-.38.12-.16.05-.32.1-.49.14-.13.04-.26.07-.39.11-.17.04-.33.08-.5.12-.13.03-.26.06-.4.09-.17.04-.35.07-.52.1-.13.02-.27.05-.4.07-.18.03-.36.05-.55.08-.13.02-.26.04-.4.05-.19.02-.39.04-.59.06-.13.01-.25.03-.38.04-.22.02-.44.03-.67.04-.11,0-.22.01-.33.02-.33.01-.67.02-1.01.02-.5,0-.75.44-.75,1.32s.25,1.32.75,1.32c7.36,0,13.79-2.42,19.29-7.26,5.5-4.84,8.25-10.5,8.25-16.99,0-10.18-5.89-17.04-17.67-20.58-1.13-.34-1.69-.89-1.69-1.64,0-.38.12-.86.38-1.46l2.54-6.58h14.47c1.57,0,2.8-.36,3.71-1.08.91-.72,1.74-1.99,2.49-3.81l2.26-5.31Z"/><path class="cls-2" d="M58.52,33.79c-.19-.08-4.66-2.06-11.69-2.06h-.12c-7.03,0-11.5,1.97-11.69,2.06l-.67.3v7.05h0v.03c.08,3.72.19,8.34,2.81,12.3,2.29,3.46,6.51,7.2,9.22,8.17l.39.14.39-.14c2.71-.97,6.93-4.71,9.22-8.17,2.62-3.96,2.73-8.58,2.81-12.3h0v-7.08l-.67-.3Z"/><path class="cls-1" d="M59.59,33.85l-.66-.27c-.13-.05-2.05-.86-5.23-1.46-1.91-.36-4.27-.64-6.97-.64h-.12c-2.25,0-4.23.2-5.91.47-3.71.6-5.9,1.58-6.03,1.64l-.73.34s-.02,3.77-.01,5.93c0,.48,0,.89.01,1.15.06,2.83.14,6.21,1.27,9.42.39,1.11.91,2.19,1.59,3.23.95,1.43,2.23,2.9,3.6,4.2,2.03,1.94,4.27,3.53,5.92,4.12l.35.12.08-.03.26-.09c2.77-.99,7.09-4.82,9.44-8.37.02-.03.04-.07.06-.1,2.56-3.93,3.01-8.33,3.1-12.51.02-1.05-.02-7.16-.02-7.16ZM46.66,61.19c-2.49-.89-6.7-4.6-8.93-7.97-.36-.54-.67-1.1-.94-1.67-1.53-3.23-1.69-6.78-1.77-10.39-.01-.49,0-1.41,0-2.39,0-.49,0-1,.02-1.48.02-1.4.04-2.6.04-2.6h0s1.72-.78,4.71-1.37c1.84-.36,4.16-.65,6.87-.65,3.6,0,6.6.51,8.68,1.02,2.03.5,3.19.99,3.19,1h0s.02.24.02.6c0,.09,0,.19,0,.3.03,1.41.07,4.13.04,5.57,0,.33-.02.66-.03.98-.02.6-.05,1.19-.09,1.78-.22,3.02-.78,5.86-2.45,8.58,0,0,0,0,0,0-.49-.21-1.85-.91-2.23-1.1-.18-5.06-5.41-5.06-9.59-15.3-.26,2.98-1.26,3.89-1.26,3.89,0,0,.29-2.83-.46-4.29-2.02.35-3.6.31-4.71.16-1.28-.17-1.92-.46-1.84-.42.03.08.2.58.81,1.55.33.53.8,1.19,1.45,2.01,3.54,4.47,9.79,11.01,17.42,14.15,0,0,0,0,0,0,0,0-.16.23-.16.23-2.26,3.32-6.26,6.81-8.8,7.79Z"/><path class="cls-1" d="M52.92,52.69c-3.14,1-5.81-.7-5.81-.7,1.51-.13,1.91-.76,1.91-.76-1.35.11-2.67-.13-3.85-.5-4.23-3.44-7.95-8.16-9.08-11.64,0,.96-.01,1.92,0,2.58.1,4.49.36,7.41,2.59,10.77,2.09,3.16,5.68,6.57,8.12,7.48,2.06-.86,5.33-3.57,7.46-6.62l-1.35-.61Z"/></svg>