<svg width="260" height="76" viewBox="0 0 260 76" fill="none" xmlns="http://www.w3.org/2000/svg">
<path d="M98.5 42.9655C98 44.1815 97.3 44.7895 96.4 45.0935C93.8 46.2082 89.6 46.4108 86.8 46.4108C76.2 46.4108 68.5 40.0268 68.5 28.2722C68.5 16.1122 76.4 8.71484 88.1 8.71484C91.1 8.71484 94.7 9.12018 97.1 9.93084C98.1 10.2348 98.6 10.8428 98.9 11.7548C99.3 12.9708 99.3 16.6188 99.3 19.3548L97.2 19.5575C96.6 17.1255 96.1 15.2002 95.6 14.3895C95.3 13.7815 94.7 13.1735 94 12.8695C92.5 12.1602 90.4 11.7548 87.7 11.7548C79.2 11.7548 73.3 17.4295 73.3 27.8668C73.3 37.7975 78.8 43.7762 87.3 43.7762C89.4 43.7762 91.7 43.4722 93 42.9655C94 42.5602 94.6 41.9522 95.1 41.4455C95.9 40.5335 96.9 38.2028 97.9 35.8722L100 36.2775C99.9 37.6962 99.4 40.8375 98.5 42.9655ZM121.1 46.5122C109.8 46.5122 103.6 38.5068 103.6 27.6642C103.6 16.5175 111.1 8.81618 121.1 8.81618C132.1 8.81618 138.3 15.9095 138.3 27.4615C138.4 38.7095 131.2 46.5122 121.1 46.5122ZM120.9 11.6535C113.5 11.6535 108.5 17.3282 108.5 26.9548C108.5 37.8988 113.6 43.6748 121.3 43.6748C128.7 43.6748 133.6 38.0002 133.6 28.2722C133.6 18.1388 128.6 11.6535 120.9 11.6535ZM148.5 45.6002C146.6 45.6002 143.8 45.7015 140.6 45.7015V43.6748C142.5 43.4722 143.9 43.2695 144.5 43.0668C145.4 42.6615 145.6 42.4588 145.6 39.7228V15.4028C145.6 13.0722 145.4 12.8695 145.1 12.4642C144.7 12.1602 143.9 11.8562 140.7 11.6535V9.62684H150.6C154.9 9.62684 157.9 9.72818 160 10.1335C165.5 11.2482 168.6 14.5922 168.6 20.0642C168.6 27.0562 163.6 30.8055 154.8 30.8055C153.3 30.8055 151.7 30.8055 150.3 30.6028V39.6215C150.3 41.6482 150.4 42.4588 150.8 42.8642C151.3 43.2695 152.6 43.4722 155.9 43.7762V45.8028C152.9 45.7015 149.8 45.6002 148.5 45.6002ZM153.9 28.1708C159.9 28.1708 163.6 26.0428 163.6 20.4695C163.6 16.6188 162.2 13.8828 158.5 12.8695C156.8 12.4642 154.5 12.1602 150.2 12.1602V28.0695C151.4 28.1708 153 28.1708 153.9 28.1708ZM177.9 45.6002C176 45.6002 173.1 45.7015 170 45.7015V43.6748C171.9 43.4722 173.3 43.2695 173.9 43.0668C174.8 42.6615 175 42.4588 175 39.7228V15.4028C175 13.0722 174.8 12.8695 174.5 12.4642C174.1 12.1602 173.3 11.8562 170.1 11.6535V9.62684H180C184.3 9.62684 187.3 9.72818 189.4 10.1335C194.9 11.2482 198 14.5922 198 20.0642C198 27.0562 193 30.8055 184.2 30.8055C182.7 30.8055 181.1 30.8055 179.7 30.6028V39.6215C179.7 41.6482 179.8 42.4588 180.2 42.8642C180.7 43.2695 182 43.4722 185.3 43.7762V45.8028C182.3 45.7015 179.1 45.6002 177.9 45.6002ZM183.2 28.1708C189.2 28.1708 192.9 26.0428 192.9 20.4695C192.9 16.6188 191.5 13.8828 187.8 12.8695C186.1 12.4642 183.8 12.1602 179.5 12.1602V28.0695C180.8 28.1708 182.3 28.1708 183.2 28.1708ZM206.7 45.6002C205.4 45.6002 201.8 45.7015 199.4 45.7015V43.6748C202.5 43.4722 203.5 43.2695 203.9 42.7628C204.3 42.4588 204.3 41.8508 204.3 39.4188V15.7068C204.3 13.6802 204.2 12.8695 203.9 12.4642C203.5 12.0588 202.8 11.7548 199.4 11.5522V9.52551C201.9 9.62684 205.4 9.62684 206.7 9.62684C208.1 9.62684 211.5 9.52551 213.9 9.52551V11.5522C210.3 11.8562 209.6 12.1602 209.2 12.5655C208.9 12.9708 208.8 13.7815 208.8 15.6055V39.5202C208.8 41.9522 208.9 42.4588 209.2 42.7628C209.6 43.1682 210.7 43.4722 213.8 43.6748V45.7015C211.5 45.7015 208.1 45.6002 206.7 45.6002ZM223.9 45.6002C222.7 45.6002 220.3 45.7015 217.2 45.7015V43.6748C220.8 43.4722 221.5 43.0668 221.9 42.5602C222.2 42.0535 222.2 40.9388 222.2 38.1015C222.2 32.2242 222.3 17.4295 222.3 17.1255C222.3 14.5922 222.2 13.4775 221.9 13.0722C221.6 12.4642 221.1 12.1602 220.1 11.9575C219.3 11.7548 217.9 11.6535 217.1 11.5522V9.52551C218.3 9.62684 221.3 9.62684 222.2 9.62684C223.1 9.62684 224.6 9.62684 226.5 9.52551C233.1 18.5442 240 27.8668 246.8 36.9868C246.7 29.8935 246.6 19.2535 246.5 17.1255C246.4 14.1868 246.4 13.1735 246 12.5655C245.7 12.1602 244.9 11.7548 241.4 11.5522V9.52551C244.4 9.62684 246.8 9.62684 248 9.62684C249.6 9.62684 251.9 9.52551 254.9 9.52551V11.5522C251.5 11.8562 250.8 11.9575 250.3 12.4642C249.8 12.8695 249.7 13.7815 249.7 17.0242C249.7 22.5975 249.6 29.7922 249.6 36.1762C249.6 38.7095 249.7 43.5735 249.7 45.6002H247.1C245.5 43.4722 241.2 36.9868 225.2 15.7068C225.3 23.0028 225.4 36.5815 225.4 38.2028C225.4 41.4455 225.4 42.2562 225.8 42.7628C226.3 43.3708 227.3 43.4722 230.6 43.6748V45.7015C227.7 45.7015 225.5 45.6002 223.9 45.6002Z" fill="white"/>
<path d="M73.9023 63.9421L74.9023 62.6247C75.7023 63.3341 76.5023 63.8407 77.6023 63.8407C78.6023 63.8407 79.2023 63.3341 79.2023 62.5234C79.2023 61.8141 78.9023 61.4087 77.2023 60.8007C75.2023 60.0914 74.2023 59.2807 74.2023 57.6594C74.2023 55.9367 75.6023 54.7207 77.5023 54.7207C78.7023 54.7207 79.8023 55.126 80.8023 55.9367L79.8023 57.254C79.1023 56.646 78.3023 56.2407 77.5023 56.2407C76.6023 56.2407 76.0023 56.7474 76.0023 57.4567C76.0023 58.166 76.4023 58.5714 78.1023 59.2807C80.0023 59.99 80.9023 60.8007 80.9023 62.422C80.9023 64.2461 79.5023 65.4621 77.5023 65.4621C76.3023 65.4621 75.0023 65.0567 73.9023 63.9421ZM88.4023 56.4434H85.7023V54.822H92.9023V56.4434H90.2023V65.3607H88.5023V56.4434H88.4023ZM99.8023 54.7207H101.502L105.302 65.2594H103.502L102.602 62.8274H98.6023L97.7023 65.2594H96.0023L99.8023 54.7207ZM102.102 61.3074L100.602 57.0514L99.1023 61.3074H102.102ZM111.302 56.4434H108.602V54.822H115.802V56.4434H113.002V65.3607H111.302V56.4434ZM120.702 54.822H127.202V56.4434H122.402V59.2807H126.702V60.8007H122.402V63.7394H127.302V65.3607H120.702V54.822ZM139.702 61.3074V54.822H141.402V61.3074C141.402 63.0301 142.202 63.8407 143.502 63.8407C144.802 63.8407 145.602 63.0301 145.602 61.3074V54.7207H147.302V61.206C147.302 64.0434 145.802 65.4621 143.402 65.4621C141.202 65.4621 139.702 64.0434 139.702 61.3074ZM153.102 54.822H154.702L159.302 61.814V54.822H161.002V65.3607H159.502L154.802 58.166V65.3607H153.102V54.822ZM166.802 54.822H168.502V65.3607H166.802V54.822ZM173.502 54.822H175.402L177.902 62.7261L180.402 54.822H182.202L178.602 65.3607H177.002L173.502 54.822ZM187.102 54.822H193.602V56.4434H188.802V59.2807H193.102V60.8007H188.802V63.7394H193.702V65.3607H187.102V54.822ZM199.002 54.822H202.702C203.902 54.822 204.802 55.2274 205.502 55.8354C206.002 56.342 206.402 57.1527 206.402 58.166V58.2674C206.402 59.8887 205.502 60.902 204.302 61.3074L206.702 65.3607H204.702L202.502 61.6114H200.702V65.3607H199.002V54.822ZM202.602 60.0914C203.902 60.0914 204.702 59.382 204.702 58.2674C204.702 57.0514 203.902 56.4434 202.702 56.4434H200.802V60.0914H202.602ZM211.002 63.9421L212.002 62.6247C212.802 63.3341 213.602 63.8407 214.702 63.8407C215.702 63.8407 216.302 63.3341 216.302 62.5234C216.302 61.8141 216.002 61.4087 214.302 60.8007C212.302 60.0914 211.302 59.2807 211.302 57.6594C211.302 55.9367 212.702 54.7207 214.602 54.7207C215.802 54.7207 216.902 55.126 217.902 55.9367L216.902 57.254C216.202 56.646 215.402 56.2407 214.602 56.2407C213.702 56.2407 213.102 56.7474 213.102 57.4567C213.102 58.166 213.502 58.5714 215.202 59.2807C217.102 59.99 218.002 60.8007 218.002 62.422C218.002 64.2461 216.602 65.4621 214.602 65.4621C213.402 65.4621 212.102 65.0567 211.002 63.9421ZM223.402 54.822H225.102V65.3607H223.402V54.822ZM232.802 56.4434H230.102V54.822H237.302V56.4434H234.602V65.3607H232.902V56.4434H232.802ZM245.302 61.1047L241.802 54.822H243.802L246.202 59.382L248.602 54.822H250.502L247.002 61.1047V65.2594H245.302V61.1047Z" fill="#FFC915"/>
<path d="M58.7 11.9571V10.2344L57.2 9.52507C56.9 9.42374 47.2 5.06641 32 5.06641H31.8C16.5 5.06641 6.9 9.42374 6.5 9.62641L5 10.2344V25.7384C5.2 33.8451 5.4 43.9784 11.1 52.6931C16.1 60.2931 25.2 68.5011 31 70.6291L31.8 70.9331L32.6 70.6291C38.5 68.5011 47.6 60.2931 52.5 52.6931C58.2 43.9784 58.4 33.8451 58.6 25.7384V11.9571H58.7ZM51.6 49.5517C50.5 49.0451 47.6 47.5251 46.8 47.1197C46.4 36.3784 35.5 36.3784 26.8 14.6931C26.3 20.9757 24.2 22.9011 24.2 22.9011C24.2 22.9011 24.8 16.9224 23.2 13.7811C14.1 15.4024 9.2 13.0717 9.5 13.2744C9.6 13.5784 10.4 15.9091 14.2 20.7731C21.6 30.1971 34.8 44.1811 50.7 50.7677C50.6 50.8691 50.6 50.9704 50.5 51.0717C45.8 58.2664 37 66.0691 31.8 67.9944C26.6 66.0691 17.8 58.2664 13.1 51.0717C8.1 43.5731 7.7 34.7571 7.5 25.7384V11.9571C7.5 11.9571 16.9 7.70107 31.8 7.70107H32C46.9 7.70107 56.3 11.9571 56.3 11.9571V25.7384C56.1 34.0477 55.7 42.2557 51.6 49.5517Z" fill="#FFC915"/>
<path d="M46.8 47.1335C47.6 47.5388 50.5 49.0588 51.6 49.5655C55.7 42.2695 56.1 34.0615 56.3 25.7522V11.9708C56.3 11.9708 46.9 7.71484 32 7.71484H31.8C16.9 7.71484 7.5 11.9708 7.5 11.9708V25.7522C7.7 34.7708 8.1 43.5868 13.1 51.0855C17.8 58.2802 26.6 66.0828 31.8 68.0082C37 66.0828 45.8 58.2802 50.5 51.0855C50.6 50.9842 50.6 50.8828 50.7 50.7815C34.8 44.1948 21.6 30.2108 14.2 20.7868C10.4 15.9228 9.6 13.5922 9.5 13.2882C9.2 13.0855 14.1 15.4162 23.2 13.7948C24.8 16.9362 24.2 22.9148 24.2 22.9148C24.2 22.9148 26.3 20.9895 26.8 14.7068C35.5 36.3922 46.4 36.3922 46.8 47.1335Z" fill="#003056"/>
<path d="M31.9023 65.6642C32.5023 65.3602 35.8024 63.8402 40.9024 58.9762C43.4024 56.6456 45.6024 54.2136 47.7024 51.2749L45.0023 50.1602C38.5023 52.1869 33.0023 48.6402 33.0023 48.6402C36.1024 48.3362 37.0023 47.0189 37.0023 47.0189C34.2024 47.2216 31.5023 46.7149 29.0023 46.0056C20.3023 38.8109 12.3023 28.9815 9.90234 21.6855V27.4615C10.2023 35.4669 10.7023 42.7629 14.8023 49.5522C19.4023 56.7469 27.2023 63.4349 31.9023 65.6642Z" fill="#FFC915"/>
</svg>
