<svg width="260" height="144" viewBox="0 0 260 144" fill="none" xmlns="http://www.w3.org/2000/svg">
<mask id="mask0" mask-type="alpha" maskUnits="userSpaceOnUse" x="0" y="0" width="260" height="144">
<rect width="260" height="144" fill="#013E6F"/>
</mask>
<g mask="url(#mask0)">
<rect width="259" height="144" fill="#013E6F"/>
<rect x="130" width="259" height="144" fill="#013E6F"/>
<path d="M36.6823 104.798L88.349 154.899H-14.9844L36.6823 104.798Z" fill="#003056"/>
<path d="M87.5651 51.5654L139.232 101.666L35.8984 101.666L87.5651 51.5654Z" fill="#003056"/>
<path d="M138.448 104.798L190.115 154.899H86.7813L138.448 104.798Z" fill="#003056"/>
<path d="M241.667 104.798L293.333 154.899H190L241.667 104.798Z" fill="#003056"/>
<path d="M189.335 51.5654L241.001 101.666L137.668 101.666L189.335 51.5654Z" fill="#003056"/>
<path d="M292.667 51.5654L344.333 101.666L241 101.666L292.667 51.5654Z" fill="#003056"/>
<path d="M-17.3333 51.5654L34.3333 101.666L-69 101.666L-17.3333 51.5654Z" fill="#003056"/>
<path fill-rule="evenodd" clip-rule="evenodd" d="M49.9907 110.278C51.7201 110.278 53.122 108.876 53.122 107.147C53.122 105.418 51.7201 104.016 49.9907 104.016C48.2613 104.016 46.8594 105.418 46.8594 107.147C46.8594 108.876 48.2613 110.278 49.9907 110.278ZM87.5664 110.278C89.2958 110.278 90.6977 108.876 90.6977 107.147C90.6977 105.418 89.2958 104.016 87.5664 104.016C85.837 104.016 84.4351 105.418 84.4351 107.147C84.4351 108.876 85.837 110.278 87.5664 110.278ZM90.6977 116.541C90.6977 118.27 89.2958 119.672 87.5664 119.672C85.837 119.672 84.4351 118.27 84.4351 116.541C84.4351 114.812 85.837 113.41 87.5664 113.41C89.2958 113.41 90.6977 114.812 90.6977 116.541ZM87.5664 129.066C89.2958 129.066 90.6977 127.664 90.6977 125.935C90.6977 124.205 89.2958 122.804 87.5664 122.804C85.837 122.804 84.4351 124.205 84.4351 125.935C84.4351 127.664 85.837 129.066 87.5664 129.066ZM90.6977 135.329C90.6977 137.058 89.2958 138.46 87.5664 138.46C85.837 138.46 84.4351 137.058 84.4351 135.329C84.4351 133.599 85.837 132.197 87.5664 132.197C89.2958 132.197 90.6977 133.599 90.6977 135.329ZM90.6977 144.723C90.6977 146.452 89.2958 147.854 87.5664 147.854C85.837 147.854 84.4351 146.452 84.4351 144.723C84.4351 142.993 85.837 141.591 87.5664 141.591C89.2958 141.591 90.6977 142.993 90.6977 144.723ZM81.3038 135.329C81.3038 137.058 79.9018 138.46 78.1724 138.46C76.4431 138.46 75.0411 137.058 75.0411 135.329C75.0411 133.599 76.4431 132.197 78.1724 132.197C79.9018 132.197 81.3038 133.599 81.3038 135.329ZM78.1724 129.066C79.9018 129.066 81.3038 127.664 81.3038 125.935C81.3038 124.205 79.9018 122.804 78.1724 122.804C76.4431 122.804 75.0411 124.205 75.0411 125.935C75.0411 127.664 76.4431 129.066 78.1724 129.066ZM81.3038 116.541C81.3038 118.27 79.9018 119.672 78.1724 119.672C76.4431 119.672 75.0411 118.27 75.0411 116.541C75.0411 114.812 76.4431 113.41 78.1724 113.41C79.9018 113.41 81.3038 114.812 81.3038 116.541ZM78.1724 110.278C79.9018 110.278 81.3038 108.876 81.3038 107.147C81.3038 105.418 79.9018 104.016 78.1724 104.016C76.4431 104.016 75.0411 105.418 75.0411 107.147C75.0411 108.876 76.4431 110.278 78.1724 110.278ZM71.9098 125.935C71.9098 127.664 70.5079 129.066 68.7785 129.066C67.0491 129.066 65.6472 127.664 65.6472 125.935C65.6472 124.205 67.0491 122.804 68.7785 122.804C70.5079 122.804 71.9098 124.205 71.9098 125.935ZM68.7785 119.672C70.5079 119.672 71.9098 118.27 71.9098 116.541C71.9098 114.812 70.5079 113.41 68.7785 113.41C67.0491 113.41 65.6472 114.812 65.6472 116.541C65.6472 118.27 67.0491 119.672 68.7785 119.672ZM71.9098 107.147C71.9098 108.876 70.5079 110.278 68.7785 110.278C67.0491 110.278 65.6472 108.876 65.6472 107.147C65.6472 105.418 67.0491 104.016 68.7785 104.016C70.5079 104.016 71.9098 105.418 71.9098 107.147ZM59.3846 119.672C61.1139 119.672 62.5159 118.27 62.5159 116.541C62.5159 114.812 61.1139 113.41 59.3846 113.41C57.6552 113.41 56.2533 114.812 56.2533 116.541C56.2533 118.27 57.6552 119.672 59.3846 119.672ZM62.5159 107.147C62.5159 108.876 61.1139 110.278 59.3846 110.278C57.6552 110.278 56.2533 108.876 56.2533 107.147C56.2533 105.418 57.6552 104.016 59.3846 104.016C61.1139 104.016 62.5159 105.418 62.5159 107.147ZM100.092 135.329C100.092 137.058 98.6897 138.46 96.9603 138.46C95.2309 138.46 93.829 137.058 93.829 135.329C93.829 133.599 95.2309 132.197 96.9603 132.197C98.6897 132.197 100.092 133.599 100.092 135.329ZM96.9603 129.066C98.6897 129.066 100.092 127.664 100.092 125.935C100.092 124.205 98.6897 122.804 96.9603 122.804C95.2309 122.804 93.829 124.205 93.829 125.935C93.829 127.664 95.2309 129.066 96.9603 129.066ZM100.092 116.541C100.092 118.27 98.6897 119.672 96.9603 119.672C95.2309 119.672 93.829 118.27 93.829 116.541C93.829 114.812 95.2309 113.41 96.9603 113.41C98.6897 113.41 100.092 114.812 100.092 116.541ZM96.9603 110.278C98.6897 110.278 100.092 108.876 100.092 107.147C100.092 105.418 98.6897 104.016 96.9603 104.016C95.2309 104.016 93.829 105.418 93.829 107.147C93.829 108.876 95.2309 110.278 96.9603 110.278ZM109.486 125.935C109.486 127.664 108.084 129.066 106.354 129.066C104.625 129.066 103.223 127.664 103.223 125.935C103.223 124.205 104.625 122.804 106.354 122.804C108.084 122.804 109.486 124.205 109.486 125.935ZM106.354 119.672C108.084 119.672 109.486 118.27 109.486 116.541C109.486 114.812 108.084 113.41 106.354 113.41C104.625 113.41 103.223 114.812 103.223 116.541C103.223 118.27 104.625 119.672 106.354 119.672ZM109.486 107.147C109.486 108.876 108.084 110.278 106.354 110.278C104.625 110.278 103.223 108.876 103.223 107.147C103.223 105.418 104.625 104.016 106.354 104.016C108.084 104.016 109.486 105.418 109.486 107.147ZM115.748 119.672C117.478 119.672 118.88 118.27 118.88 116.541C118.88 114.812 117.478 113.41 115.748 113.41C114.019 113.41 112.617 114.812 112.617 116.541C112.617 118.27 114.019 119.672 115.748 119.672ZM118.88 107.147C118.88 108.876 117.478 110.278 115.748 110.278C114.019 110.278 112.617 108.876 112.617 107.147C112.617 105.418 114.019 104.016 115.748 104.016C117.478 104.016 118.88 105.418 118.88 107.147ZM125.142 110.278C126.872 110.278 128.273 108.876 128.273 107.147C128.273 105.418 126.872 104.016 125.142 104.016C123.413 104.016 122.011 105.418 122.011 107.147C122.011 108.876 123.413 110.278 125.142 110.278Z" fill="#7597BA"/>
<path fill-rule="evenodd" clip-rule="evenodd" d="M-2.45853 56.2626C-0.729154 56.2626 0.672782 54.8607 0.672782 53.1313C0.672782 51.4019 -0.729154 50 -2.45853 50C-4.18791 50 -5.58984 51.4019 -5.58984 53.1313C-5.58984 54.8607 -4.18791 56.2626 -2.45853 56.2626ZM35.1173 56.2626C36.8466 56.2626 38.2486 54.8607 38.2486 53.1313C38.2486 51.4019 36.8466 50 35.1173 50C33.3879 50 31.9859 51.4019 31.9859 53.1313C31.9859 54.8607 33.3879 56.2626 35.1173 56.2626ZM38.2486 62.5253C38.2486 64.2546 36.8466 65.6566 35.1173 65.6566C33.3879 65.6566 31.9859 64.2546 31.9859 62.5253C31.9859 60.7959 33.3879 59.3939 35.1173 59.3939C36.8466 59.3939 38.2486 60.7959 38.2486 62.5253ZM35.1173 75.0505C36.8466 75.0505 38.2486 73.6486 38.2486 71.9192C38.2486 70.1898 36.8466 68.7879 35.1173 68.7879C33.3879 68.7879 31.9859 70.1898 31.9859 71.9192C31.9859 73.6486 33.3879 75.0505 35.1173 75.0505ZM38.2486 81.3131C38.2486 83.0425 36.8466 84.4444 35.1173 84.4444C33.3879 84.4444 31.9859 83.0425 31.9859 81.3131C31.9859 79.5838 33.3879 78.1818 35.1173 78.1818C36.8466 78.1818 38.2486 79.5838 38.2486 81.3131ZM38.2486 90.7071C38.2486 92.4364 36.8466 93.8384 35.1173 93.8384C33.3879 93.8384 31.9859 92.4364 31.9859 90.7071C31.9859 88.9777 33.3879 87.5758 35.1173 87.5758C36.8466 87.5758 38.2486 88.9777 38.2486 90.7071ZM28.8546 81.3131C28.8546 83.0425 27.4527 84.4444 25.7233 84.4444C23.9939 84.4444 22.592 83.0425 22.592 81.3131C22.592 79.5838 23.9939 78.1818 25.7233 78.1818C27.4527 78.1818 28.8546 79.5838 28.8546 81.3131ZM25.7233 75.0505C27.4527 75.0505 28.8546 73.6486 28.8546 71.9192C28.8546 70.1898 27.4527 68.7879 25.7233 68.7879C23.9939 68.7879 22.592 70.1898 22.592 71.9192C22.592 73.6486 23.9939 75.0505 25.7233 75.0505ZM28.8546 62.5253C28.8546 64.2546 27.4527 65.6566 25.7233 65.6566C23.9939 65.6566 22.592 64.2546 22.592 62.5253C22.592 60.7959 23.9939 59.3939 25.7233 59.3939C27.4527 59.3939 28.8546 60.7959 28.8546 62.5253ZM25.7233 56.2626C27.4527 56.2626 28.8546 54.8607 28.8546 53.1313C28.8546 51.4019 27.4527 50 25.7233 50C23.9939 50 22.592 51.4019 22.592 53.1313C22.592 54.8607 23.9939 56.2626 25.7233 56.2626ZM19.4607 71.9192C19.4607 73.6486 18.0588 75.0505 16.3294 75.0505C14.6 75.0505 13.1981 73.6486 13.1981 71.9192C13.1981 70.1898 14.6 68.7879 16.3294 68.7879C18.0588 68.7879 19.4607 70.1898 19.4607 71.9192ZM16.3294 65.6566C18.0588 65.6566 19.4607 64.2546 19.4607 62.5253C19.4607 60.7959 18.0588 59.3939 16.3294 59.3939C14.6 59.3939 13.1981 60.7959 13.1981 62.5253C13.1981 64.2546 14.6 65.6566 16.3294 65.6566ZM19.4607 53.1313C19.4607 54.8607 18.0588 56.2626 16.3294 56.2626C14.6 56.2626 13.1981 54.8607 13.1981 53.1313C13.1981 51.4019 14.6 50 16.3294 50C18.0588 50 19.4607 51.4019 19.4607 53.1313ZM6.93544 65.6566C8.66482 65.6566 10.0668 64.2546 10.0668 62.5253C10.0668 60.7959 8.66482 59.3939 6.93544 59.3939C5.20607 59.3939 3.80413 60.7959 3.80413 62.5253C3.80413 64.2546 5.20607 65.6566 6.93544 65.6566ZM10.0668 53.1313C10.0668 54.8607 8.66482 56.2626 6.93544 56.2626C5.20607 56.2626 3.80413 54.8607 3.80413 53.1313C3.80413 51.4019 5.20607 50 6.93544 50C8.66482 50 10.0668 51.4019 10.0668 53.1313ZM47.6425 81.3131C47.6425 83.0425 46.2406 84.4444 44.5112 84.4444C42.7818 84.4444 41.3799 83.0425 41.3799 81.3131C41.3799 79.5838 42.7818 78.1818 44.5112 78.1818C46.2406 78.1818 47.6425 79.5838 47.6425 81.3131ZM44.5112 75.0505C46.2406 75.0505 47.6425 73.6486 47.6425 71.9192C47.6425 70.1898 46.2406 68.7879 44.5112 68.7879C42.7818 68.7879 41.3799 70.1898 41.3799 71.9192C41.3799 73.6486 42.7818 75.0505 44.5112 75.0505ZM47.6425 62.5253C47.6425 64.2546 46.2406 65.6566 44.5112 65.6566C42.7818 65.6566 41.3799 64.2546 41.3799 62.5253C41.3799 60.7959 42.7818 59.3939 44.5112 59.3939C46.2406 59.3939 47.6425 60.7959 47.6425 62.5253ZM44.5112 56.2626C46.2406 56.2626 47.6425 54.8607 47.6425 53.1313C47.6425 51.4019 46.2406 50 44.5112 50C42.7818 50 41.3799 51.4019 41.3799 53.1313C41.3799 54.8607 42.7818 56.2626 44.5112 56.2626ZM57.0365 71.9192C57.0365 73.6486 55.6345 75.0505 53.9051 75.0505C52.1758 75.0505 50.7738 73.6486 50.7738 71.9192C50.7738 70.1898 52.1758 68.7879 53.9051 68.7879C55.6345 68.7879 57.0365 70.1898 57.0365 71.9192ZM53.9051 65.6566C55.6345 65.6566 57.0365 64.2546 57.0365 62.5253C57.0365 60.7959 55.6345 59.3939 53.9051 59.3939C52.1758 59.3939 50.7738 60.7959 50.7738 62.5253C50.7738 64.2546 52.1758 65.6566 53.9051 65.6566ZM57.0365 53.1313C57.0365 54.8607 55.6345 56.2626 53.9051 56.2626C52.1758 56.2626 50.7738 54.8607 50.7738 53.1313C50.7738 51.4019 52.1758 50 53.9051 50C55.6345 50 57.0365 51.4019 57.0365 53.1313ZM63.2991 65.6566C65.0285 65.6566 66.4304 64.2546 66.4304 62.5253C66.4304 60.7959 65.0285 59.3939 63.2991 59.3939C61.5697 59.3939 60.1678 60.7959 60.1678 62.5253C60.1678 64.2546 61.5697 65.6566 63.2991 65.6566ZM66.4304 53.1313C66.4304 54.8607 65.0285 56.2626 63.2991 56.2626C61.5697 56.2626 60.1678 54.8607 60.1678 53.1313C60.1678 51.4019 61.5697 50 63.2991 50C65.0285 50 66.4304 51.4019 66.4304 53.1313ZM72.693 56.2626C74.4224 56.2626 75.8243 54.8607 75.8243 53.1313C75.8243 51.4019 74.4224 50 72.693 50C70.9636 50 69.5617 51.4019 69.5617 53.1313C69.5617 54.8607 70.9636 56.2626 72.693 56.2626Z" fill="#7597BA"/>
<path fill-rule="evenodd" clip-rule="evenodd" d="M101.659 56.2626C103.388 56.2626 104.79 54.8607 104.79 53.1313C104.79 51.4019 103.388 50 101.659 50C99.9293 50 98.5273 51.4019 98.5273 53.1313C98.5273 54.8607 99.9293 56.2626 101.659 56.2626ZM139.234 56.2626C140.964 56.2626 142.366 54.8607 142.366 53.1313C142.366 51.4019 140.964 50 139.234 50C137.505 50 136.103 51.4019 136.103 53.1313C136.103 54.8607 137.505 56.2626 139.234 56.2626ZM142.366 62.5253C142.366 64.2546 140.964 65.6566 139.234 65.6566C137.505 65.6566 136.103 64.2546 136.103 62.5253C136.103 60.7959 137.505 59.3939 139.234 59.3939C140.964 59.3939 142.366 60.7959 142.366 62.5253ZM139.234 75.0505C140.964 75.0505 142.366 73.6486 142.366 71.9192C142.366 70.1898 140.964 68.7879 139.234 68.7879C137.505 68.7879 136.103 70.1898 136.103 71.9192C136.103 73.6486 137.505 75.0505 139.234 75.0505ZM142.366 81.3131C142.366 83.0425 140.964 84.4444 139.234 84.4444C137.505 84.4444 136.103 83.0425 136.103 81.3131C136.103 79.5838 137.505 78.1818 139.234 78.1818C140.964 78.1818 142.366 79.5838 142.366 81.3131ZM142.366 90.7071C142.366 92.4364 140.964 93.8384 139.234 93.8384C137.505 93.8384 136.103 92.4364 136.103 90.7071C136.103 88.9777 137.505 87.5758 139.234 87.5758C140.964 87.5758 142.366 88.9777 142.366 90.7071ZM132.972 81.3131C132.972 83.0425 131.57 84.4444 129.84 84.4444C128.111 84.4444 126.709 83.0425 126.709 81.3131C126.709 79.5838 128.111 78.1818 129.84 78.1818C131.57 78.1818 132.972 79.5838 132.972 81.3131ZM129.84 75.0505C131.57 75.0505 132.972 73.6486 132.972 71.9192C132.972 70.1898 131.57 68.7879 129.84 68.7879C128.111 68.7879 126.709 70.1898 126.709 71.9192C126.709 73.6486 128.111 75.0505 129.84 75.0505ZM132.972 62.5253C132.972 64.2546 131.57 65.6566 129.84 65.6566C128.111 65.6566 126.709 64.2546 126.709 62.5253C126.709 60.7959 128.111 59.3939 129.84 59.3939C131.57 59.3939 132.972 60.7959 132.972 62.5253ZM129.84 56.2626C131.57 56.2626 132.972 54.8607 132.972 53.1313C132.972 51.4019 131.57 50 129.84 50C128.111 50 126.709 51.4019 126.709 53.1313C126.709 54.8607 128.111 56.2626 129.84 56.2626ZM123.578 71.9192C123.578 73.6486 122.176 75.0505 120.447 75.0505C118.717 75.0505 117.315 73.6486 117.315 71.9192C117.315 70.1898 118.717 68.7879 120.447 68.7879C122.176 68.7879 123.578 70.1898 123.578 71.9192ZM120.447 65.6566C122.176 65.6566 123.578 64.2546 123.578 62.5253C123.578 60.7959 122.176 59.3939 120.447 59.3939C118.717 59.3939 117.315 60.7959 117.315 62.5253C117.315 64.2546 118.717 65.6566 120.447 65.6566ZM123.578 53.1313C123.578 54.8607 122.176 56.2626 120.447 56.2626C118.717 56.2626 117.315 54.8607 117.315 53.1313C117.315 51.4019 118.717 50 120.447 50C122.176 50 123.578 51.4019 123.578 53.1313ZM111.053 65.6566C112.782 65.6566 114.184 64.2546 114.184 62.5253C114.184 60.7959 112.782 59.3939 111.053 59.3939C109.323 59.3939 107.921 60.7959 107.921 62.5253C107.921 64.2546 109.323 65.6566 111.053 65.6566ZM114.184 53.1313C114.184 54.8607 112.782 56.2626 111.053 56.2626C109.323 56.2626 107.921 54.8607 107.921 53.1313C107.921 51.4019 109.323 50 111.053 50C112.782 50 114.184 51.4019 114.184 53.1313ZM151.76 81.3131C151.76 83.0425 150.358 84.4444 148.628 84.4444C146.899 84.4444 145.497 83.0425 145.497 81.3131C145.497 79.5838 146.899 78.1818 148.628 78.1818C150.358 78.1818 151.76 79.5838 151.76 81.3131ZM148.628 75.0505C150.358 75.0505 151.76 73.6486 151.76 71.9192C151.76 70.1898 150.358 68.7879 148.628 68.7879C146.899 68.7879 145.497 70.1898 145.497 71.9192C145.497 73.6486 146.899 75.0505 148.628 75.0505ZM151.76 62.5253C151.76 64.2546 150.358 65.6566 148.628 65.6566C146.899 65.6566 145.497 64.2546 145.497 62.5253C145.497 60.7959 146.899 59.3939 148.628 59.3939C150.358 59.3939 151.76 60.7959 151.76 62.5253ZM148.628 56.2626C150.358 56.2626 151.76 54.8607 151.76 53.1313C151.76 51.4019 150.358 50 148.628 50C146.899 50 145.497 51.4019 145.497 53.1313C145.497 54.8607 146.899 56.2626 148.628 56.2626ZM161.154 71.9192C161.154 73.6486 159.752 75.0505 158.022 75.0505C156.293 75.0505 154.891 73.6486 154.891 71.9192C154.891 70.1898 156.293 68.7879 158.022 68.7879C159.752 68.7879 161.154 70.1898 161.154 71.9192ZM158.022 65.6566C159.752 65.6566 161.154 64.2546 161.154 62.5253C161.154 60.7959 159.752 59.3939 158.022 59.3939C156.293 59.3939 154.891 60.7959 154.891 62.5253C154.891 64.2546 156.293 65.6566 158.022 65.6566ZM161.154 53.1313C161.154 54.8607 159.752 56.2626 158.022 56.2626C156.293 56.2626 154.891 54.8607 154.891 53.1313C154.891 51.4019 156.293 50 158.022 50C159.752 50 161.154 51.4019 161.154 53.1313ZM167.416 65.6566C169.146 65.6566 170.548 64.2546 170.548 62.5253C170.548 60.7959 169.146 59.3939 167.416 59.3939C165.687 59.3939 164.285 60.7959 164.285 62.5253C164.285 64.2546 165.687 65.6566 167.416 65.6566ZM170.548 53.1313C170.548 54.8607 169.146 56.2626 167.416 56.2626C165.687 56.2626 164.285 54.8607 164.285 53.1313C164.285 51.4019 165.687 50 167.416 50C169.146 50 170.548 51.4019 170.548 53.1313ZM176.81 56.2626C178.54 56.2626 179.941 54.8607 179.941 53.1313C179.941 51.4019 178.54 50 176.81 50C175.081 50 173.679 51.4019 173.679 53.1313C173.679 54.8607 175.081 56.2626 176.81 56.2626Z" fill="#7597BA"/>
<path fill-rule="evenodd" clip-rule="evenodd" d="M204.131 56.2626C205.861 56.2626 207.263 54.8607 207.263 53.1313C207.263 51.4019 205.861 50 204.131 50C202.402 50 201 51.4019 201 53.1313C201 54.8607 202.402 56.2626 204.131 56.2626ZM241.707 56.2626C243.436 56.2626 244.838 54.8607 244.838 53.1313C244.838 51.4019 243.436 50 241.707 50C239.978 50 238.576 51.4019 238.576 53.1313C238.576 54.8607 239.978 56.2626 241.707 56.2626ZM244.838 62.5253C244.838 64.2546 243.436 65.6566 241.707 65.6566C239.978 65.6566 238.576 64.2546 238.576 62.5253C238.576 60.7959 239.978 59.3939 241.707 59.3939C243.436 59.3939 244.838 60.7959 244.838 62.5253ZM241.707 75.0505C243.436 75.0505 244.838 73.6486 244.838 71.9192C244.838 70.1898 243.436 68.7879 241.707 68.7879C239.978 68.7879 238.576 70.1898 238.576 71.9192C238.576 73.6486 239.978 75.0505 241.707 75.0505ZM244.838 81.3131C244.838 83.0425 243.436 84.4444 241.707 84.4444C239.978 84.4444 238.576 83.0425 238.576 81.3131C238.576 79.5838 239.978 78.1818 241.707 78.1818C243.436 78.1818 244.838 79.5838 244.838 81.3131ZM244.838 90.7071C244.838 92.4364 243.436 93.8384 241.707 93.8384C239.978 93.8384 238.576 92.4364 238.576 90.7071C238.576 88.9777 239.978 87.5758 241.707 87.5758C243.436 87.5758 244.838 88.9777 244.838 90.7071ZM235.444 81.3131C235.444 83.0425 234.042 84.4444 232.313 84.4444C230.584 84.4444 229.182 83.0425 229.182 81.3131C229.182 79.5838 230.584 78.1818 232.313 78.1818C234.042 78.1818 235.444 79.5838 235.444 81.3131ZM232.313 75.0505C234.042 75.0505 235.444 73.6486 235.444 71.9192C235.444 70.1898 234.042 68.7879 232.313 68.7879C230.584 68.7879 229.182 70.1898 229.182 71.9192C229.182 73.6486 230.584 75.0505 232.313 75.0505ZM235.444 62.5253C235.444 64.2546 234.042 65.6566 232.313 65.6566C230.584 65.6566 229.182 64.2546 229.182 62.5253C229.182 60.7959 230.584 59.3939 232.313 59.3939C234.042 59.3939 235.444 60.7959 235.444 62.5253ZM232.313 56.2626C234.042 56.2626 235.444 54.8607 235.444 53.1313C235.444 51.4019 234.042 50 232.313 50C230.584 50 229.182 51.4019 229.182 53.1313C229.182 54.8607 230.584 56.2626 232.313 56.2626ZM226.05 71.9192C226.05 73.6486 224.649 75.0505 222.919 75.0505C221.19 75.0505 219.788 73.6486 219.788 71.9192C219.788 70.1898 221.19 68.7879 222.919 68.7879C224.649 68.7879 226.05 70.1898 226.05 71.9192ZM222.919 65.6566C224.649 65.6566 226.05 64.2546 226.05 62.5253C226.05 60.7959 224.649 59.3939 222.919 59.3939C221.19 59.3939 219.788 60.7959 219.788 62.5253C219.788 64.2546 221.19 65.6566 222.919 65.6566ZM226.05 53.1313C226.05 54.8607 224.649 56.2626 222.919 56.2626C221.19 56.2626 219.788 54.8607 219.788 53.1313C219.788 51.4019 221.19 50 222.919 50C224.649 50 226.05 51.4019 226.05 53.1313ZM213.525 65.6566C215.255 65.6566 216.657 64.2546 216.657 62.5253C216.657 60.7959 215.255 59.3939 213.525 59.3939C211.796 59.3939 210.394 60.7959 210.394 62.5253C210.394 64.2546 211.796 65.6566 213.525 65.6566ZM216.657 53.1313C216.657 54.8607 215.255 56.2626 213.525 56.2626C211.796 56.2626 210.394 54.8607 210.394 53.1313C210.394 51.4019 211.796 50 213.525 50C215.255 50 216.657 51.4019 216.657 53.1313ZM254.232 81.3131C254.232 83.0425 252.83 84.4444 251.101 84.4444C249.372 84.4444 247.97 83.0425 247.97 81.3131C247.97 79.5838 249.372 78.1818 251.101 78.1818C252.83 78.1818 254.232 79.5838 254.232 81.3131ZM251.101 75.0505C252.83 75.0505 254.232 73.6486 254.232 71.9192C254.232 70.1898 252.83 68.7879 251.101 68.7879C249.372 68.7879 247.97 70.1898 247.97 71.9192C247.97 73.6486 249.372 75.0505 251.101 75.0505ZM254.232 62.5253C254.232 64.2546 252.83 65.6566 251.101 65.6566C249.372 65.6566 247.97 64.2546 247.97 62.5253C247.97 60.7959 249.372 59.3939 251.101 59.3939C252.83 59.3939 254.232 60.7959 254.232 62.5253ZM251.101 56.2626C252.83 56.2626 254.232 54.8607 254.232 53.1313C254.232 51.4019 252.83 50 251.101 50C249.372 50 247.97 51.4019 247.97 53.1313C247.97 54.8607 249.372 56.2626 251.101 56.2626ZM263.626 71.9192C263.626 73.6486 262.224 75.0505 260.495 75.0505C258.766 75.0505 257.364 73.6486 257.364 71.9192C257.364 70.1898 258.766 68.7879 260.495 68.7879C262.224 68.7879 263.626 70.1898 263.626 71.9192ZM260.495 65.6566C262.224 65.6566 263.626 64.2546 263.626 62.5253C263.626 60.7959 262.224 59.3939 260.495 59.3939C258.766 59.3939 257.364 60.7959 257.364 62.5253C257.364 64.2546 258.766 65.6566 260.495 65.6566ZM263.626 53.1313C263.626 54.8607 262.224 56.2626 260.495 56.2626C258.766 56.2626 257.364 54.8607 257.364 53.1313C257.364 51.4019 258.766 50 260.495 50C262.224 50 263.626 51.4019 263.626 53.1313ZM269.889 65.6566C271.618 65.6566 273.02 64.2546 273.02 62.5253C273.02 60.7959 271.618 59.3939 269.889 59.3939C268.16 59.3939 266.758 60.7959 266.758 62.5253C266.758 64.2546 268.16 65.6566 269.889 65.6566ZM273.02 53.1313C273.02 54.8607 271.618 56.2626 269.889 56.2626C268.16 56.2626 266.758 54.8607 266.758 53.1313C266.758 51.4019 268.16 50 269.889 50C271.618 50 273.02 51.4019 273.02 53.1313ZM279.283 56.2626C281.012 56.2626 282.414 54.8607 282.414 53.1313C282.414 51.4019 281.012 50 279.283 50C277.553 50 276.151 51.4019 276.151 53.1313C276.151 54.8607 277.553 56.2626 279.283 56.2626Z" fill="#7597BA"/>
<path fill-rule="evenodd" clip-rule="evenodd" d="M152.541 110.278C154.271 110.278 155.673 108.876 155.673 107.147C155.673 105.418 154.271 104.016 152.541 104.016C150.812 104.016 149.41 105.418 149.41 107.147C149.41 108.876 150.812 110.278 152.541 110.278ZM190.117 110.278C191.847 110.278 193.249 108.876 193.249 107.147C193.249 105.418 191.847 104.016 190.117 104.016C188.388 104.016 186.986 105.418 186.986 107.147C186.986 108.876 188.388 110.278 190.117 110.278ZM193.249 116.541C193.249 118.27 191.847 119.672 190.117 119.672C188.388 119.672 186.986 118.27 186.986 116.541C186.986 114.812 188.388 113.41 190.117 113.41C191.847 113.41 193.249 114.812 193.249 116.541ZM190.117 129.066C191.847 129.066 193.249 127.664 193.249 125.935C193.249 124.205 191.847 122.804 190.117 122.804C188.388 122.804 186.986 124.205 186.986 125.935C186.986 127.664 188.388 129.066 190.117 129.066ZM193.249 135.329C193.249 137.058 191.847 138.46 190.117 138.46C188.388 138.46 186.986 137.058 186.986 135.329C186.986 133.599 188.388 132.197 190.117 132.197C191.847 132.197 193.249 133.599 193.249 135.329ZM193.249 144.723C193.249 146.452 191.847 147.854 190.117 147.854C188.388 147.854 186.986 146.452 186.986 144.723C186.986 142.993 188.388 141.591 190.117 141.591C191.847 141.591 193.249 142.993 193.249 144.723ZM183.855 135.329C183.855 137.058 182.453 138.46 180.723 138.46C178.994 138.46 177.592 137.058 177.592 135.329C177.592 133.599 178.994 132.197 180.723 132.197C182.453 132.197 183.855 133.599 183.855 135.329ZM180.723 129.066C182.453 129.066 183.855 127.664 183.855 125.935C183.855 124.205 182.453 122.804 180.723 122.804C178.994 122.804 177.592 124.205 177.592 125.935C177.592 127.664 178.994 129.066 180.723 129.066ZM183.855 116.541C183.855 118.27 182.453 119.672 180.723 119.672C178.994 119.672 177.592 118.27 177.592 116.541C177.592 114.812 178.994 113.41 180.723 113.41C182.453 113.41 183.855 114.812 183.855 116.541ZM180.723 110.278C182.453 110.278 183.855 108.876 183.855 107.147C183.855 105.418 182.453 104.016 180.723 104.016C178.994 104.016 177.592 105.418 177.592 107.147C177.592 108.876 178.994 110.278 180.723 110.278ZM174.461 125.935C174.461 127.664 173.059 129.066 171.329 129.066C169.6 129.066 168.198 127.664 168.198 125.935C168.198 124.205 169.6 122.804 171.329 122.804C173.059 122.804 174.461 124.205 174.461 125.935ZM171.329 119.672C173.059 119.672 174.461 118.27 174.461 116.541C174.461 114.812 173.059 113.41 171.329 113.41C169.6 113.41 168.198 114.812 168.198 116.541C168.198 118.27 169.6 119.672 171.329 119.672ZM174.461 107.147C174.461 108.876 173.059 110.278 171.329 110.278C169.6 110.278 168.198 108.876 168.198 107.147C168.198 105.418 169.6 104.016 171.329 104.016C173.059 104.016 174.461 105.418 174.461 107.147ZM161.935 119.672C163.665 119.672 165.067 118.27 165.067 116.541C165.067 114.812 163.665 113.41 161.935 113.41C160.206 113.41 158.804 114.812 158.804 116.541C158.804 118.27 160.206 119.672 161.935 119.672ZM165.067 107.147C165.067 108.876 163.665 110.278 161.935 110.278C160.206 110.278 158.804 108.876 158.804 107.147C158.804 105.418 160.206 104.016 161.935 104.016C163.665 104.016 165.067 105.418 165.067 107.147ZM202.643 135.329C202.643 137.058 201.241 138.46 199.511 138.46C197.782 138.46 196.38 137.058 196.38 135.329C196.38 133.599 197.782 132.197 199.511 132.197C201.241 132.197 202.643 133.599 202.643 135.329ZM199.511 129.066C201.241 129.066 202.643 127.664 202.643 125.935C202.643 124.205 201.241 122.804 199.511 122.804C197.782 122.804 196.38 124.205 196.38 125.935C196.38 127.664 197.782 129.066 199.511 129.066ZM202.643 116.541C202.643 118.27 201.241 119.672 199.511 119.672C197.782 119.672 196.38 118.27 196.38 116.541C196.38 114.812 197.782 113.41 199.511 113.41C201.241 113.41 202.643 114.812 202.643 116.541ZM199.511 110.278C201.241 110.278 202.643 108.876 202.643 107.147C202.643 105.418 201.241 104.016 199.511 104.016C197.782 104.016 196.38 105.418 196.38 107.147C196.38 108.876 197.782 110.278 199.511 110.278ZM212.036 125.935C212.036 127.664 210.635 129.066 208.905 129.066C207.176 129.066 205.774 127.664 205.774 125.935C205.774 124.205 207.176 122.804 208.905 122.804C210.635 122.804 212.036 124.205 212.036 125.935ZM208.905 119.672C210.635 119.672 212.036 118.27 212.036 116.541C212.036 114.812 210.635 113.41 208.905 113.41C207.176 113.41 205.774 114.812 205.774 116.541C205.774 118.27 207.176 119.672 208.905 119.672ZM212.036 107.147C212.036 108.876 210.635 110.278 208.905 110.278C207.176 110.278 205.774 108.876 205.774 107.147C205.774 105.418 207.176 104.016 208.905 104.016C210.635 104.016 212.036 105.418 212.036 107.147ZM218.299 119.672C220.028 119.672 221.43 118.27 221.43 116.541C221.43 114.812 220.028 113.41 218.299 113.41C216.57 113.41 215.168 114.812 215.168 116.541C215.168 118.27 216.57 119.672 218.299 119.672ZM221.43 107.147C221.43 108.876 220.028 110.278 218.299 110.278C216.57 110.278 215.168 108.876 215.168 107.147C215.168 105.418 216.57 104.016 218.299 104.016C220.028 104.016 221.43 105.418 221.43 107.147ZM227.693 110.278C229.422 110.278 230.824 108.876 230.824 107.147C230.824 105.418 229.422 104.016 227.693 104.016C225.964 104.016 224.562 105.418 224.562 107.147C224.562 108.876 225.964 110.278 227.693 110.278Z" fill="#7597BA"/>
<path fill-rule="evenodd" clip-rule="evenodd" d="M252.131 110.278C253.861 110.278 255.263 108.876 255.263 107.147C255.263 105.418 253.861 104.016 252.131 104.016C250.402 104.016 249 105.418 249 107.147C249 108.876 250.402 110.278 252.131 110.278ZM289.707 110.278C291.436 110.278 292.838 108.876 292.838 107.147C292.838 105.418 291.436 104.016 289.707 104.016C287.978 104.016 286.576 105.418 286.576 107.147C286.576 108.876 287.978 110.278 289.707 110.278ZM292.838 116.541C292.838 118.27 291.436 119.672 289.707 119.672C287.978 119.672 286.576 118.27 286.576 116.541C286.576 114.812 287.978 113.41 289.707 113.41C291.436 113.41 292.838 114.812 292.838 116.541ZM289.707 129.066C291.436 129.066 292.838 127.664 292.838 125.935C292.838 124.205 291.436 122.804 289.707 122.804C287.978 122.804 286.576 124.205 286.576 125.935C286.576 127.664 287.978 129.066 289.707 129.066ZM292.838 135.329C292.838 137.058 291.436 138.46 289.707 138.46C287.978 138.46 286.576 137.058 286.576 135.329C286.576 133.599 287.978 132.197 289.707 132.197C291.436 132.197 292.838 133.599 292.838 135.329ZM292.838 144.723C292.838 146.452 291.436 147.854 289.707 147.854C287.978 147.854 286.576 146.452 286.576 144.723C286.576 142.993 287.978 141.591 289.707 141.591C291.436 141.591 292.838 142.993 292.838 144.723ZM283.444 135.329C283.444 137.058 282.043 138.46 280.313 138.46C278.584 138.46 277.182 137.058 277.182 135.329C277.182 133.599 278.584 132.197 280.313 132.197C282.043 132.197 283.444 133.599 283.444 135.329ZM280.313 129.066C282.043 129.066 283.444 127.664 283.444 125.935C283.444 124.205 282.043 122.804 280.313 122.804C278.584 122.804 277.182 124.205 277.182 125.935C277.182 127.664 278.584 129.066 280.313 129.066ZM283.444 116.541C283.444 118.27 282.043 119.672 280.313 119.672C278.584 119.672 277.182 118.27 277.182 116.541C277.182 114.812 278.584 113.41 280.313 113.41C282.043 113.41 283.444 114.812 283.444 116.541ZM280.313 110.278C282.043 110.278 283.444 108.876 283.444 107.147C283.444 105.418 282.043 104.016 280.313 104.016C278.584 104.016 277.182 105.418 277.182 107.147C277.182 108.876 278.584 110.278 280.313 110.278ZM274.051 125.935C274.051 127.664 272.649 129.066 270.919 129.066C269.19 129.066 267.788 127.664 267.788 125.935C267.788 124.205 269.19 122.804 270.919 122.804C272.649 122.804 274.051 124.205 274.051 125.935ZM270.919 119.672C272.649 119.672 274.051 118.27 274.051 116.541C274.051 114.812 272.649 113.41 270.919 113.41C269.19 113.41 267.788 114.812 267.788 116.541C267.788 118.27 269.19 119.672 270.919 119.672ZM274.051 107.147C274.051 108.876 272.649 110.278 270.919 110.278C269.19 110.278 267.788 108.876 267.788 107.147C267.788 105.418 269.19 104.016 270.919 104.016C272.649 104.016 274.051 105.418 274.051 107.147ZM261.525 119.672C263.255 119.672 264.657 118.27 264.657 116.541C264.657 114.812 263.255 113.41 261.525 113.41C259.796 113.41 258.394 114.812 258.394 116.541C258.394 118.27 259.796 119.672 261.525 119.672ZM264.657 107.147C264.657 108.876 263.255 110.278 261.525 110.278C259.796 110.278 258.394 108.876 258.394 107.147C258.394 105.418 259.796 104.016 261.525 104.016C263.255 104.016 264.657 105.418 264.657 107.147ZM302.232 135.329C302.232 137.058 300.83 138.46 299.101 138.46C297.372 138.46 295.97 137.058 295.97 135.329C295.97 133.599 297.372 132.197 299.101 132.197C300.83 132.197 302.232 133.599 302.232 135.329ZM299.101 129.066C300.83 129.066 302.232 127.664 302.232 125.935C302.232 124.205 300.83 122.804 299.101 122.804C297.372 122.804 295.97 124.205 295.97 125.935C295.97 127.664 297.372 129.066 299.101 129.066ZM302.232 116.541C302.232 118.27 300.83 119.672 299.101 119.672C297.372 119.672 295.97 118.27 295.97 116.541C295.97 114.812 297.372 113.41 299.101 113.41C300.83 113.41 302.232 114.812 302.232 116.541ZM299.101 110.278C300.83 110.278 302.232 108.876 302.232 107.147C302.232 105.418 300.83 104.016 299.101 104.016C297.372 104.016 295.97 105.418 295.97 107.147C295.97 108.876 297.372 110.278 299.101 110.278ZM311.626 125.935C311.626 127.664 310.224 129.066 308.495 129.066C306.766 129.066 305.364 127.664 305.364 125.935C305.364 124.205 306.766 122.804 308.495 122.804C310.224 122.804 311.626 124.205 311.626 125.935ZM308.495 119.672C310.224 119.672 311.626 118.27 311.626 116.541C311.626 114.812 310.224 113.41 308.495 113.41C306.766 113.41 305.364 114.812 305.364 116.541C305.364 118.27 306.766 119.672 308.495 119.672ZM311.626 107.147C311.626 108.876 310.224 110.278 308.495 110.278C306.766 110.278 305.364 108.876 305.364 107.147C305.364 105.418 306.766 104.016 308.495 104.016C310.224 104.016 311.626 105.418 311.626 107.147ZM317.889 119.672C319.618 119.672 321.02 118.27 321.02 116.541C321.02 114.812 319.618 113.41 317.889 113.41C316.16 113.41 314.758 114.812 314.758 116.541C314.758 118.27 316.16 119.672 317.889 119.672ZM321.02 107.147C321.02 108.876 319.618 110.278 317.889 110.278C316.16 110.278 314.758 108.876 314.758 107.147C314.758 105.418 316.16 104.016 317.889 104.016C319.618 104.016 321.02 105.418 321.02 107.147ZM327.283 110.278C329.012 110.278 330.414 108.876 330.414 107.147C330.414 105.418 329.012 104.016 327.283 104.016C325.553 104.016 324.152 105.418 324.152 107.147C324.152 108.876 325.553 110.278 327.283 110.278Z" fill="#7597BA"/>
<path fill-rule="evenodd" clip-rule="evenodd" d="M-52.5601 110.278C-50.8307 110.278 -49.4288 108.876 -49.4288 107.147C-49.4288 105.418 -50.8307 104.016 -52.5601 104.016C-54.2895 104.016 -55.6914 105.418 -55.6914 107.147C-55.6914 108.876 -54.2895 110.278 -52.5601 110.278ZM-14.9844 110.278C-13.255 110.278 -11.853 108.876 -11.853 107.147C-11.853 105.418 -13.255 104.016 -14.9844 104.016C-16.7137 104.016 -18.1157 105.418 -18.1157 107.147C-18.1157 108.876 -16.7137 110.278 -14.9844 110.278ZM-11.853 116.541C-11.853 118.27 -13.255 119.672 -14.9844 119.672C-16.7137 119.672 -18.1157 118.27 -18.1157 116.541C-18.1157 114.812 -16.7137 113.41 -14.9844 113.41C-13.255 113.41 -11.853 114.812 -11.853 116.541ZM-14.9844 129.066C-13.255 129.066 -11.853 127.664 -11.853 125.935C-11.853 124.205 -13.255 122.804 -14.9844 122.804C-16.7137 122.804 -18.1157 124.205 -18.1157 125.935C-18.1157 127.664 -16.7137 129.066 -14.9844 129.066ZM-11.853 135.329C-11.853 137.058 -13.255 138.46 -14.9844 138.46C-16.7137 138.46 -18.1157 137.058 -18.1157 135.329C-18.1157 133.599 -16.7137 132.197 -14.9844 132.197C-13.255 132.197 -11.853 133.599 -11.853 135.329ZM-11.853 144.723C-11.853 146.452 -13.255 147.854 -14.9844 147.854C-16.7137 147.854 -18.1157 146.452 -18.1157 144.723C-18.1157 142.993 -16.7137 141.591 -14.9844 141.591C-13.255 141.591 -11.853 142.993 -11.853 144.723ZM-21.247 135.329C-21.247 137.058 -22.6489 138.46 -24.3783 138.46C-26.1077 138.46 -27.5096 137.058 -27.5096 135.329C-27.5096 133.599 -26.1077 132.197 -24.3783 132.197C-22.6489 132.197 -21.247 133.599 -21.247 135.329ZM-24.3783 129.066C-22.6489 129.066 -21.247 127.664 -21.247 125.935C-21.247 124.205 -22.6489 122.804 -24.3783 122.804C-26.1077 122.804 -27.5096 124.205 -27.5096 125.935C-27.5096 127.664 -26.1077 129.066 -24.3783 129.066ZM-21.247 116.541C-21.247 118.27 -22.6489 119.672 -24.3783 119.672C-26.1077 119.672 -27.5096 118.27 -27.5096 116.541C-27.5096 114.812 -26.1077 113.41 -24.3783 113.41C-22.6489 113.41 -21.247 114.812 -21.247 116.541ZM-24.3783 110.278C-22.6489 110.278 -21.247 108.876 -21.247 107.147C-21.247 105.418 -22.6489 104.016 -24.3783 104.016C-26.1077 104.016 -27.5096 105.418 -27.5096 107.147C-27.5096 108.876 -26.1077 110.278 -24.3783 110.278ZM-30.6409 125.935C-30.6409 127.664 -32.0429 129.066 -33.7722 129.066C-35.5016 129.066 -36.9036 127.664 -36.9036 125.935C-36.9036 124.205 -35.5016 122.804 -33.7722 122.804C-32.0429 122.804 -30.6409 124.205 -30.6409 125.935ZM-33.7722 119.672C-32.0429 119.672 -30.6409 118.27 -30.6409 116.541C-30.6409 114.812 -32.0429 113.41 -33.7722 113.41C-35.5016 113.41 -36.9036 114.812 -36.9036 116.541C-36.9036 118.27 -35.5016 119.672 -33.7722 119.672ZM-30.6409 107.147C-30.6409 108.876 -32.0429 110.278 -33.7722 110.278C-35.5016 110.278 -36.9036 108.876 -36.9036 107.147C-36.9036 105.418 -35.5016 104.016 -33.7722 104.016C-32.0429 104.016 -30.6409 105.418 -30.6409 107.147ZM-43.1662 119.672C-41.4368 119.672 -40.0349 118.27 -40.0349 116.541C-40.0349 114.812 -41.4368 113.41 -43.1662 113.41C-44.8956 113.41 -46.2975 114.812 -46.2975 116.541C-46.2975 118.27 -44.8956 119.672 -43.1662 119.672ZM-40.0349 107.147C-40.0349 108.876 -41.4368 110.278 -43.1662 110.278C-44.8956 110.278 -46.2975 108.876 -46.2975 107.147C-46.2975 105.418 -44.8956 104.016 -43.1662 104.016C-41.4368 104.016 -40.0349 105.418 -40.0349 107.147ZM-2.45911 135.329C-2.45911 137.058 -3.86104 138.46 -5.59042 138.46C-7.3198 138.46 -8.72173 137.058 -8.72173 135.329C-8.72173 133.599 -7.3198 132.197 -5.59042 132.197C-3.86104 132.197 -2.45911 133.599 -2.45911 135.329ZM-5.59042 129.066C-3.86104 129.066 -2.45911 127.664 -2.45911 125.935C-2.45911 124.205 -3.86104 122.804 -5.59042 122.804C-7.3198 122.804 -8.72173 124.205 -8.72173 125.935C-8.72173 127.664 -7.3198 129.066 -5.59042 129.066ZM-2.45911 116.541C-2.45911 118.27 -3.86104 119.672 -5.59042 119.672C-7.3198 119.672 -8.72173 118.27 -8.72173 116.541C-8.72173 114.812 -7.3198 113.41 -5.59042 113.41C-3.86104 113.41 -2.45911 114.812 -2.45911 116.541ZM-5.59042 110.278C-3.86104 110.278 -2.45911 108.876 -2.45911 107.147C-2.45911 105.418 -3.86104 104.016 -5.59042 104.016C-7.3198 104.016 -8.72173 105.418 -8.72173 107.147C-8.72173 108.876 -7.3198 110.278 -5.59042 110.278ZM6.93483 125.935C6.93483 127.664 5.5329 129.066 3.80352 129.066C2.07414 129.066 0.672207 127.664 0.672207 125.935C0.672207 124.205 2.07414 122.804 3.80352 122.804C5.5329 122.804 6.93483 124.205 6.93483 125.935ZM3.80352 119.672C5.5329 119.672 6.93483 118.27 6.93483 116.541C6.93483 114.812 5.5329 113.41 3.80352 113.41C2.07414 113.41 0.672207 114.812 0.672207 116.541C0.672207 118.27 2.07414 119.672 3.80352 119.672ZM6.93483 107.147C6.93483 108.876 5.5329 110.278 3.80352 110.278C2.07414 110.278 0.672207 108.876 0.672207 107.147C0.672207 105.418 2.07414 104.016 3.80352 104.016C5.5329 104.016 6.93483 105.418 6.93483 107.147ZM13.1975 119.672C14.9268 119.672 16.3288 118.27 16.3288 116.541C16.3288 114.812 14.9268 113.41 13.1975 113.41C11.4681 113.41 10.0661 114.812 10.0661 116.541C10.0661 118.27 11.4681 119.672 13.1975 119.672ZM16.3288 107.147C16.3288 108.876 14.9268 110.278 13.1975 110.278C11.4681 110.278 10.0661 108.876 10.0661 107.147C10.0661 105.418 11.4681 104.016 13.1975 104.016C14.9268 104.016 16.3288 105.418 16.3288 107.147ZM22.5914 110.278C24.3208 110.278 25.7227 108.876 25.7227 107.147C25.7227 105.418 24.3208 104.016 22.5914 104.016C20.862 104.016 19.4601 105.418 19.4601 107.147C19.4601 108.876 20.862 110.278 22.5914 110.278Z" fill="#7597BA"/>
<path d="M36.6823 -2.20215L88.349 47.8989L-14.9844 47.8989L36.6823 -2.20215Z" fill="#003056"/>
<path d="M138.448 -2.20215L190.115 47.8989L86.7813 47.8989L138.448 -2.20215Z" fill="#003056"/>
<path d="M241.667 -2.20215L293.333 47.8989L190 47.8989L241.667 -2.20215Z" fill="#003056"/>
<path fill-rule="evenodd" clip-rule="evenodd" d="M49.9907 3.27825C51.7201 3.27825 53.122 1.87631 53.122 0.146938C53.122 -1.58244 51.7201 -2.98438 49.9907 -2.98438C48.2613 -2.98438 46.8594 -1.58244 46.8594 0.146938C46.8594 1.87631 48.2613 3.27825 49.9907 3.27825ZM87.5664 3.27825C89.2958 3.27825 90.6977 1.87631 90.6977 0.146938C90.6977 -1.58244 89.2958 -2.98438 87.5664 -2.98438C85.837 -2.98438 84.4351 -1.58244 84.4351 0.146938C84.4351 1.87631 85.837 3.27825 87.5664 3.27825ZM90.6977 9.54088C90.6977 11.2703 89.2958 12.6722 87.5664 12.6722C85.837 12.6722 84.4351 11.2703 84.4351 9.54088C84.4351 7.8115 85.837 6.40956 87.5664 6.40956C89.2958 6.40956 90.6977 7.8115 90.6977 9.54088ZM87.5664 22.0661C89.2958 22.0661 90.6977 20.6642 90.6977 18.9348C90.6977 17.2054 89.2958 15.8035 87.5664 15.8035C85.837 15.8035 84.4351 17.2054 84.4351 18.9348C84.4351 20.6642 85.837 22.0661 87.5664 22.0661ZM90.6977 28.3288C90.6977 30.0581 89.2958 31.4601 87.5664 31.4601C85.837 31.4601 84.4351 30.0581 84.4351 28.3288C84.4351 26.5994 85.837 25.1974 87.5664 25.1974C89.2958 25.1974 90.6977 26.5994 90.6977 28.3288ZM90.6977 37.7227C90.6977 39.4521 89.2958 40.854 87.5664 40.854C85.837 40.854 84.4351 39.4521 84.4351 37.7227C84.4351 35.9933 85.837 34.5914 87.5664 34.5914C89.2958 34.5914 90.6977 35.9933 90.6977 37.7227ZM81.3038 28.3288C81.3038 30.0581 79.9018 31.4601 78.1724 31.4601C76.4431 31.4601 75.0411 30.0581 75.0411 28.3288C75.0411 26.5994 76.4431 25.1974 78.1724 25.1974C79.9018 25.1974 81.3038 26.5994 81.3038 28.3288ZM78.1724 22.0661C79.9018 22.0661 81.3038 20.6642 81.3038 18.9348C81.3038 17.2054 79.9018 15.8035 78.1724 15.8035C76.4431 15.8035 75.0411 17.2054 75.0411 18.9348C75.0411 20.6642 76.4431 22.0661 78.1724 22.0661ZM81.3038 9.54088C81.3038 11.2703 79.9018 12.6722 78.1724 12.6722C76.4431 12.6722 75.0411 11.2703 75.0411 9.54088C75.0411 7.8115 76.4431 6.40956 78.1724 6.40956C79.9018 6.40956 81.3038 7.8115 81.3038 9.54088ZM78.1724 3.27825C79.9018 3.27825 81.3038 1.87631 81.3038 0.146938C81.3038 -1.58244 79.9018 -2.98438 78.1724 -2.98438C76.4431 -2.98438 75.0411 -1.58244 75.0411 0.146938C75.0411 1.87631 76.4431 3.27825 78.1724 3.27825ZM71.9098 18.9348C71.9098 20.6642 70.5079 22.0661 68.7785 22.0661C67.0491 22.0661 65.6472 20.6642 65.6472 18.9348C65.6472 17.2054 67.0491 15.8035 68.7785 15.8035C70.5079 15.8035 71.9098 17.2054 71.9098 18.9348ZM68.7785 12.6722C70.5079 12.6722 71.9098 11.2703 71.9098 9.54088C71.9098 7.8115 70.5079 6.40956 68.7785 6.40956C67.0491 6.40956 65.6472 7.8115 65.6472 9.54088C65.6472 11.2703 67.0491 12.6722 68.7785 12.6722ZM71.9098 0.146938C71.9098 1.87631 70.5079 3.27825 68.7785 3.27825C67.0491 3.27825 65.6472 1.87631 65.6472 0.146938C65.6472 -1.58244 67.0491 -2.98438 68.7785 -2.98438C70.5079 -2.98438 71.9098 -1.58244 71.9098 0.146938ZM59.3846 12.6722C61.1139 12.6722 62.5159 11.2703 62.5159 9.54088C62.5159 7.8115 61.1139 6.40956 59.3846 6.40956C57.6552 6.40956 56.2533 7.8115 56.2533 9.54088C56.2533 11.2703 57.6552 12.6722 59.3846 12.6722ZM62.5159 0.146938C62.5159 1.87631 61.1139 3.27825 59.3846 3.27825C57.6552 3.27825 56.2533 1.87631 56.2533 0.146938C56.2533 -1.58244 57.6552 -2.98438 59.3846 -2.98438C61.1139 -2.98438 62.5159 -1.58244 62.5159 0.146938ZM100.092 28.3288C100.092 30.0581 98.6897 31.4601 96.9603 31.4601C95.2309 31.4601 93.829 30.0581 93.829 28.3288C93.829 26.5994 95.2309 25.1974 96.9603 25.1974C98.6897 25.1974 100.092 26.5994 100.092 28.3288ZM96.9603 22.0661C98.6897 22.0661 100.092 20.6642 100.092 18.9348C100.092 17.2054 98.6897 15.8035 96.9603 15.8035C95.2309 15.8035 93.829 17.2054 93.829 18.9348C93.829 20.6642 95.2309 22.0661 96.9603 22.0661ZM100.092 9.54088C100.092 11.2703 98.6897 12.6722 96.9603 12.6722C95.2309 12.6722 93.829 11.2703 93.829 9.54088C93.829 7.8115 95.2309 6.40956 96.9603 6.40956C98.6897 6.40956 100.092 7.8115 100.092 9.54088ZM96.9603 3.27825C98.6897 3.27825 100.092 1.87631 100.092 0.146938C100.092 -1.58244 98.6897 -2.98438 96.9603 -2.98438C95.2309 -2.98438 93.829 -1.58244 93.829 0.146938C93.829 1.87631 95.2309 3.27825 96.9603 3.27825ZM109.486 18.9348C109.486 20.6642 108.084 22.0661 106.354 22.0661C104.625 22.0661 103.223 20.6642 103.223 18.9348C103.223 17.2054 104.625 15.8035 106.354 15.8035C108.084 15.8035 109.486 17.2054 109.486 18.9348ZM106.354 12.6722C108.084 12.6722 109.486 11.2703 109.486 9.54088C109.486 7.8115 108.084 6.40956 106.354 6.40956C104.625 6.40956 103.223 7.8115 103.223 9.54088C103.223 11.2703 104.625 12.6722 106.354 12.6722ZM109.486 0.146938C109.486 1.87631 108.084 3.27825 106.354 3.27825C104.625 3.27825 103.223 1.87631 103.223 0.146938C103.223 -1.58244 104.625 -2.98438 106.354 -2.98438C108.084 -2.98438 109.486 -1.58244 109.486 0.146938ZM115.748 12.6722C117.478 12.6722 118.88 11.2703 118.88 9.54088C118.88 7.8115 117.478 6.40956 115.748 6.40956C114.019 6.40956 112.617 7.8115 112.617 9.54088C112.617 11.2703 114.019 12.6722 115.748 12.6722ZM118.88 0.146938C118.88 1.87631 117.478 3.27825 115.748 3.27825C114.019 3.27825 112.617 1.87631 112.617 0.146938C112.617 -1.58244 114.019 -2.98438 115.748 -2.98438C117.478 -2.98438 118.88 -1.58244 118.88 0.146938ZM125.142 3.27825C126.872 3.27825 128.273 1.87631 128.273 0.146938C128.273 -1.58244 126.872 -2.98438 125.142 -2.98438C123.413 -2.98438 122.011 -1.58244 122.011 0.146938C122.011 1.87631 123.413 3.27825 125.142 3.27825Z" fill="#7597BA"/>
<path fill-rule="evenodd" clip-rule="evenodd" d="M152.541 3.27825C154.271 3.27825 155.673 1.87631 155.673 0.146938C155.673 -1.58244 154.271 -2.98438 152.541 -2.98438C150.812 -2.98438 149.41 -1.58244 149.41 0.146938C149.41 1.87631 150.812 3.27825 152.541 3.27825ZM190.117 3.27825C191.847 3.27825 193.249 1.87631 193.249 0.146938C193.249 -1.58244 191.847 -2.98438 190.117 -2.98438C188.388 -2.98438 186.986 -1.58244 186.986 0.146938C186.986 1.87631 188.388 3.27825 190.117 3.27825ZM193.249 9.54088C193.249 11.2703 191.847 12.6722 190.117 12.6722C188.388 12.6722 186.986 11.2703 186.986 9.54088C186.986 7.8115 188.388 6.40956 190.117 6.40956C191.847 6.40956 193.249 7.8115 193.249 9.54088ZM190.117 22.0661C191.847 22.0661 193.249 20.6642 193.249 18.9348C193.249 17.2054 191.847 15.8035 190.117 15.8035C188.388 15.8035 186.986 17.2054 186.986 18.9348C186.986 20.6642 188.388 22.0661 190.117 22.0661ZM193.249 28.3288C193.249 30.0581 191.847 31.4601 190.117 31.4601C188.388 31.4601 186.986 30.0581 186.986 28.3288C186.986 26.5994 188.388 25.1974 190.117 25.1974C191.847 25.1974 193.249 26.5994 193.249 28.3288ZM193.249 37.7227C193.249 39.4521 191.847 40.854 190.117 40.854C188.388 40.854 186.986 39.4521 186.986 37.7227C186.986 35.9933 188.388 34.5914 190.117 34.5914C191.847 34.5914 193.249 35.9933 193.249 37.7227ZM183.855 28.3288C183.855 30.0581 182.453 31.4601 180.723 31.4601C178.994 31.4601 177.592 30.0581 177.592 28.3288C177.592 26.5994 178.994 25.1974 180.723 25.1974C182.453 25.1974 183.855 26.5994 183.855 28.3288ZM180.723 22.0661C182.453 22.0661 183.855 20.6642 183.855 18.9348C183.855 17.2054 182.453 15.8035 180.723 15.8035C178.994 15.8035 177.592 17.2054 177.592 18.9348C177.592 20.6642 178.994 22.0661 180.723 22.0661ZM183.855 9.54088C183.855 11.2703 182.453 12.6722 180.723 12.6722C178.994 12.6722 177.592 11.2703 177.592 9.54088C177.592 7.8115 178.994 6.40956 180.723 6.40956C182.453 6.40956 183.855 7.8115 183.855 9.54088ZM180.723 3.27825C182.453 3.27825 183.855 1.87631 183.855 0.146938C183.855 -1.58244 182.453 -2.98438 180.723 -2.98438C178.994 -2.98438 177.592 -1.58244 177.592 0.146938C177.592 1.87631 178.994 3.27825 180.723 3.27825ZM174.461 18.9348C174.461 20.6642 173.059 22.0661 171.329 22.0661C169.6 22.0661 168.198 20.6642 168.198 18.9348C168.198 17.2054 169.6 15.8035 171.329 15.8035C173.059 15.8035 174.461 17.2054 174.461 18.9348ZM171.329 12.6722C173.059 12.6722 174.461 11.2703 174.461 9.54088C174.461 7.8115 173.059 6.40956 171.329 6.40956C169.6 6.40956 168.198 7.8115 168.198 9.54088C168.198 11.2703 169.6 12.6722 171.329 12.6722ZM174.461 0.146938C174.461 1.87631 173.059 3.27825 171.329 3.27825C169.6 3.27825 168.198 1.87631 168.198 0.146938C168.198 -1.58244 169.6 -2.98438 171.329 -2.98438C173.059 -2.98438 174.461 -1.58244 174.461 0.146938ZM161.935 12.6722C163.665 12.6722 165.067 11.2703 165.067 9.54088C165.067 7.8115 163.665 6.40956 161.935 6.40956C160.206 6.40956 158.804 7.8115 158.804 9.54088C158.804 11.2703 160.206 12.6722 161.935 12.6722ZM165.067 0.146938C165.067 1.87631 163.665 3.27825 161.935 3.27825C160.206 3.27825 158.804 1.87631 158.804 0.146938C158.804 -1.58244 160.206 -2.98438 161.935 -2.98438C163.665 -2.98438 165.067 -1.58244 165.067 0.146938ZM202.643 28.3288C202.643 30.0581 201.241 31.4601 199.511 31.4601C197.782 31.4601 196.38 30.0581 196.38 28.3288C196.38 26.5994 197.782 25.1974 199.511 25.1974C201.241 25.1974 202.643 26.5994 202.643 28.3288ZM199.511 22.0661C201.241 22.0661 202.643 20.6642 202.643 18.9348C202.643 17.2054 201.241 15.8035 199.511 15.8035C197.782 15.8035 196.38 17.2054 196.38 18.9348C196.38 20.6642 197.782 22.0661 199.511 22.0661ZM202.643 9.54088C202.643 11.2703 201.241 12.6722 199.511 12.6722C197.782 12.6722 196.38 11.2703 196.38 9.54088C196.38 7.8115 197.782 6.40956 199.511 6.40956C201.241 6.40956 202.643 7.8115 202.643 9.54088ZM199.511 3.27825C201.241 3.27825 202.643 1.87631 202.643 0.146938C202.643 -1.58244 201.241 -2.98438 199.511 -2.98438C197.782 -2.98438 196.38 -1.58244 196.38 0.146938C196.38 1.87631 197.782 3.27825 199.511 3.27825ZM212.036 18.9348C212.036 20.6642 210.635 22.0661 208.905 22.0661C207.176 22.0661 205.774 20.6642 205.774 18.9348C205.774 17.2054 207.176 15.8035 208.905 15.8035C210.635 15.8035 212.036 17.2054 212.036 18.9348ZM208.905 12.6722C210.635 12.6722 212.036 11.2703 212.036 9.54088C212.036 7.8115 210.635 6.40956 208.905 6.40956C207.176 6.40956 205.774 7.8115 205.774 9.54088C205.774 11.2703 207.176 12.6722 208.905 12.6722ZM212.036 0.146938C212.036 1.87631 210.635 3.27825 208.905 3.27825C207.176 3.27825 205.774 1.87631 205.774 0.146938C205.774 -1.58244 207.176 -2.98438 208.905 -2.98438C210.635 -2.98438 212.036 -1.58244 212.036 0.146938ZM218.299 12.6722C220.028 12.6722 221.43 11.2703 221.43 9.54088C221.43 7.8115 220.028 6.40956 218.299 6.40956C216.57 6.40956 215.168 7.8115 215.168 9.54088C215.168 11.2703 216.57 12.6722 218.299 12.6722ZM221.43 0.146938C221.43 1.87631 220.028 3.27825 218.299 3.27825C216.57 3.27825 215.168 1.87631 215.168 0.146938C215.168 -1.58244 216.57 -2.98438 218.299 -2.98438C220.028 -2.98438 221.43 -1.58244 221.43 0.146938ZM227.693 3.27825C229.422 3.27825 230.824 1.87631 230.824 0.146938C230.824 -1.58244 229.422 -2.98438 227.693 -2.98438C225.964 -2.98438 224.562 -1.58244 224.562 0.146938C224.562 1.87631 225.964 3.27825 227.693 3.27825Z" fill="#7597BA"/>
<path fill-rule="evenodd" clip-rule="evenodd" d="M252.131 3.27825C253.861 3.27825 255.263 1.87631 255.263 0.146938C255.263 -1.58244 253.861 -2.98438 252.131 -2.98438C250.402 -2.98438 249 -1.58244 249 0.146938C249 1.87631 250.402 3.27825 252.131 3.27825ZM289.707 3.27825C291.436 3.27825 292.838 1.87631 292.838 0.146938C292.838 -1.58244 291.436 -2.98438 289.707 -2.98438C287.978 -2.98438 286.576 -1.58244 286.576 0.146938C286.576 1.87631 287.978 3.27825 289.707 3.27825ZM292.838 9.54088C292.838 11.2703 291.436 12.6722 289.707 12.6722C287.978 12.6722 286.576 11.2703 286.576 9.54088C286.576 7.8115 287.978 6.40956 289.707 6.40956C291.436 6.40956 292.838 7.8115 292.838 9.54088ZM289.707 22.0661C291.436 22.0661 292.838 20.6642 292.838 18.9348C292.838 17.2054 291.436 15.8035 289.707 15.8035C287.978 15.8035 286.576 17.2054 286.576 18.9348C286.576 20.6642 287.978 22.0661 289.707 22.0661ZM292.838 28.3288C292.838 30.0581 291.436 31.4601 289.707 31.4601C287.978 31.4601 286.576 30.0581 286.576 28.3288C286.576 26.5994 287.978 25.1974 289.707 25.1974C291.436 25.1974 292.838 26.5994 292.838 28.3288ZM292.838 37.7227C292.838 39.4521 291.436 40.854 289.707 40.854C287.978 40.854 286.576 39.4521 286.576 37.7227C286.576 35.9933 287.978 34.5914 289.707 34.5914C291.436 34.5914 292.838 35.9933 292.838 37.7227ZM283.444 28.3288C283.444 30.0581 282.043 31.4601 280.313 31.4601C278.584 31.4601 277.182 30.0581 277.182 28.3288C277.182 26.5994 278.584 25.1974 280.313 25.1974C282.043 25.1974 283.444 26.5994 283.444 28.3288ZM280.313 22.0661C282.043 22.0661 283.444 20.6642 283.444 18.9348C283.444 17.2054 282.043 15.8035 280.313 15.8035C278.584 15.8035 277.182 17.2054 277.182 18.9348C277.182 20.6642 278.584 22.0661 280.313 22.0661ZM283.444 9.54088C283.444 11.2703 282.043 12.6722 280.313 12.6722C278.584 12.6722 277.182 11.2703 277.182 9.54088C277.182 7.8115 278.584 6.40956 280.313 6.40956C282.043 6.40956 283.444 7.8115 283.444 9.54088ZM280.313 3.27825C282.043 3.27825 283.444 1.87631 283.444 0.146938C283.444 -1.58244 282.043 -2.98438 280.313 -2.98438C278.584 -2.98438 277.182 -1.58244 277.182 0.146938C277.182 1.87631 278.584 3.27825 280.313 3.27825ZM274.051 18.9348C274.051 20.6642 272.649 22.0661 270.919 22.0661C269.19 22.0661 267.788 20.6642 267.788 18.9348C267.788 17.2054 269.19 15.8035 270.919 15.8035C272.649 15.8035 274.051 17.2054 274.051 18.9348ZM270.919 12.6722C272.649 12.6722 274.051 11.2703 274.051 9.54088C274.051 7.8115 272.649 6.40956 270.919 6.40956C269.19 6.40956 267.788 7.8115 267.788 9.54088C267.788 11.2703 269.19 12.6722 270.919 12.6722ZM274.051 0.146938C274.051 1.87631 272.649 3.27825 270.919 3.27825C269.19 3.27825 267.788 1.87631 267.788 0.146938C267.788 -1.58244 269.19 -2.98438 270.919 -2.98438C272.649 -2.98438 274.051 -1.58244 274.051 0.146938ZM261.525 12.6722C263.255 12.6722 264.657 11.2703 264.657 9.54088C264.657 7.8115 263.255 6.40956 261.525 6.40956C259.796 6.40956 258.394 7.8115 258.394 9.54088C258.394 11.2703 259.796 12.6722 261.525 12.6722ZM264.657 0.146938C264.657 1.87631 263.255 3.27825 261.525 3.27825C259.796 3.27825 258.394 1.87631 258.394 0.146938C258.394 -1.58244 259.796 -2.98438 261.525 -2.98438C263.255 -2.98438 264.657 -1.58244 264.657 0.146938ZM302.232 28.3288C302.232 30.0581 300.83 31.4601 299.101 31.4601C297.372 31.4601 295.97 30.0581 295.97 28.3288C295.97 26.5994 297.372 25.1974 299.101 25.1974C300.83 25.1974 302.232 26.5994 302.232 28.3288ZM299.101 22.0661C300.83 22.0661 302.232 20.6642 302.232 18.9348C302.232 17.2054 300.83 15.8035 299.101 15.8035C297.372 15.8035 295.97 17.2054 295.97 18.9348C295.97 20.6642 297.372 22.0661 299.101 22.0661ZM302.232 9.54088C302.232 11.2703 300.83 12.6722 299.101 12.6722C297.372 12.6722 295.97 11.2703 295.97 9.54088C295.97 7.8115 297.372 6.40956 299.101 6.40956C300.83 6.40956 302.232 7.8115 302.232 9.54088ZM299.101 3.27825C300.83 3.27825 302.232 1.87631 302.232 0.146938C302.232 -1.58244 300.83 -2.98438 299.101 -2.98438C297.372 -2.98438 295.97 -1.58244 295.97 0.146938C295.97 1.87631 297.372 3.27825 299.101 3.27825ZM311.626 18.9348C311.626 20.6642 310.224 22.0661 308.495 22.0661C306.766 22.0661 305.364 20.6642 305.364 18.9348C305.364 17.2054 306.766 15.8035 308.495 15.8035C310.224 15.8035 311.626 17.2054 311.626 18.9348ZM308.495 12.6722C310.224 12.6722 311.626 11.2703 311.626 9.54088C311.626 7.8115 310.224 6.40956 308.495 6.40956C306.766 6.40956 305.364 7.8115 305.364 9.54088C305.364 11.2703 306.766 12.6722 308.495 12.6722ZM311.626 0.146938C311.626 1.87631 310.224 3.27825 308.495 3.27825C306.766 3.27825 305.364 1.87631 305.364 0.146938C305.364 -1.58244 306.766 -2.98438 308.495 -2.98438C310.224 -2.98438 311.626 -1.58244 311.626 0.146938ZM317.889 12.6722C319.618 12.6722 321.02 11.2703 321.02 9.54088C321.02 7.8115 319.618 6.40956 317.889 6.40956C316.16 6.40956 314.758 7.8115 314.758 9.54088C314.758 11.2703 316.16 12.6722 317.889 12.6722ZM321.02 0.146938C321.02 1.87631 319.618 3.27825 317.889 3.27825C316.16 3.27825 314.758 1.87631 314.758 0.146938C314.758 -1.58244 316.16 -2.98438 317.889 -2.98438C319.618 -2.98438 321.02 -1.58244 321.02 0.146938ZM327.283 3.27825C329.012 3.27825 330.414 1.87631 330.414 0.146938C330.414 -1.58244 329.012 -2.98438 327.283 -2.98438C325.553 -2.98438 324.152 -1.58244 324.152 0.146938C324.152 1.87631 325.553 3.27825 327.283 3.27825Z" fill="#7597BA"/>
<path fill-rule="evenodd" clip-rule="evenodd" d="M-52.5601 3.27825C-50.8307 3.27825 -49.4288 1.87631 -49.4288 0.146938C-49.4288 -1.58244 -50.8307 -2.98438 -52.5601 -2.98438C-54.2895 -2.98438 -55.6914 -1.58244 -55.6914 0.146938C-55.6914 1.87631 -54.2895 3.27825 -52.5601 3.27825ZM-14.9844 3.27825C-13.255 3.27825 -11.853 1.87631 -11.853 0.146938C-11.853 -1.58244 -13.255 -2.98438 -14.9844 -2.98438C-16.7137 -2.98438 -18.1157 -1.58244 -18.1157 0.146938C-18.1157 1.87631 -16.7137 3.27825 -14.9844 3.27825ZM-11.853 9.54088C-11.853 11.2703 -13.255 12.6722 -14.9844 12.6722C-16.7137 12.6722 -18.1157 11.2703 -18.1157 9.54088C-18.1157 7.8115 -16.7137 6.40956 -14.9844 6.40956C-13.255 6.40956 -11.853 7.8115 -11.853 9.54088ZM-14.9844 22.0661C-13.255 22.0661 -11.853 20.6642 -11.853 18.9348C-11.853 17.2054 -13.255 15.8035 -14.9844 15.8035C-16.7137 15.8035 -18.1157 17.2054 -18.1157 18.9348C-18.1157 20.6642 -16.7137 22.0661 -14.9844 22.0661ZM-11.853 28.3288C-11.853 30.0581 -13.255 31.4601 -14.9844 31.4601C-16.7137 31.4601 -18.1157 30.0581 -18.1157 28.3288C-18.1157 26.5994 -16.7137 25.1974 -14.9844 25.1974C-13.255 25.1974 -11.853 26.5994 -11.853 28.3288ZM-11.853 37.7227C-11.853 39.4521 -13.255 40.854 -14.9844 40.854C-16.7137 40.854 -18.1157 39.4521 -18.1157 37.7227C-18.1157 35.9933 -16.7137 34.5914 -14.9844 34.5914C-13.255 34.5914 -11.853 35.9933 -11.853 37.7227ZM-21.247 28.3288C-21.247 30.0581 -22.6489 31.4601 -24.3783 31.4601C-26.1077 31.4601 -27.5096 30.0581 -27.5096 28.3288C-27.5096 26.5994 -26.1077 25.1974 -24.3783 25.1974C-22.6489 25.1974 -21.247 26.5994 -21.247 28.3288ZM-24.3783 22.0661C-22.6489 22.0661 -21.247 20.6642 -21.247 18.9348C-21.247 17.2054 -22.6489 15.8035 -24.3783 15.8035C-26.1077 15.8035 -27.5096 17.2054 -27.5096 18.9348C-27.5096 20.6642 -26.1077 22.0661 -24.3783 22.0661ZM-21.247 9.54088C-21.247 11.2703 -22.6489 12.6722 -24.3783 12.6722C-26.1077 12.6722 -27.5096 11.2703 -27.5096 9.54088C-27.5096 7.8115 -26.1077 6.40956 -24.3783 6.40956C-22.6489 6.40956 -21.247 7.8115 -21.247 9.54088ZM-24.3783 3.27825C-22.6489 3.27825 -21.247 1.87631 -21.247 0.146938C-21.247 -1.58244 -22.6489 -2.98438 -24.3783 -2.98438C-26.1077 -2.98438 -27.5096 -1.58244 -27.5096 0.146938C-27.5096 1.87631 -26.1077 3.27825 -24.3783 3.27825ZM-30.6409 18.9348C-30.6409 20.6642 -32.0429 22.0661 -33.7722 22.0661C-35.5016 22.0661 -36.9036 20.6642 -36.9036 18.9348C-36.9036 17.2054 -35.5016 15.8035 -33.7722 15.8035C-32.0429 15.8035 -30.6409 17.2054 -30.6409 18.9348ZM-33.7722 12.6722C-32.0429 12.6722 -30.6409 11.2703 -30.6409 9.54088C-30.6409 7.8115 -32.0429 6.40956 -33.7722 6.40956C-35.5016 6.40956 -36.9036 7.8115 -36.9036 9.54088C-36.9036 11.2703 -35.5016 12.6722 -33.7722 12.6722ZM-30.6409 0.146938C-30.6409 1.87631 -32.0429 3.27825 -33.7722 3.27825C-35.5016 3.27825 -36.9036 1.87631 -36.9036 0.146938C-36.9036 -1.58244 -35.5016 -2.98438 -33.7722 -2.98438C-32.0429 -2.98438 -30.6409 -1.58244 -30.6409 0.146938ZM-43.1662 12.6722C-41.4368 12.6722 -40.0349 11.2703 -40.0349 9.54088C-40.0349 7.8115 -41.4368 6.40956 -43.1662 6.40956C-44.8956 6.40956 -46.2975 7.8115 -46.2975 9.54088C-46.2975 11.2703 -44.8956 12.6722 -43.1662 12.6722ZM-40.0349 0.146938C-40.0349 1.87631 -41.4368 3.27825 -43.1662 3.27825C-44.8956 3.27825 -46.2975 1.87631 -46.2975 0.146938C-46.2975 -1.58244 -44.8956 -2.98438 -43.1662 -2.98438C-41.4368 -2.98438 -40.0349 -1.58244 -40.0349 0.146938ZM-2.45911 28.3288C-2.45911 30.0581 -3.86104 31.4601 -5.59042 31.4601C-7.3198 31.4601 -8.72173 30.0581 -8.72173 28.3288C-8.72173 26.5994 -7.3198 25.1974 -5.59042 25.1974C-3.86104 25.1974 -2.45911 26.5994 -2.45911 28.3288ZM-5.59042 22.0661C-3.86104 22.0661 -2.45911 20.6642 -2.45911 18.9348C-2.45911 17.2054 -3.86104 15.8035 -5.59042 15.8035C-7.3198 15.8035 -8.72173 17.2054 -8.72173 18.9348C-8.72173 20.6642 -7.3198 22.0661 -5.59042 22.0661ZM-2.45911 9.54088C-2.45911 11.2703 -3.86104 12.6722 -5.59042 12.6722C-7.3198 12.6722 -8.72173 11.2703 -8.72173 9.54088C-8.72173 7.8115 -7.3198 6.40956 -5.59042 6.40956C-3.86104 6.40956 -2.45911 7.8115 -2.45911 9.54088ZM-5.59042 3.27825C-3.86104 3.27825 -2.45911 1.87631 -2.45911 0.146938C-2.45911 -1.58244 -3.86104 -2.98438 -5.59042 -2.98438C-7.3198 -2.98438 -8.72173 -1.58244 -8.72173 0.146938C-8.72173 1.87631 -7.3198 3.27825 -5.59042 3.27825ZM6.93483 18.9348C6.93483 20.6642 5.5329 22.0661 3.80352 22.0661C2.07414 22.0661 0.672207 20.6642 0.672207 18.9348C0.672207 17.2054 2.07414 15.8035 3.80352 15.8035C5.5329 15.8035 6.93483 17.2054 6.93483 18.9348ZM3.80352 12.6722C5.5329 12.6722 6.93483 11.2703 6.93483 9.54088C6.93483 7.8115 5.5329 6.40956 3.80352 6.40956C2.07414 6.40956 0.672207 7.8115 0.672207 9.54088C0.672207 11.2703 2.07414 12.6722 3.80352 12.6722ZM6.93483 0.146938C6.93483 1.87631 5.5329 3.27825 3.80352 3.27825C2.07414 3.27825 0.672207 1.87631 0.672207 0.146938C0.672207 -1.58244 2.07414 -2.98438 3.80352 -2.98438C5.5329 -2.98438 6.93483 -1.58244 6.93483 0.146938ZM13.1975 12.6722C14.9268 12.6722 16.3288 11.2703 16.3288 9.54088C16.3288 7.8115 14.9268 6.40956 13.1975 6.40956C11.4681 6.40956 10.0661 7.8115 10.0661 9.54088C10.0661 11.2703 11.4681 12.6722 13.1975 12.6722ZM16.3288 0.146938C16.3288 1.87631 14.9268 3.27825 13.1975 3.27825C11.4681 3.27825 10.0661 1.87631 10.0661 0.146938C10.0661 -1.58244 11.4681 -2.98438 13.1975 -2.98438C14.9268 -2.98438 16.3288 -1.58244 16.3288 0.146938ZM22.5914 3.27825C24.3208 3.27825 25.7227 1.87631 25.7227 0.146938C25.7227 -1.58244 24.3208 -2.98438 22.5914 -2.98438C20.862 -2.98438 19.4601 -1.58244 19.4601 0.146938C19.4601 1.87631 20.862 3.27825 22.5914 3.27825Z" fill="#7597BA"/>
</g>
</svg>
