<svg width="260" height="144" viewBox="0 0 260 144" fill="none" xmlns="http://www.w3.org/2000/svg">
<mask id="mask0" mask-type="alpha" maskUnits="userSpaceOnUse" x="0" y="0" width="260" height="144">
<rect width="260" height="144" fill="#003056"/>
</mask>
<g mask="url(#mask0)">
<rect y="-8" width="260" height="169" fill="#003056"/>
<path d="M85.0045 31.0449L81.3002 27.5713L60.7188 46.9999L81.321 66.4284L85.0045 62.9548L68.0856 46.9999L85.0045 31.0449Z" fill="#B28900"/>
<path d="M35.0478 13.0004L31.5742 16.7047L51.0028 37.2861L70.4314 16.6839L66.9578 13.0004L51.0028 29.9193L35.0478 13.0004Z" fill="#B28900"/>
<path d="M16.9994 62.9551L20.7037 66.4287L41.2852 47.0001L20.6829 27.5716L16.9994 31.0452L33.9183 47.0001L16.9994 62.9551Z" fill="#B28900"/>
<path d="M66.9561 80.9996L70.4297 77.2953L51.0011 56.7139L31.5726 77.3161L35.0461 80.9996L51.0011 64.0807L66.9561 80.9996Z" fill="#B28900"/>
<rect x="22" y="101" width="5" height="32" fill="#B28900"/>
<path d="M35 101H40V133H35V101Z" fill="#B28900"/>
<path d="M48 101H53V133H48V101Z" fill="#B28900"/>
<path d="M61 101H66V133H61V101Z" fill="#B28900"/>
<rect x="74" y="101" width="5" height="32" fill="#B28900"/>
<path d="M277.004 31.0449L273.3 27.5713L252.719 46.9999L273.321 66.4284L277.004 62.9548L260.086 46.9999L277.004 31.0449Z" fill="#B28900"/>
<path d="M227.048 13.0004L223.574 16.7047L243.003 37.2861L262.431 16.6839L258.958 13.0004L243.003 29.9193L227.048 13.0004Z" fill="#B28900"/>
<path d="M208.999 62.9551L212.704 66.4287L233.285 47.0001L212.683 27.5716L208.999 31.0452L225.918 47.0001L208.999 62.9551Z" fill="#B28900"/>
<path d="M258.956 80.9996L262.43 77.2953L243.001 56.7139L223.573 77.3161L227.046 80.9996L243.001 64.0807L258.956 80.9996Z" fill="#B28900"/>
<rect x="214" y="101" width="5" height="32" fill="#B28900"/>
<path d="M227 101H232V133H227V101Z" fill="#B28900"/>
<path d="M240 101H245V133H240V101Z" fill="#B28900"/>
<path d="M253 101H258V133H253V101Z" fill="#B28900"/>
<path d="M162.96 10.9996L166.434 7.29533L147.005 -13.2861L127.576 7.31615L131.05 10.9996L147.005 -5.91926L162.96 10.9996Z" fill="#B28900"/>
<path d="M181.008 101.045L177.304 97.5713L156.723 117L177.325 136.428L181.008 132.955L164.09 117L181.008 101.045Z" fill="#B28900"/>
<path d="M131.052 83.0004L127.578 86.7047L147.007 107.286L166.435 86.6839L162.962 83.0004L147.007 99.9193L131.052 83.0004Z" fill="#B28900"/>
<path d="M113.003 132.955L116.708 136.429L137.289 117L116.687 97.5716L113.003 101.045L129.922 117L113.003 132.955Z" fill="#B28900"/>
<path d="M162.96 151L166.434 147.295L147.005 126.714L127.576 147.316L131.05 151L147.005 134.081L162.96 151Z" fill="#B28900"/>
<rect x="118.004" y="31" width="5" height="32" fill="#B28900"/>
<path d="M131.004 31H136.004V63H131.004V31Z" fill="#B28900"/>
<path d="M144.004 31H149.004V63H144.004V31Z" fill="#B28900"/>
<path d="M157.004 31H162.004V63H157.004V31Z" fill="#B28900"/>
<rect x="170.004" y="31" width="5" height="32" fill="#B28900"/>
</g>
</svg>
