<svg width="356" height="356" viewBox="0 0 356 356" fill="none" xmlns="http://www.w3.org/2000/svg">
<circle cx="178" cy="178" r="178" fill="#003056"/>
<mask id="mask0" mask-type="alpha" maskUnits="userSpaceOnUse" x="0" y="0" width="356" height="356">
<circle cx="178" cy="178" r="178" fill="#003056"/>
</mask>
<g mask="url(#mask0)">
<path d="M1.1468 46.7398C1.07819 46.5911 1.00958 46.4425 0.940971 46.2938C0.940971 46.2938 0.906667 46.431 0.849494 46.7398H0.620802L0.792321 47.0829C0.151981 51.0057 -1.9863 70.8714 5.2747 136.85C51.5049 242.469 124.206 323.647 208.605 394.944C215.718 400.903 226.786 403.121 236.392 404.791C255.956 408.222 275.704 410.063 295.726 412.66C286.327 422.918 272.113 423.021 257.82 427.607C274.435 438.209 291.141 443.413 308.224 447.222C333.323 452.883 358.331 452.299 383.235 445.666C397.071 442.018 418.683 457 418.683 457H500.325L511 -34H15.4515L1.1468 46.7398ZM136.75 57.6162L139.186 57.2159C143.462 56.4954 146.39 56.7012 147.887 57.822C149.077 58.7141 149.831 60.5898 150.152 63.4032C152.747 85.8993 154.828 108.899 156.852 131.12C157.161 134.586 157.081 138.097 157.012 141.825C156.978 143.518 156.944 145.21 156.944 146.892L156.955 157.768L163.999 149.476C181.951 128.353 187.783 103.947 192.002 77.9965C192.254 78.5569 192.494 79.1059 192.734 79.6663C221.206 145.908 255.373 201.091 297.19 248.359C310.259 263.158 324.004 277.74 337.302 291.841C346.141 301.208 355.266 310.907 364.105 320.559C389.547 348.419 402.754 377.217 404.481 408.577C404.629 412.133 407.076 417.154 410.77 419.099C418.568 423.216 426.355 426.075 433.891 428.843C439.745 430.993 445.783 433.211 451.843 436.036C450.631 438.415 448.927 441.572 447.509 443.974C446.411 443.402 445.28 442.796 444.273 442.258C443.279 441.732 442.409 441.263 441.815 440.966C427.99 433.612 414.063 427.367 400.593 421.34C380.937 412.534 362.367 404.208 343.877 392.657C251.668 335.073 166.892 258.984 84.6768 160.055C68.9313 141.093 57.348 123.789 45.0787 105.479C37.932 94.7972 30.5338 83.7607 22.0036 71.9236C19.5108 68.4354 17.6127 64.2381 15.4515 59.3889C58.7888 70.5054 95.0938 64.5011 136.75 57.6162Z" fill="#FFC915"/>
</g>
</svg>
