<svg width="356" height="356" viewBox="0 0 356 356" fill="none" xmlns="http://www.w3.org/2000/svg">
<circle cx="178" cy="178" r="178" fill="#003056"/>
<mask id="mask0" mask-type="alpha" maskUnits="userSpaceOnUse" x="0" y="0" width="356" height="356">
<circle cx="178" cy="178" r="178" fill="#013E6F"/>
</mask>
<g mask="url(#mask0)">
<path d="M9.92852 194.142C5.48373 189.803 -1.05695 188.194 -9.02504 189.496L-9.45866 189.55C-12.4038 189.821 -38.6389 191.955 -51.6661 183.24C-55.6592 180.564 -59.7969 176.062 -64.0971 169.752H-79.3286L-73.1673 188.122C-59.0921 202.821 -51.6661 212.837 -51.124 217.882C-50.1664 226.831 -68.325 254.169 -71.8303 259.34C-71.487 261.491 -68.4335 266.771 -63.6454 269.284C-60.1763 271.092 -57.0685 270.803 -53.8342 268.38C-44.0593 261.076 -38.8918 231.297 -37.9342 214.248L-37.6271 208.842L-32.2428 208.317C-14.1384 206.545 7.10992 203.707 14.3734 201.736C13.9397 199.801 12.6207 196.764 9.92852 194.142Z" fill="#003056"/>
<path d="M28.9514 235.78C17.5323 232.58 3.63784 226.975 -12.8043 218.947C-16.6889 219.417 -20.9531 219.887 -25.705 220.376C-25.9038 222.527 -26.1748 225.167 -26.5723 228.132C-10.889 235.165 14.8582 245.706 22.4469 246.212C29.0418 246.664 34.2635 244.133 34.6068 242.994C34.6068 242.994 34.6429 240.644 28.9514 235.78Z" fill="#003056"/>
<path d="M170.769 246.087C166.974 245.146 162.819 244.08 158.193 242.832C157.254 244.767 156.043 247.135 154.634 249.775C166.794 261.925 187.12 280.927 194.041 284.091C200.039 286.84 205.821 286.351 206.562 285.411C206.58 285.393 207.447 283.187 203.834 276.606C194.276 269.573 183.29 259.412 170.769 246.087Z" fill="#003056"/>
<path d="M21.2517 212.656C19.1919 213.488 15.8492 214.464 10.1938 215.549C42.3733 229.109 53.8105 226.94 55.527 224.463C56.4124 223.161 55.2921 219.943 54.1357 218.894C50.9919 215.965 35.1823 213.434 21.2517 212.656Z" fill="#003056"/>
<path d="M204.845 252.306C202.623 252.36 199.154 252.071 193.48 251.076C218.74 275.195 230.213 277.22 232.689 275.503C233.99 274.599 234.062 271.2 233.375 269.807C231.478 265.956 217.584 257.965 204.845 252.306Z" fill="#003056"/>
<path d="M28.9514 235.78C17.5323 232.58 3.63784 226.975 -12.8043 218.947C-16.6889 219.417 -20.9531 219.887 -25.705 220.376C-25.9038 222.527 -26.1748 225.167 -26.5723 228.132C-10.889 235.165 14.8582 245.706 22.4469 246.212C29.0418 246.664 34.2635 244.133 34.6068 242.994C34.6068 242.994 34.6429 240.644 28.9514 235.78Z" fill="#003056"/>
<path d="M21.2517 212.656C19.1919 213.488 15.8492 214.464 10.1938 215.549C42.3733 229.109 53.8105 226.94 55.527 224.463C56.4124 223.161 55.2921 219.943 54.1357 218.894C50.9919 215.965 35.1823 213.434 21.2517 212.656Z" fill="#003056"/>
<path d="M9.92556 194.141C6.36612 190.669 1.45152 188.988 -4.45679 189.096C-6.93214 190.254 -9.47968 191.176 -12.0634 192.098C-14.9544 192.839 -17.8634 193.635 -20.8447 194.069C-26.8072 194.936 -33.0046 194.954 -39.1297 193.797C-45.2187 192.514 -51.2715 189.892 -56.0235 185.643C-58.3362 183.473 -60.4141 181.069 -61.9318 178.357C-63.4315 175.645 -63.4495 172.661 -64.118 169.732H-79.3496L-73.1883 188.102C-59.1131 202.801 -51.6871 212.818 -51.145 217.862C-50.1874 226.812 -68.346 254.149 -71.8513 259.32C-71.508 261.472 -68.4544 266.751 -63.6663 269.264C-60.1972 271.073 -57.0895 270.783 -53.8553 268.36C-44.0803 261.056 -38.9129 231.278 -37.9552 214.228L-37.6481 208.822L-32.2638 208.298C-14.1595 206.526 7.08887 203.687 14.3523 201.716C13.9367 199.8 12.6177 196.762 9.92556 194.141Z" fill="#003056"/>
<path d="M155.088 228.891L156.371 229.235C173.934 234.008 194.802 238.908 202.283 239.649C202.536 237.66 202.391 234.351 200.801 230.952C198.181 225.329 192.634 221.496 184.738 219.887C157.491 214.319 138.231 200.559 137.436 199.963L136.677 199.312C136.604 199.24 134.328 195.533 129.576 192.658C127.335 191.302 111.092 190.959 104.19 192.586C105.202 193.092 107.876 205.351 107.876 205.351C108.256 205.64 108.635 205.911 108.996 206.219C126.721 220.538 129.413 226.306 128.076 231.441C126.107 238.998 108.436 257.711 101.245 262.864C100.811 264.998 101.787 271.018 105.383 275.05C107.984 277.961 111.002 278.811 114.868 277.69C126.613 274.309 142.007 248.328 148.945 232.742L149.162 232.254C146.434 228.638 144.193 224.805 142.531 220.809C146.036 223.901 149.903 226.414 153.878 228.331C154.293 228.566 154.691 228.711 155.088 228.891Z" fill="#003056"/>
<path d="M170.769 246.087C166.974 245.146 162.819 244.08 158.193 242.832C157.254 244.767 156.043 247.135 154.634 249.775C166.794 261.925 187.12 280.927 194.041 284.091C200.039 286.84 205.821 286.351 206.562 285.411C206.58 285.393 207.447 283.187 203.834 276.606C194.276 269.573 183.29 259.412 170.769 246.087Z" fill="#003056"/>
<path d="M204.845 252.306C202.623 252.36 199.154 252.071 193.48 251.076C218.74 275.195 230.213 277.22 232.689 275.503C233.99 274.599 234.062 271.2 233.375 269.807C231.478 265.956 217.584 257.965 204.845 252.306Z" fill="#003056"/>
<path d="M6.02246 182.949L7.79321 184.468L6.07672 182.895C6.05865 182.913 6.04053 182.931 6.02246 182.949Z" fill="#003056"/>
<path d="M176.662 64.559L175.09 62.4797C172.669 59.2795 170.465 56.3324 168.044 53.5119C165.641 50.6914 163.147 47.9974 160.491 45.6108C159.245 44.4898 157.962 43.4412 156.643 42.4648C151.674 45.5566 149.325 51.27 151.132 56.1878C154.113 64.3059 165.496 65.8789 176.662 64.559Z" fill="#003056"/>
<path d="M123.319 -23.455L130.203 -1.14396L37.0978 -47.6465L-16.4022 -77.2802L-20.1604 -79.3594C-19.9255 -78.2926 -19.5822 -77.1355 -19.1847 -75.9241C-19.1305 -75.7795 -19.1124 -75.6529 -19.0582 -75.5083C-16.3479 -67.6614 -9.3195 -55.6199 8.83907 -42.7468L16.6266 -37.2322C20.3306 -34.4659 26.0401 -30.5606 27.865 -30.4341L-56.5137 -33.2365C-55.9717 -29.4396 -53.2795 -25.9321 -48.9793 -22.5149C-40.9931 -16.1687 -27.3516 -10.1842 -10.8011 -3.38596C-3.5738 -0.420784 3.8884 2.65288 10.5556 5.83501L31.1353 15.6527L-46.9917 23.1921L32.4001 52.1206C32.2014 52.3376 31.9845 52.5364 31.7677 52.7353L-8.59671 50.3668C-29.2668 49.1373 -46.1606 54.7603 -58.4108 61.1788C-63.1628 63.6739 -67.2282 66.2775 -70.5347 68.6641L-1.58623 76.746L-4.65784 77.7404L-28.9777 85.6776C-35.8798 87.9377 -41.2099 99.1294 -44.2815 109.526C-35.7171 106.777 -22.9249 102.8 -9.21108 99.0571C-4.63982 97.8096 -0.303459 96.6705 3.87031 95.6399C29.997 89.1129 48.3001 86.7082 58.3461 88.4982C63.0619 89.3479 69.44 90.8486 76.071 92.4578C78.0405 92.9459 80.0099 93.4341 81.9794 93.9223C90.2907 95.9834 99.7224 98.3158 102.649 98.5508C104.637 98.7135 106.534 98.8582 108.377 99.0028C134.449 101.01 147.675 101.426 158.625 100.341C157.739 98.3881 156.981 96.1643 156.204 93.85C154.722 89.4384 152.951 84.1951 150.277 81.4469L137.648 76.1132C137.648 76.1132 141.514 74.4317 148.904 72.3525C144.026 69.2246 140.864 65.03 139.238 60.6003C136.726 53.7478 137.774 46.2988 141.532 40.2057C140.575 39.6994 139.527 39.3197 138.515 38.94C136.437 38.2168 134.305 37.6925 132.155 37.2405C130.005 36.7885 127.837 36.4269 125.65 36.1195C123.482 35.8122 121.26 35.559 119.128 35.3782L110.527 34.6731L118.604 30.9666C122.705 29.0863 126.644 28.2184 130.854 27.6399C135.028 27.1155 139.274 27.1155 143.484 27.5314C147.73 27.9834 151.777 28.8694 156.005 30.2254C160.305 31.7441 164.154 33.9318 167.677 36.3546C171.236 38.7773 174.471 41.4532 177.578 44.2376C180.668 47.0039 183.595 50.0052 186.323 52.7353L196.261 62.7156C187.986 34.6912 161.48 -4.27184 123.319 -23.455Z" fill="#003056"/>
<path d="M170.013 90.0352L172.452 98.7498C176.59 104.319 182.733 109.074 188.063 112.527L185.895 97.8458C182.48 96.0196 176.571 93.145 170.013 90.0352Z" fill="#003056"/>
<path d="M123.322 -23.455L130.206 -1.14396L37.1002 -47.6465L-16.3817 -77.2802L-20.1399 -79.3594C-19.9051 -78.2926 -19.5618 -77.1355 -19.1643 -75.9241C-19.1101 -75.7795 -19.092 -75.6529 -19.0378 -75.5083C-16.3276 -67.6614 -9.29903 -55.6199 8.85954 -42.7468L16.6469 -37.2322C20.3509 -34.4659 26.0605 -30.5606 27.8854 -30.4341L-56.4932 -33.2365C-55.9512 -29.4396 -53.259 -25.9321 -48.9588 -22.5149C-19.8147 -17.2716 15.9423 -18.935 46.8028 -17.7779C15.9423 -18.935 -19.8147 -17.2716 -48.9588 -22.5149C-40.9726 -16.1687 -27.3311 -10.1842 -10.7806 -3.38596C-3.55332 -0.420784 3.90887 2.65288 10.576 5.83501L31.1558 15.6527L-46.9712 23.1921L32.4206 52.1206C32.2218 52.3376 32.0049 52.5364 31.7881 52.7353L-8.57623 50.3668C-29.2463 49.1373 -46.1401 54.7603 -58.3903 61.1788C-63.1423 63.6739 -67.2077 66.2775 -70.5142 68.6641L-1.56575 76.746L-4.63737 77.7404L-28.9572 85.6776C-35.8593 87.9377 -41.1894 99.1294 -44.261 109.526C-35.6966 106.777 -22.9044 102.8 -9.1906 99.0571C-4.61934 97.8096 -0.282982 96.6705 3.89078 95.6399C30.0174 89.1129 48.3206 86.7082 58.3665 88.4982C63.0823 89.3479 69.4604 90.8486 76.0914 92.4578C72.5501 87.9377 70.0748 82.6763 69.2436 77.0533C70.0748 82.6763 72.5501 87.9558 76.0914 92.4578C78.0609 92.9459 80.0303 93.4341 81.9998 93.9223C90.3112 95.9834 99.7428 98.3158 102.67 98.5508C104.657 98.7135 106.554 98.8582 108.397 99.0028C134.47 101.01 147.696 101.426 158.645 100.341C157.76 98.3881 157.001 96.1643 156.224 93.85C154.742 89.4384 152.972 84.1951 150.298 81.4469L137.668 76.1132C137.668 76.1132 141.535 74.4317 148.924 72.3525C144.064 69.2246 140.884 65.03 139.258 60.6003C136.747 53.7478 137.794 46.2988 141.553 40.2057C140.595 39.6994 139.547 39.3197 138.535 38.94C136.457 38.2168 134.325 37.6925 132.175 37.2405C130.025 36.7885 127.857 36.4269 125.671 36.1195C123.502 35.8122 121.28 35.559 119.148 35.3782L110.548 34.6731L118.624 30.9666C122.725 29.0863 126.664 28.2184 130.874 27.6399C135.048 27.1155 139.294 27.1155 143.504 27.5314C147.75 27.9834 151.797 28.8694 156.025 30.2254C160.326 31.7441 164.174 33.9318 167.697 36.3546C171.257 38.7773 174.491 41.4532 177.599 44.2376C180.688 47.0039 183.615 50.0052 186.344 52.7353L196.281 62.7156C187.988 34.6912 161.482 -4.27184 123.322 -23.455ZM59.6855 -17.1269C59.2157 -17.6693 58.5652 -18.3383 57.7702 -19.0977C58.5652 -18.3383 59.2157 -17.6693 59.6855 -17.1269ZM68.9726 74.5944C73.851 77.1799 78.6391 79.9462 83.3187 82.8933C78.6391 79.9643 73.851 77.198 68.9726 74.5944Z" fill="#003056"/>
<path d="M41.1623 179.208C37.8016 177.056 33.8627 176.261 30.0323 176.604C26.1837 176.966 22.4436 178.286 18.9745 180.076C17.24 180.98 15.5596 181.992 13.9877 183.113C13.2107 183.674 12.4338 184.252 11.7111 184.867C11.0606 185.409 10.3379 186.078 10.0669 186.458L20.9982 195.914C20.9982 195.86 21.0885 195.715 21.1246 195.607L21.3956 195.119C21.5944 194.775 21.7932 194.432 22.0281 194.088C22.4798 193.401 22.9495 192.714 23.4554 192.063C24.4672 190.743 25.5694 189.55 26.7438 188.501C29.0927 186.422 31.5681 184.976 34.4409 184.777C35.8864 184.686 37.4583 184.921 39.0845 185.536C40.6745 186.205 42.3186 187.145 43.8544 188.357C46.9622 190.761 49.6724 194.052 52.1297 197.523C51.3528 194.196 50.3771 190.834 48.8594 187.561C48.9497 187.796 49.0582 188.049 49.1485 188.284C47.161 184.704 44.5591 181.323 41.1623 179.208Z" fill="#003056"/>
<path d="M170.013 90.0352L172.452 98.7498C176.59 104.319 182.733 109.074 188.063 112.527L185.895 97.8458C182.48 96.0196 176.571 93.145 170.013 90.0352Z" fill="#003056"/>
<path d="M123.319 -23.455L130.203 -1.14396L37.0978 -47.6465L-16.4022 -77.2802L-20.1604 -79.3594C-19.9255 -78.2926 -19.5822 -77.1355 -19.1847 -75.9241C-19.1305 -75.7795 -19.1124 -75.6529 -19.0582 -75.5083C-16.3479 -67.6614 -9.3195 -55.6199 8.83907 -42.7468L16.6266 -37.2322C20.3306 -34.4659 26.0401 -30.5606 27.865 -30.4341L-56.5137 -33.2365C-55.9717 -29.4396 -53.2795 -25.9321 -48.9793 -22.5149C-40.9931 -16.1687 -27.3516 -10.1842 -10.8011 -3.38596C-3.5738 -0.420784 3.8884 2.65288 10.5556 5.83501L31.1353 15.6527L-46.9917 23.1921L32.4001 52.1206C32.2014 52.3376 31.9845 52.5364 31.7677 52.7353L-8.59671 50.3668C-29.2668 49.1373 -46.1606 54.7603 -58.4108 61.1788C-63.1628 63.6739 -67.2282 66.2775 -70.5347 68.6641L-1.58623 76.746L-4.65784 77.7404L-28.9777 85.6776C-35.8798 87.9377 -41.2099 99.1294 -44.2815 109.526C-35.7171 106.777 -22.9249 102.8 -9.21108 99.0571C-4.63982 97.8096 -0.303459 96.6705 3.87031 95.6399C29.997 89.1129 48.3001 86.7082 58.3461 88.4982C63.0619 89.3479 69.44 90.8486 76.071 92.4578C78.0405 92.9459 80.0099 93.4341 81.9794 93.9223C90.2907 95.9834 99.7224 98.3158 102.649 98.5508C104.637 98.7135 106.534 98.8582 108.377 99.0028C134.449 101.01 147.675 101.426 158.625 100.341C157.739 98.3881 156.981 96.1643 156.204 93.85C154.722 89.4384 152.951 84.1951 150.277 81.4469L137.648 76.1132C137.648 76.1132 141.514 74.4317 148.904 72.3525C144.026 69.2246 140.864 65.03 139.238 60.6003C136.726 53.7478 137.774 46.2988 141.532 40.2057C140.575 39.6994 139.527 39.3197 138.515 38.94C136.437 38.2168 134.305 37.6925 132.155 37.2405C130.005 36.7885 127.837 36.4269 125.65 36.1195C123.482 35.8122 121.26 35.559 119.128 35.3782L110.527 34.6731L118.604 30.9666C122.705 29.0863 126.644 28.2184 130.854 27.6399C135.028 27.1155 139.274 27.1155 143.484 27.5314C147.73 27.9834 151.777 28.8694 156.005 30.2254C160.305 31.7441 164.154 33.9318 167.677 36.3546C171.236 38.7773 174.471 41.4532 177.578 44.2376C180.668 47.0039 183.595 50.0052 186.323 52.7353L196.261 62.7156C187.986 34.6912 161.48 -4.27184 123.319 -23.455Z" fill="#003056"/>
<path d="M538.454 -335.884C538.454 -335.884 635.209 -387.702 642.816 -437.893C601.241 -405.511 524.27 -392.999 463.742 -379.909C512.291 -406.542 529.004 -448.126 542.772 -482.461C544.218 -486.077 545.645 -489.602 547.054 -493.038L557.678 -518.676L535.906 -501.499C447.715 -431.908 351.574 -408.096 287.938 -392.33C269.87 -387.865 254.277 -383.995 242.551 -379.927C241.051 -379.403 236.48 -378.354 231.186 -377.125C207.914 -371.719 159.473 -360.491 106.099 -337.077C39.4997 -307.859 -11.6695 -269.746 -45.9811 -223.804C-63.9951 -199.667 -77.1126 -181.243 -87.6283 -166.453C-105.968 -140.671 -115.995 -126.568 -129.836 -113.695C-162.124 -118.197 -186.209 -117.076 -202.434 -114.743C-219.581 -136.747 -236.167 -164.446 -248.996 -201.095C-279.097 -287.031 -360.838 -374.25 -473.511 -457.166C-476.981 -459.716 -479.709 -461.723 -480.793 -462.627C-490.333 -470.564 -503.577 -479.676 -518.917 -490.217C-572.905 -527.39 -654.519 -583.548 -712.572 -679.753L-728.779 -707L-727.84 -655.037C-725.455 -620.106 -723.684 -592.877 -698.443 -556.861C-703.701 -560.152 -709.067 -563.46 -714.524 -566.841C-758.791 -594.197 -808.984 -625.187 -831.768 -662.414L-840.062 -675.956L-843.35 -660.425C-849.023 -633.666 -832.798 -599.585 -815.2 -572.266C-873.723 -623.559 -926.301 -674.112 -927.241 -675.016L-937.106 -684.526L-937.937 -670.839C-938.046 -669.14 -940.087 -628.495 -908.757 -570.584C-876.867 -511.642 -825.806 -463.549 -773.39 -426.086C-818.831 -447.493 -874.012 -480.96 -874.789 -481.43L-889.207 -490.199L-884.112 -474.108C-883.696 -472.824 -873.777 -442.015 -847.939 -405.041C-830.829 -380.542 -804.106 -349.968 -765.621 -325.506C-790.88 -332.864 -816.302 -340.892 -836.918 -347.799L-848.987 -351.849L-844.904 -339.771C-844.795 -339.445 -832.744 -306.304 -790.013 -270.957C-789.507 -270.541 -788.965 -270.144 -788.441 -269.71L-771.131 -242.228C-757.056 -219.899 -737.85 -200.733 -715.553 -186.793C-706.628 -181.225 -697.305 -175.837 -688.578 -171.009C-690.493 -171.027 -692.535 -171.208 -694.829 -171.66C-710.151 -174.662 -725.491 -177.862 -740.596 -181.351L-751.816 -183.937L-748.058 -173.197C-742.728 -157.955 -733.315 -145.245 -721.932 -134.74C-710.512 -124.29 -697.052 -116.425 -682.958 -110.766C-675.876 -107.981 -668.648 -105.721 -661.331 -103.859C-659.849 -103.497 -658.349 -103.172 -656.868 -102.847C-662.975 -101.888 -669.1 -100.912 -675.189 -99.8995C-685.94 -98.1096 -696.636 -96.2835 -707.387 -94.3127L-715.174 -92.9025L-712.102 -85.7065C-711.307 -83.8623 -710.476 -82.669 -709.663 -81.5119C-708.832 -80.3728 -707.983 -79.3965 -707.134 -78.4382C-705.417 -76.5579 -703.646 -74.8945 -701.822 -73.3215C-698.19 -70.1756 -694.396 -67.4454 -690.511 -64.8961C-682.723 -59.8336 -674.557 -55.6209 -666.191 -51.9687C-649.442 -44.6824 -631.952 -39.6379 -614.263 -36.076C-596.556 -32.5323 -578.632 -30.5435 -560.691 -29.6757C-558.45 -29.5853 -556.21 -29.4767 -553.969 -29.2778C-553.048 -29.2055 -552.126 -29.2417 -551.205 -29.314C-553.716 -27.8134 -556.174 -26.1862 -558.541 -24.4504C-565.949 -19.0264 -572.417 -12.3727 -577.801 -4.97791C-583.149 2.45306 -587.468 10.553 -590.395 19.3581L-593.792 29.5554L-583.168 27.5485C-570.719 25.1981 -557.98 23.1912 -545.297 21.4374C-532.613 19.6836 -519.875 18.2191 -507.136 17.08C-496.693 16.1579 -486.25 15.4708 -475.806 15.0731C-477.215 15.724 -478.643 16.3568 -480.034 17.0439C-484.37 19.2135 -488.617 21.5638 -492.736 24.1855C-494.796 25.4873 -496.819 26.8615 -498.825 28.2898C-499.819 29.013 -500.813 29.7363 -501.806 30.4956C-502.818 31.2731 -503.703 31.9963 -504.86 32.9726L-513.623 40.6025L-502.439 43.7665C-496.548 45.4299 -491.001 46.6594 -485.256 47.8527C-479.546 49.0098 -473.837 50.0042 -468.091 50.8901C-456.618 52.6439 -445.054 53.8192 -433.472 54.4881C-433.4 54.4881 -433.346 54.4881 -433.274 54.4881C-421.746 55.1209 -410.182 55.2294 -398.637 54.7051C-397.661 54.5062 -396.703 54.2712 -395.746 54.0723C-439.76 67.2529 -499.584 85.9297 -515.791 90.4137C-536.353 96.0909 -556.932 101.696 -577.548 107.192C-587.865 109.94 -598.182 112.652 -608.535 115.31L-624.128 119.198C-625.014 119.396 -625.881 119.613 -626.766 119.83C-618.292 125.634 -608.698 130.245 -598.887 133.933C-595.382 135.235 -591.804 136.41 -588.227 137.441C-584.685 138.453 -580.981 139.375 -577.675 139.863C-576.916 139.972 -576.031 140.062 -576.013 140.008L-575.868 139.99L-575.308 139.881C-574.946 139.827 -574.495 139.737 -574.061 139.628C-572.309 139.267 -528.005 133.372 -465.598 116.305C-479.926 122.94 -531.474 141.581 -531.474 141.581L-554.132 147.728C-557.926 148.723 -561.721 149.717 -565.587 150.657C-567.412 151.091 -569.201 151.525 -571.134 151.941C-577.386 153.821 -582.029 155.214 -582.029 155.214L-591.136 157.636C-588.895 159.101 -586.619 160.511 -584.27 161.831C-578.181 165.266 -571.766 168.304 -565.262 170.744C-563.672 171.323 -561.937 171.938 -560.474 172.372C-558.992 172.806 -557.493 173.149 -555.975 173.366C-552.939 173.836 -549.832 173.836 -546.778 173.42C-545.26 173.221 -543.743 172.896 -542.261 172.498C-542.261 172.498 -491.236 161.379 -441.079 146.354C-447.547 150.205 -522.892 179.55 -522.892 179.55L-531.691 182.406L-535.467 184.196L-525.711 190.597C-515.466 197.323 -502.529 200.306 -489.249 199.04C-488.454 198.968 -486.557 198.751 -473.638 192.26C-473.638 192.26 -409.387 153.387 -409.369 153.387C-409.405 153.442 -409.514 153.532 -409.64 153.659C-410.761 155.087 -484.587 212.51 -484.587 212.51C-483.449 212.908 -480.721 213.794 -479.51 214.119C-474.939 215.421 -470.494 216.18 -465.616 216.885C-460.701 217.572 -455.823 218.043 -450.8 218.368L-446.518 218.639L-445.596 217.808C-438.333 211.317 -425.811 200.107 -412.513 188.282C-412.513 188.282 -365.716 146.788 -360.206 142.214C-362.555 146.191 -422.505 216.687 -422.505 216.687C-419.487 217.139 -415.205 217.681 -412.224 217.952C-408.845 218.26 -405.322 218.404 -402.034 218.404C-401.166 218.422 -400.263 218.314 -399.54 218.278C-398.817 218.223 -397.661 218.024 -396.938 217.916C-395.493 217.735 -394.12 217.193 -392.71 216.795C-387.073 215.15 -383.188 212.166 -379.015 207.719C-374.606 202.873 -369.764 196.4 -365.59 190.777C-364.723 189.584 -363.855 188.391 -362.988 187.18C-358.832 181.376 -352.418 172.372 -345.588 162.916C-343.962 160.656 -342.354 158.396 -340.71 156.154C-339.825 154.798 -338.939 153.442 -337.837 152.248C-330.754 142.575 -323.961 133.499 -319.408 127.985L-317.727 133.68L-316.264 138.688C-316.191 138.833 -316.119 138.995 -316.065 139.14C-316.029 139.231 -315.993 139.321 -315.938 139.411C-314.764 141.888 -313.499 144.311 -312.108 146.68C-311.439 147.873 -310.699 149.048 -309.976 150.205C-309.199 151.399 -308.512 152.465 -307.537 153.785L-303.995 158.649L-299.009 155.286C-298.394 154.87 -298.177 154.689 -297.798 154.4C-297.437 154.129 -297.166 153.876 -296.858 153.622C-296.226 153.098 -295.702 152.574 -295.142 152.049C-294.076 150.983 -293.028 149.898 -292.125 148.741C-290.553 146.897 -289.198 144.926 -287.951 142.919C-287.824 143.172 -287.698 143.443 -287.571 143.696C-284.698 149.41 -280.94 154.653 -276.532 159.191C-274.327 161.469 -271.978 163.585 -269.467 165.537C-268.22 166.514 -266.919 167.436 -265.582 168.322C-264.914 168.774 -264.227 169.19 -263.523 169.623C-262.782 170.057 -262.185 170.419 -261.174 170.925L-257.524 172.788L-254.38 170.13C-253.964 169.768 -253.892 169.696 -253.693 169.497L-253.224 169.027C-252.935 168.719 -252.664 168.43 -252.429 168.141C-251.923 167.562 -251.489 166.966 -251.055 166.387C-250.206 165.212 -249.484 164.019 -248.833 162.807C-248.002 161.27 -247.315 159.697 -246.719 158.106C-245.31 160.005 -243.738 161.831 -242.003 163.512C-240.305 165.14 -238.462 166.658 -236.438 167.996C-235.427 168.665 -234.36 169.28 -233.222 169.84C-232.662 170.13 -232.066 170.401 -231.47 170.654L-230.512 171.034L-229.988 171.215L-229.247 171.432L-225.453 172.571L-222.833 169.388C-222.164 168.575 -221.785 168.051 -221.315 167.4C-220.863 166.767 -220.43 166.152 -220.032 165.501C-219.436 164.579 -218.894 163.639 -218.37 162.699L-215.786 170.22L-213.184 177.778C-212.136 180.761 -210.727 183.654 -208.975 186.294C-207.24 188.951 -205.162 191.392 -202.831 193.544C-201.657 194.629 -200.428 195.623 -199.145 196.563C-198.477 197.015 -197.863 197.467 -197.158 197.901L-196.128 198.534L-195.261 199.04L-181.384 206.995L-175.042 210.63L-172.386 203.922C-172.188 203.416 -172.007 202.945 -171.826 202.439C-170.562 204.247 -169.333 206.055 -167.978 207.755C-164.545 212.167 -160.823 216.198 -156.938 220.013C-152.999 223.846 -149.06 227.354 -144.561 230.843L-137.768 236.123L-134.841 228.023C-132.925 222.725 -131.516 217.753 -130.233 212.528C-129.167 208.117 -128.282 203.633 -127.613 199.094C-121.091 207.249 -115.544 226.088 -113.484 240.39L-111.117 256.698L-101.956 243.011C-91.9647 228.077 -80.13 211.461 -74.7637 205.296C-69.542 211.244 -65.1154 216.813 -63.959 219.254C-65.278 224.895 -77.8896 246.212 -82.6957 252.648C-84.9181 255.631 -85.1168 259.428 -84.0146 263.316C-85.695 265.069 -87.267 266.968 -88.6582 269.083C-90.1398 271.343 -91.4227 273.838 -92.2719 276.55C-93.121 279.262 -93.4824 282.21 -93.1934 285.012C-92.9223 287.833 -92.037 290.436 -90.8264 292.66C-89.5616 294.866 -88.0801 296.746 -86.4539 298.373C-83.2017 301.646 -79.4976 303.96 -75.7756 306.003C-78.4496 302.695 -80.8889 299.205 -82.3705 295.553C-83.1293 293.745 -83.5991 291.901 -83.7979 290.183C-83.9424 288.447 -83.7617 286.874 -83.2739 285.5C-82.2982 282.788 -80.2565 280.781 -77.6185 279.082C-76.6248 278.449 -75.5226 277.888 -74.3843 277.364C-69.7589 281.179 -64.6456 283.15 -59.5503 283.15C-55.0333 283.15 -50.5342 281.631 -46.4147 278.539C-37.0012 271.506 -31.7614 255.378 -28.8705 241.059C-17.1984 246.212 10.8435 258.163 21.4134 258.868C22.2084 258.922 23.0034 258.94 23.8165 258.94C30.8812 258.94 38.6324 256.879 43.1856 252.214C44.7214 252.214 46.2392 252.323 47.6666 252.558C50.7563 253.1 53.4303 254.149 55.3636 256.282C56.3392 257.349 57.1343 258.741 57.6583 260.387C58.1281 262.05 58.4171 263.93 58.4171 265.883C58.4713 269.825 57.586 274.001 56.3935 278.069C59.0314 274.742 61.5429 271.162 63.2775 266.896C64.1447 264.762 64.7771 262.448 65.0843 259.935C65.3192 257.421 65.1385 254.673 64.3074 251.961C63.4763 249.267 61.9947 246.682 60.1698 244.512C58.3268 242.324 56.1767 240.534 53.9362 239.034C53.7194 238.889 53.4845 238.763 53.2496 238.636C57.9474 237.949 61.6152 236.231 64.2351 233.465C65.4276 233.393 66.6202 233.375 67.7585 233.465C70.8843 233.718 73.6306 234.514 75.7627 236.466C76.8287 237.443 77.7501 238.763 78.4367 240.354C79.051 241.963 79.5027 243.807 79.6835 245.76C80.099 249.683 79.5931 253.914 78.78 258.09C81.1108 254.529 83.279 250.732 84.616 246.32C85.2845 244.114 85.7183 241.746 85.7905 239.215C85.8086 236.683 85.3569 233.971 84.2908 231.35C83.2248 228.746 81.5084 226.305 79.4847 224.316C77.4611 222.31 75.1483 220.719 72.7814 219.417C70.9384 218.404 69.0412 217.572 67.1079 216.885C66.4213 214.951 65.4457 213.197 64.3436 211.714H88.3743C92.9094 211.714 97.3362 213.269 100.823 216.09C110.327 223.756 113.778 227.752 114.989 229.433C111.646 235.056 98.2756 249.665 93.3792 252.775C90.2354 254.764 88.7175 258.253 88.3562 262.267C86.1699 263.316 84.0198 264.527 81.9781 266.01C79.7919 267.601 77.714 269.463 75.9433 271.723C74.1907 273.947 72.7994 276.587 72.0767 279.299C71.3359 282.029 71.2456 284.777 71.5708 287.29C71.9683 289.785 72.6911 292.081 73.6306 294.197C75.5097 298.41 78.1476 301.899 80.912 305.117C79.575 301.085 78.5452 296.945 78.4548 293.003C78.3826 291.051 78.5994 289.152 79.015 287.489C79.4847 285.826 80.2255 284.397 81.165 283.294C83.0441 281.089 85.6641 279.968 88.7356 279.299C89.892 279.064 91.1207 278.919 92.3674 278.847C96.7579 286.585 103.642 290.834 111.502 290.834C113.634 290.834 115.856 290.526 118.115 289.876C129.407 286.639 140.031 273.423 147.819 261.074C156.907 270.042 178.878 291.159 188.508 295.589C192.772 297.542 197.85 298.825 202.674 298.825C205.727 298.825 208.672 298.301 211.22 297.108C212.666 297.65 214.039 298.283 215.286 299.024C217.978 300.633 220.11 302.55 221.176 305.244C221.7 306.582 221.953 308.173 221.862 309.909C221.718 311.626 221.32 313.488 220.616 315.315C219.26 319.021 216.966 322.601 214.4 326C218.05 323.83 221.682 321.371 224.807 317.99C226.379 316.309 227.789 314.356 228.981 312.114C230.101 309.836 230.896 307.215 231.077 304.394C231.258 301.574 230.788 298.645 229.849 295.969C228.909 293.275 227.536 290.834 225.964 288.628C225.819 288.411 225.639 288.23 225.476 288.013C227.247 288.411 228.945 288.628 230.535 288.628C233.968 288.628 237.004 287.724 239.623 285.898C243.616 283.132 245.514 278.829 246.02 274.544L246.363 275.176C246.399 275.122 246.526 275.014 246.598 274.941L247.013 274.58C247.32 274.326 247.628 274.091 247.953 273.838C248.621 273.368 249.308 272.898 250.013 272.464C251.422 271.596 252.885 270.873 254.349 270.295C257.294 269.192 260.113 268.722 262.877 269.553C264.268 269.969 265.66 270.765 266.961 271.904C268.207 273.097 269.418 274.562 270.412 276.243C272.471 279.606 273.845 283.638 274.893 287.76C275.471 283.548 275.796 279.19 275.109 274.634C274.766 272.356 274.134 270.042 273.122 267.709C272.038 265.413 270.484 263.153 268.388 261.254C266.292 259.356 263.708 257.892 261.034 256.969C258.342 256.029 255.578 255.577 252.885 255.433C250.193 255.288 247.537 255.433 244.954 255.794C243.653 255.975 242.388 256.21 241.087 256.481C240.455 256.626 239.804 256.789 239.154 256.969L238.449 257.168C231.8 251.545 221.718 246.266 214.328 242.776C214.906 239.92 214.906 236.828 214.545 234.134C214.527 233.953 214.491 233.736 214.454 233.519C215.719 232.778 217.02 232.127 218.303 231.621C221.248 230.518 224.067 230.048 226.831 230.88C228.222 231.295 229.596 232.091 230.915 233.23C232.161 234.423 233.372 235.888 234.365 237.569C236.425 240.932 237.799 244.964 238.847 249.086C239.425 244.874 239.75 240.516 239.063 235.96C238.72 233.682 238.088 231.368 237.076 229.035C235.992 226.739 234.438 224.479 232.342 222.581C230.246 220.682 227.662 219.218 224.988 218.296C222.296 217.355 219.532 216.904 216.839 216.759C214.147 216.614 211.491 216.759 208.907 217.12C208.13 217.229 207.354 217.392 206.577 217.536C202.475 213.215 196.314 209.292 187.045 207.393C164.478 202.783 147.602 191.663 144.964 189.873C142.218 187.18 126.715 172.209 115.296 166.496C104.708 161.198 69.6013 161.994 49.6179 162.952C48.7506 163.006 47.9556 162.898 47.251 162.645C23.9429 154.49 19.5524 139.52 10.3015 106.903C29.2551 102.31 46.998 99.2369 55.8876 100.828C61.5972 101.84 70.288 103.992 78.6897 106.071C90.3618 108.964 97.6975 110.736 101.383 111.025C138.261 113.99 152.426 114.189 166.953 111.839C177.884 122.886 192.574 129.612 193.351 129.955L203.884 134.71L199.277 103.359C219.044 117.028 217.833 127.514 218.032 146.716C218.032 146.716 265.877 87.3219 210.371 68.0121C207.227 51.0528 197.163 29.2662 181.389 9.14282C277.079 41.2173 338.294 9.50433 347.003 -11.1614C347.003 -11.1614 298.923 -12.1378 259.715 -31.0679C259.715 -31.0679 315.004 -28.3739 350.165 -35.4614C375.189 -40.5058 409.429 -49.7809 433.08 -72.6887L443.65 -80.861C437.597 -80.2643 431.526 -79.8124 425.473 -79.4146C387.674 -77.6789 352.676 -83.6815 346.334 -86.7371C349.713 -87.7134 435.772 -69.0184 534.732 -137.922C534.732 -137.922 459.875 -140.779 403.737 -147.83C404.044 -148.029 416.53 -148.011 416.837 -148.21C542.284 -154.665 617.484 -250.563 617.484 -250.563C617.484 -250.563 499.643 -223.044 448.004 -233.585C526.149 -242.011 616.147 -284.753 668.925 -328.778C719.931 -371.321 735 -415.329 735 -415.329C735 -415.329 629.771 -367.289 538.454 -335.884ZM206.559 285.428C205.818 286.368 200.036 286.874 194.037 284.108C187.117 280.926 166.79 261.942 154.63 249.792C156.04 247.152 157.25 244.783 158.19 242.849C162.815 244.078 166.971 245.145 170.766 246.103C183.287 259.428 194.272 269.589 203.812 276.641C207.426 283.204 206.559 285.41 206.559 285.428ZM204.842 252.305C217.58 257.964 231.475 265.955 233.39 269.807C234.076 271.199 234.004 274.616 232.703 275.502C230.228 277.219 218.755 275.194 193.495 251.075C199.151 252.07 202.62 252.359 204.842 252.305ZM129.534 192.64C133.671 196.364 136.616 199.275 136.689 199.347L137.448 199.998C138.261 200.577 157.503 214.354 184.75 219.923C192.646 221.532 198.211 225.365 200.813 230.988C202.385 234.387 202.547 237.696 202.294 239.685C194.814 238.943 173.945 234.044 156.383 229.27L155.1 228.927C154.703 228.746 154.287 228.601 153.89 228.403C149.915 226.504 146.03 223.991 142.543 220.881C144.187 224.877 146.446 228.692 149.174 232.326L148.957 232.814C142.019 248.399 126.643 274.399 114.88 277.762C110.996 278.865 107.978 278.033 105.395 275.122C101.799 271.09 100.841 265.087 101.257 262.936C108.448 257.783 126.119 239.07 128.088 231.512C129.425 226.378 126.733 220.592 109.008 206.29C108.647 206.001 108.267 205.748 107.888 205.459L104.184 192.658C111.953 190.38 123.951 188.246 129.534 192.64ZM-527.084 -478.302C-512.033 -467.96 -499.042 -459.011 -490.026 -451.507C-488.617 -450.332 -486.015 -448.415 -482.076 -445.523C-464.423 -432.541 -423.101 -402.112 -380.279 -358.882C-326.996 -305.093 -290.571 -250.942 -271.997 -197.913C-252.266 -141.611 -240.07 -97.2598 -223.592 -61.2981C-268.383 -91.3476 -295.684 -94.132 -318.613 -101.979C-296.913 -103.353 -264.245 -120.873 -264.245 -120.873L-266.576 -121.433L-295.702 -128.43C-346.528 -147.849 -400.389 -191.711 -421.511 -217.747L-416.253 -216.517L-296.027 -188.294L-294.076 -187.842L-350.413 -216.228C-352.093 -217.078 -488.092 -289.273 -540.978 -382.748L-539.623 -382.26L-393.704 -329.664L-415.35 -352.12C-427.166 -364.378 -463.484 -389.058 -505.546 -417.643C-538.738 -440.189 -566.418 -456.913 -589.528 -473.113C-597.423 -478.971 -603.856 -483.744 -608.084 -486.908C-615.835 -493.074 -622.99 -499.384 -629.549 -506.128C-669.154 -546.881 -684.512 -615.025 -684.512 -615.025C-631.428 -550.099 -570.502 -508.189 -527.084 -478.302ZM-386.206 -103.425C-385.61 -102.955 -375.708 -95.4698 -334.332 -77.7692C-359.772 -81.1322 -389.856 -82.217 -410.038 -81.1683C-465.507 -78.3116 -482.13 -112.086 -480.432 -112.899C-476.547 -114.725 -456.419 -118.197 -437.628 -117.781C-437.61 -117.781 -437.646 -117.799 -437.7 -117.835C-444.44 -123.205 -452.643 -127.074 -461.333 -129.37C-466.212 -129.533 -571.369 -147.397 -589.6 -185.076C-589.329 -185.673 -588.967 -186.197 -588.534 -186.667C-582.607 -187.444 -576.663 -187.969 -570.737 -188.258C-566.798 -188.421 -562.859 -188.493 -558.938 -188.403C-556.987 -188.312 -555.017 -188.33 -553.084 -188.113C-552.108 -187.969 -551.151 -187.806 -550.175 -187.806C-549.199 -187.824 -548.206 -188.005 -547.212 -188.113C-543.255 -188.511 -539.262 -188.764 -535.178 -188.909C-531.113 -188.981 -527.011 -188.855 -522.747 -188.565C-529.595 -193.61 -537.654 -197.19 -545.929 -199.793C-545.983 -199.811 -546.037 -199.829 -546.092 -199.847C-563.166 -206.682 -614.534 -227.962 -609.077 -248.411C-608.987 -248.773 -608.842 -249.098 -608.734 -249.442C-607.957 -249.514 -607.18 -249.604 -606.403 -249.659C-598.598 -250.219 -590.774 -250.111 -583.095 -249.243C-575.452 -248.303 -567.9 -246.712 -560.926 -243.819C-557.077 -243.313 -553.265 -242.445 -549.344 -241.432C-547.411 -240.89 -545.441 -240.311 -543.526 -239.57C-541.502 -238.973 -539.659 -238.051 -537.618 -237.31C-542.135 -244.596 -548.693 -250.906 -556.264 -255.752C-558.233 -256.475 -560.221 -257.144 -562.226 -257.759C-584.992 -267.052 -666.318 -302.978 -662.939 -345.647C-662.921 -345.647 -643.208 -340.946 -631.157 -338.144C-630.308 -337.854 -629.458 -337.565 -628.627 -337.258C-627.85 -336.968 -627.055 -336.679 -626.314 -336.318C-625.556 -335.938 -624.851 -335.504 -624.02 -335.359C-620.587 -334.925 -617.19 -334.329 -613.667 -333.714C-611.914 -333.389 -610.161 -333.063 -608.409 -332.629C-606.602 -332.322 -604.868 -331.798 -603.025 -331.418C-607.415 -337.457 -612.998 -342.682 -619.087 -347.166C-625.935 -349.878 -632.855 -352.228 -639.902 -354C-641.781 -354.488 -643.66 -354.94 -645.557 -355.356C-647.183 -357.11 -648.701 -358.99 -650.743 -360.129C-651.086 -360.401 -651.429 -360.672 -651.773 -360.943C-657.735 -368.121 -663.083 -375.913 -667.311 -384.411C-668.413 -386.834 -669.696 -389.184 -670.6 -391.716L-672.063 -395.458C-672.515 -396.724 -672.894 -398.026 -673.31 -399.309C-673.744 -400.593 -674.105 -401.877 -674.412 -403.215C-674.719 -404.535 -675.117 -405.836 -675.334 -407.21C-675.568 -408.566 -675.876 -409.904 -676.02 -411.315C-676.111 -412.02 -676.219 -412.689 -676.273 -413.448C-676.327 -414.226 -676.4 -414.822 -676.418 -415.871L-676.508 -421.62C-669.985 -420.897 -663.499 -419.812 -657.121 -418.366C-655.314 -417.932 -653.489 -417.534 -651.682 -417.046L-646.316 -415.491C-645.413 -415.256 -644.527 -414.967 -643.66 -414.642C-642.775 -414.352 -641.925 -414.009 -641.076 -413.611C-639.432 -412.743 -637.426 -412.815 -635.602 -412.381C-628.031 -411.26 -620.641 -409.254 -612.799 -407.102C-614.136 -408.585 -615.564 -410.013 -616.991 -411.477C-617.696 -412.219 -618.437 -412.924 -619.177 -413.629L-621.508 -415.582C-623.08 -416.883 -624.634 -418.239 -626.296 -419.469C-627.959 -420.644 -629.657 -421.819 -631.374 -422.958C-632.729 -424.097 -634.246 -424.839 -635.818 -425.435C-640.028 -428.907 -644.094 -432.577 -647.888 -436.555C-655.025 -443.914 -661.331 -452.212 -666.372 -461.379C-668.883 -465.971 -671.088 -470.763 -672.84 -475.771C-673.725 -478.284 -674.484 -480.852 -675.117 -483.473C-675.442 -484.793 -675.713 -486.131 -675.948 -487.487C-676.074 -488.174 -676.165 -488.861 -676.255 -489.566C-676.345 -490.308 -676.418 -490.904 -676.472 -491.917L-676.616 -495.081C-635.746 -470.944 -551.53 -415.13 -509.287 -386.979L-591.389 -416.775L-584.884 -401.479C-554.096 -329.013 -465.037 -259.06 -403.154 -229.246L-473.259 -246.278L-463.7 -231.163C-461.568 -227.8 -415.278 -155.894 -328.261 -123.314C-355.689 -119.101 -382.159 -116.371 -382.52 -116.335L-400.371 -114.508L-386.206 -103.425ZM-721.173 -556.066C-704.604 -545.832 -674.539 -523.358 -656.47 -509.889C-655.043 -508.623 -653.579 -507.321 -652.062 -506.019C-653.146 -506.291 -654.212 -506.544 -655.296 -506.779C-679.995 -517.536 -710.621 -531.314 -710.621 -531.314C-715.282 -522.255 -707.206 -491.718 -706.447 -489.259C-705.851 -487.36 -705.164 -485.498 -704.441 -483.672C-705.616 -484.45 -706.808 -485.245 -708.019 -486.077C-726.322 -502.186 -802.01 -571.181 -808.298 -616.671C-782.767 -594.143 -750.696 -574.309 -721.173 -556.066ZM-893.128 -625.494C-837.369 -573.784 -741.536 -487.957 -691.956 -461.271L-691.758 -461.65C-688.993 -458.016 -686.03 -454.545 -682.922 -451.254C-676.129 -444.167 -668.703 -437.784 -660.897 -432.071C-660.879 -432.053 -660.843 -432.053 -660.825 -432.035C-661.511 -432.161 -662.216 -432.288 -662.903 -432.396C-663.264 -432.469 -663.643 -432.523 -664.005 -432.595C-665.143 -432.794 -666.263 -432.975 -667.402 -433.156C-667.853 -433.228 -668.305 -433.3 -668.757 -433.373C-669.841 -433.535 -670.925 -433.68 -672.009 -433.825C-672.479 -433.879 -672.967 -433.951 -673.436 -434.005C-674.81 -434.168 -676.165 -434.313 -677.538 -434.457C-677.701 -434.476 -677.863 -434.494 -678.026 -434.512C-682.019 -434.873 -686.012 -435.163 -690.023 -435.289C-692.029 -435.362 -694.034 -435.398 -696.058 -435.38C-698.1 -435.38 -700.051 -435.343 -702.273 -435.217L-708.272 -434.91L-708.182 -428.889C-708.164 -427.84 -708.091 -427.243 -708.037 -426.466C-707.983 -425.725 -707.874 -425.056 -707.784 -424.333C-707.64 -422.904 -707.332 -421.584 -707.098 -420.228C-706.881 -418.854 -706.483 -417.57 -706.176 -416.233C-705.869 -414.895 -705.489 -413.611 -705.074 -412.327C-704.658 -411.044 -704.279 -409.742 -703.827 -408.476L-702.364 -404.733C-701.46 -402.202 -700.177 -399.87 -699.075 -397.429C-698.985 -397.248 -698.876 -397.086 -698.786 -396.905C-698.081 -395.494 -697.341 -394.12 -696.564 -392.764C-696.528 -392.692 -696.491 -392.62 -696.455 -392.565C-711.452 -400.9 -725.455 -409.29 -738.518 -417.679C-811.008 -479.514 -894.411 -570.295 -893.128 -625.494ZM-829.781 -438.182L-789.507 -419.867C-778.81 -414.605 -768.277 -409.76 -758.628 -405.836L-690.258 -374.756C-686.482 -372.731 -682.76 -370.779 -679.074 -368.88L-676.02 -365.553C-674.159 -363.727 -672.244 -361.955 -670.347 -360.166L-669.263 -359.135C-670.166 -359.225 -671.088 -359.334 -671.991 -359.406C-675.641 -359.714 -679.128 -359.93 -683.013 -359.985L-688.415 -360.057L-689.246 -354.723C-689.355 -354.054 -689.391 -353.729 -689.427 -353.277L-689.535 -352.047C-689.589 -351.234 -689.607 -350.456 -689.644 -349.661C-689.662 -348.106 -689.644 -346.551 -689.535 -345.032C-689.336 -341.977 -688.957 -338.957 -688.361 -336.01C-687.204 -330.098 -685.307 -324.385 -682.886 -318.942C-680.429 -313.446 -677.411 -308.257 -673.978 -303.411C-676.183 -303.701 -678.532 -304.062 -681.043 -304.496C-787.013 -354.669 -829.781 -438.182 -829.781 -438.182ZM-761.844 -265.768C-782.135 -284.301 -805.316 -308.872 -805.027 -324.186C-760.905 -310.3 -692.679 -290.448 -662.83 -290.068C-654.682 -281.769 -645.449 -274.754 -635.764 -268.697C-633.072 -267.631 -630.398 -266.564 -627.706 -265.587C-624.959 -264.702 -622.285 -263.743 -619.539 -262.966C-617.84 -262.514 -616.178 -262.062 -614.498 -261.61C-616.341 -261.393 -618.166 -261.158 -619.991 -260.887C-622.105 -260.561 -624.2 -260.2 -626.296 -259.784C-628.428 -259.35 -630.416 -258.934 -632.729 -258.319L-638.149 -256.891L-637.318 -251.358C-637.173 -250.472 -637.047 -249.984 -636.921 -249.351C-636.794 -248.719 -636.631 -248.212 -636.487 -247.634C-636.198 -246.477 -635.818 -245.428 -635.475 -244.343C-635.132 -243.24 -634.698 -242.228 -634.283 -241.179C-633.885 -240.13 -633.451 -239.1 -632.964 -238.105L-631.536 -235.086L-629.928 -232.193C-628.898 -230.222 -627.633 -228.432 -626.423 -226.588C-626.152 -226.19 -625.863 -225.811 -625.592 -225.431C-625.194 -224.871 -624.797 -224.292 -624.381 -223.732C-624.074 -223.316 -623.749 -222.9 -623.424 -222.484C-622.99 -221.924 -622.538 -221.363 -622.087 -220.803C-621.797 -220.441 -621.508 -220.097 -621.219 -219.754C-620.695 -219.121 -620.153 -218.506 -619.611 -217.892C-619.376 -217.62 -619.141 -217.367 -618.906 -217.096C-618.256 -216.373 -617.587 -215.668 -616.919 -214.963C-616.811 -214.854 -616.702 -214.728 -616.594 -214.619C-673.725 -222.068 -722.419 -239.208 -761.844 -265.768ZM-734.236 -235.303C-695.444 -216.409 -650.11 -204.512 -598.706 -199.847C-598.634 -199.793 -598.562 -199.757 -598.489 -199.703C-597.803 -199.233 -597.098 -198.763 -596.412 -198.311C-604.687 -196.991 -612.709 -195.418 -621.039 -193.176L-629.946 -190.789L-624.435 -183.376C-623.279 -181.821 -622.321 -180.646 -621.237 -179.362C-620.171 -178.115 -619.105 -176.885 -618.003 -175.674C-615.817 -173.269 -613.558 -170.973 -611.264 -168.695C-606.638 -164.211 -601.796 -159.962 -596.773 -155.967C-594.171 -153.905 -591.515 -151.917 -588.805 -149.982C-599.61 -152.459 -609.981 -155.406 -619.376 -158.407C-632.151 -163.144 -645.738 -168.514 -658.928 -174.282C-658.928 -174.282 -658.928 -174.282 -658.946 -174.282C-700.647 -192.579 -738.374 -215.053 -734.236 -235.303ZM-597.947 -183.304C-597.965 -183.25 -597.965 -183.196 -597.965 -183.141C-597.983 -183.196 -598.02 -183.232 -598.038 -183.286C-598.02 -183.286 -597.983 -183.286 -597.947 -183.304ZM-103.781 223.412C-107.287 209.129 -114.098 189.982 -126.186 184.16C-126.168 182.894 -126.168 181.629 -126.204 180.363C-126.204 179.676 -126.312 178.971 -126.222 178.284C-126.186 177.94 -126.114 177.579 -126.186 177.235C-126.24 176.892 -126.439 176.548 -126.62 176.205C-127.306 174.867 -128.065 173.547 -128.878 172.263C-130.558 169.714 -132.456 167.345 -134.75 165.32C-135.636 168.249 -136.503 170.907 -137.442 173.438C-137.948 174.722 -138.364 175.933 -138.888 177.163C-139.195 177.778 -139.213 178.356 -139.014 178.935C-138.87 179.513 -138.906 180.11 -138.87 180.689C-138.743 185.408 -139.069 190.235 -139.701 195.062C-140.333 199.89 -141.255 204.735 -142.411 209.509C-142.845 211.281 -143.315 213.052 -143.821 214.842C-145.248 213.559 -146.657 212.257 -147.994 210.937C-151.554 207.448 -154.914 203.795 -157.896 199.962C-159.341 198.028 -160.859 196.147 -161.943 194.032C-162.359 192.911 -163.406 192.188 -164.238 191.302C-165.087 190.434 -165.9 189.548 -166.695 188.626C-166.839 188.463 -166.984 188.282 -167.128 188.102C-165.954 183.817 -164.942 179.477 -164.147 175.066C-163.641 172.607 -163.479 170.094 -162.864 167.635C-162.684 166.387 -163.081 165.067 -163.244 163.784C-163.461 162.5 -163.696 161.216 -163.985 159.951C-165.141 154.888 -166.821 149.916 -169.279 145.432C-169.857 147.927 -170.507 150.332 -171.158 152.664C-171.862 154.997 -172.621 157.275 -173.416 159.499C-173.832 160.62 -174.211 161.722 -174.645 162.807C-174.645 162.807 -176.524 174.324 -185.883 179.315C-185.883 179.315 -200.88 173.655 -208.902 150.929C-216.906 128.202 -219.273 120.753 -219.273 120.753C-219.761 119.505 -220.032 118.203 -220.43 116.937C-220.881 115.69 -221.731 114.569 -222.381 113.394C-223.772 111.061 -225.182 108.729 -226.627 106.415C-228.904 102.799 -231.216 99.2007 -233.62 95.6208C-234.541 93.4692 -235.246 92.294 -235.625 92.6375C-235.336 98.1701 -234.794 103.612 -234.252 109.054C-234.071 110.718 -233.873 112.381 -233.674 114.027C-234.035 133.644 -243.485 128.527 -244.208 125.779C-245.472 123.537 -246.791 121.367 -248.309 119.288C-249.086 118.257 -249.827 117.245 -250.622 116.25C-251.471 115.274 -252.284 114.298 -253.169 113.376C-253.838 115.889 -254.362 118.293 -254.94 120.662C-255.536 123.031 -256.096 125.309 -256.711 127.533C-265.402 145.432 -278.971 132.143 -278.14 113.665C-278.049 112.978 -278.031 112.291 -277.887 111.622C-277.724 110.953 -277.543 110.266 -277.724 109.561C-278.429 106.758 -279.368 104.046 -280.326 101.388C-281.446 98.7487 -282.639 96.1813 -283.994 93.7224C-284.59 95.0422 -285.078 96.344 -285.638 97.6277L-287.102 101.407C-288.276 103.865 -289.198 106.288 -290.318 108.584C-299.243 123.085 -311.458 111.405 -311.494 106.849C-313.445 102.329 -314.782 97.4831 -315.975 91.7697C-327.43 58.303 -358.218 36.1909 -357.531 36.209C-368.716 36.6609 -414.663 43.0252 -432.75 41.7415C-450.818 40.4759 -455.1 39.9516 -466.194 38.2701C-471.741 37.4384 -477.252 36.4622 -482.726 35.3593C-482.817 35.3412 -482.907 35.323 -482.997 35.3049C-477.523 30.0074 -435.731 15.507 -400.01 10.6977C-398.673 10.535 -397.336 10.3722 -395.981 10.1913C-433.49 -13.4938 -557.095 8.90771 -557.095 8.90771C-553.138 -4.67059 -548.621 -13.3311 -536.136 -22.5701C-535.702 -22.8775 -535.323 -23.2029 -534.943 -23.5103C-533.48 -24.4504 -532.016 -25.3907 -530.499 -26.3127C-523.452 -30.4531 -515.647 -33.8522 -507.371 -36.7269C-508.799 -36.9077 -510.226 -37.0524 -511.672 -37.197C-519.134 -37.9926 -526.56 -38.8063 -533.932 -39.7645C-538.322 -40.2888 -542.695 -40.8855 -547.049 -41.5544C-549.235 -41.8256 -551.385 -42.368 -553.572 -42.3138C-555.74 -42.2595 -557.908 -42.3138 -560.058 -42.4222C-596.285 -48.1537 -633.451 -59.0019 -663.047 -78.5467C-663.047 -78.5467 -605.735 -103.208 -560.98 -108.271C-671.702 -107.403 -705.381 -142.117 -709.049 -153.164L-571.983 -139.188C-569.562 -137.796 -567.105 -136.44 -564.611 -135.138C-553.283 -129.117 -541.303 -124.417 -529.125 -120.457C-527.644 -119.842 -526.036 -119.589 -524.428 -119.426C-522.838 -119.191 -521.212 -119.083 -519.604 -118.938C-518.809 -118.848 -518.014 -118.812 -517.2 -118.739C-517.237 -118.721 -517.273 -118.703 -517.309 -118.685C-518.086 -118.359 -518.863 -118.034 -519.64 -117.691C-521.212 -117.022 -522.765 -116.335 -524.301 -115.611C-526.235 -114.689 -528.168 -113.749 -530.083 -112.737C-532.034 -111.706 -533.823 -110.73 -535.901 -109.482L-541.032 -106.354L-538.123 -101.111C-537.672 -100.297 -537.383 -99.8995 -537.039 -99.3391C-536.696 -98.7966 -536.353 -98.3628 -536.009 -97.8566C-535.323 -96.8621 -534.6 -96.0123 -533.877 -95.0902C-533.173 -94.1681 -532.378 -93.3726 -531.637 -92.5228C-530.896 -91.655 -530.101 -90.8594 -529.288 -90.0819C-528.475 -89.3044 -527.698 -88.4909 -526.867 -87.7496L-524.319 -85.58C-522.657 -84.0793 -520.814 -82.8679 -519.043 -81.5119C-511.816 -76.3771 -503.92 -72.4718 -495.808 -69.3801L-489.664 -67.2104C-487.587 -66.5956 -485.509 -66.0714 -483.413 -65.4927L-480.287 -64.6429C-479.239 -64.3898 -478.173 -64.2271 -477.125 -64.0101C-476.077 -63.7932 -475.011 -63.6305 -473.963 -63.3593C-472.933 -63.07 -471.885 -62.7446 -470.783 -62.7988C-469.681 -62.853 -468.47 -62.853 -467.35 -62.7988C-469.663 -60.9908 -471.849 -59.02 -473.873 -56.8684C-475.192 -55.4581 -476.475 -53.9937 -477.667 -52.4207C-478.263 -51.6432 -478.842 -50.8296 -479.402 -49.9798L-480.233 -48.6781C-480.522 -48.1899 -480.739 -47.8283 -481.118 -47.1051L-484.063 -41.4279C-452.335 -15.0848 -377.099 -10.8902 -377.099 -10.8902C-311.205 -39.8368 -266.63 -39.8187 -234.324 -30.2181C-230.801 -29.7841 -227.332 -29.061 -223.899 -28.2112C-220.014 -27.271 -216.184 -26.0777 -212.389 -24.7939C-204.819 -22.1723 -197.447 -18.954 -190.292 -15.2656C-176.018 -7.85266 -162.666 1.44049 -150.741 12.3248C-138.743 23.1368 -128.264 35.6123 -119.519 49.1002C-110.918 62.6424 -103.98 77.197 -99.7159 92.5291C-95.7229 101.153 -92.1453 110.067 -88.5136 118.836C-82.7318 134.168 -77.1307 146.933 -71.7463 157.058H-97.0238L-83.7979 196.473C-89.0557 202.566 -97.3671 214.173 -103.781 223.412ZM-32.2311 208.315L-37.6155 208.84L-37.9226 214.246C-38.8802 231.295 -44.0478 261.056 -53.8227 268.378C-57.0569 270.801 -60.1647 271.09 -63.6337 269.282C-68.4218 266.787 -71.4753 261.49 -71.8186 259.338C-68.3134 254.167 -50.1548 226.811 -51.1125 217.88C-51.6545 212.835 -59.0805 202.801 -73.1556 188.12L-79.317 169.75H-64.0854C-62.6039 171.938 -61.1403 173.89 -59.6768 175.644C-58.3578 177.235 -57.0389 178.664 -55.756 179.893C-55.6476 180.002 -55.5211 180.11 -55.4127 180.219C-54.9068 180.689 -54.4189 181.123 -53.913 181.538C-53.7685 181.665 -53.6059 181.792 -53.4613 181.918C-52.8651 182.406 -52.2507 182.858 -51.6545 183.256C-38.6273 191.971 -12.3923 189.837 -9.44714 189.566L-9.01343 189.512C-8.20038 189.385 -7.38739 189.295 -6.61041 189.223C-5.86963 189.15 -5.16498 189.132 -4.46033 189.114C1.448 188.988 6.36261 190.687 9.92206 194.158C12.6142 196.78 13.915 199.818 14.3848 201.77C7.1214 203.705 -14.1268 206.544 -32.2311 208.315ZM22.4433 246.23C14.8547 245.705 -10.8926 235.183 -26.5758 228.149C-26.1964 225.184 -25.9073 222.545 -25.7086 220.393C-20.9566 219.905 -16.6925 219.417 -12.8078 218.965C3.63428 226.992 17.5287 232.579 28.9478 235.797C34.6393 240.661 34.6032 243.011 34.6032 243.048C34.2599 244.169 29.0382 246.682 22.4433 246.23ZM55.5262 224.461C53.8278 226.938 42.3725 229.126 10.193 215.547C15.8483 214.463 19.1911 213.486 21.2509 212.655C35.1634 213.414 50.9911 215.963 54.1349 218.874C55.2913 219.941 56.4296 223.159 55.5262 224.461ZM10.7532 177.687C12.7407 176.675 14.7823 175.807 16.8783 175.084C21.052 173.655 25.5149 172.751 29.9958 173.005C34.4767 173.221 38.9396 174.885 42.228 177.778C45.3719 180.454 47.3955 183.979 48.8591 187.595C50.3768 190.868 51.3525 194.231 52.1294 197.558C49.6721 194.086 46.9619 190.796 43.8541 188.391C42.3183 187.179 40.6742 186.221 39.0842 185.57C37.4581 184.956 35.8861 184.721 34.4406 184.811C31.5678 185.01 29.0924 186.456 26.7435 188.536C25.5872 189.584 24.467 190.777 23.4551 192.097C22.9492 192.748 22.4614 193.435 22.0278 194.122C21.811 194.466 21.5941 194.809 21.3953 195.153L21.1244 195.641C21.0883 195.731 20.9979 195.876 20.9979 195.948L10.0485 186.492L7.75385 184.504L6.03735 182.931L4.66412 181.665C5.87469 180.526 6.76007 180.02 7.77191 179.369C8.78375 178.736 9.75946 178.194 10.7532 177.687ZM172.446 98.7487L170.006 90.0341C176.565 93.1439 182.474 96.0005 185.906 97.8267L188.075 112.508C182.745 109.073 176.583 104.317 172.446 98.7487ZM151.125 56.1877C149.318 51.2698 151.685 45.5746 156.636 42.4648C157.955 43.423 159.238 44.4897 160.485 45.6107C163.141 47.9973 165.652 50.6913 168.037 53.5118C170.44 56.3504 172.662 59.2974 175.084 62.4796L176.656 64.5588C165.489 65.8787 154.106 64.3057 151.125 56.1877ZM196.278 62.6423L186.34 52.662C183.612 49.9319 180.685 46.9306 177.613 44.1643C174.524 41.3799 171.271 38.704 167.712 36.2812C164.171 33.8585 160.322 31.6889 156.04 30.1521C151.812 28.7961 147.783 27.9282 143.519 27.4581C139.309 27.0242 135.063 27.0242 130.889 27.5667C126.679 28.1452 122.722 29.0311 118.639 30.8934L110.562 34.5998L119.163 35.3049C121.295 35.4857 123.517 35.739 125.685 36.0463C127.871 36.3536 130.04 36.7153 132.19 37.1673C134.34 37.6193 136.472 38.1617 138.55 38.8668C139.562 39.2465 140.591 39.6261 141.567 40.1323C137.809 46.2254 136.743 53.6746 139.272 60.527C140.899 64.9567 144.061 69.1332 148.939 72.2792C141.549 74.3765 137.682 76.0398 137.682 76.0398L150.312 81.3735C152.986 84.1036 154.757 89.365 156.239 93.7766C157.016 96.0909 157.774 98.3148 158.66 100.267C147.71 101.352 134.484 100.955 108.412 98.9296C106.569 98.7849 104.672 98.6403 102.684 98.4775C99.7572 98.2425 90.3436 95.9102 82.0142 93.849C80.0448 93.3608 78.0573 92.8726 76.106 92.3845C69.493 90.7573 63.1149 89.2566 58.381 88.4249C48.3531 86.6349 30.05 89.0577 3.90527 95.5667C-0.268494 96.6153 -4.6048 97.7362 -9.17609 98.9837C-22.8899 102.744 -35.6821 106.704 -44.2465 109.452C-41.1568 99.0561 -35.8448 87.8644 -28.9427 85.6044L-4.62286 77.6671L-1.55133 76.6727L-70.4996 68.5908C-67.1932 66.2042 -63.1278 63.6006 -58.3759 61.1056C-46.1075 54.669 -29.2318 49.064 -8.56171 50.2935L31.8026 52.662C32.0195 52.4631 32.2363 52.2462 32.4351 52.0473L-46.9567 23.1188L31.1703 15.5794L10.5906 5.76178C3.9234 2.57965 -3.55688 -0.49408 -10.7661 -3.45923C-27.3166 -10.2574 -40.9581 -16.2601 -48.9443 -22.5882C-53.2445 -26.0054 -55.9366 -29.5129 -56.4787 -33.3098L27.9 -30.5074C26.0751 -30.634 20.3654 -34.5211 16.6614 -37.3055L8.87408 -42.8201C-9.28448 -55.6752 -16.3311 -67.7347 -19.0233 -75.5816C-19.0775 -75.7263 -19.1136 -75.8528 -19.1498 -75.9974C-19.5473 -77.2088 -19.8725 -78.366 -20.1254 -79.4327L-16.3672 -77.3535L37.1328 -47.7198L130.238 -1.21729L123.354 -23.5283C161.478 -4.27283 187.984 34.6902 196.278 62.6423ZM373.22 -290.719L373.672 -290.611C372.335 -290.357 371.287 -290.086 371.287 -290.086C371.287 -290.086 423.215 -274.23 435.158 -267.287C439.169 -266.491 430.424 -254.233 427.497 -250.617C421.661 -243.367 414.289 -237.382 405.996 -232.862C397.739 -228.252 388.56 -225.196 379.128 -223.117C377.629 -222.773 362.578 -220.857 351.195 -219.41C345.052 -219.501 338.944 -219.067 332.964 -218.109C324.815 -216.753 316.865 -214.547 309.457 -211.148C317.606 -211.075 325.502 -210.876 333.253 -210.135C338.999 -209.593 344.672 -208.797 350.237 -207.73L350.255 -207.712C350.309 -207.712 350.364 -207.694 350.418 -207.694C352.279 -207.333 354.14 -206.935 355.983 -206.501C363.373 -204.801 370.564 -202.56 377.502 -199.829C380.971 -198.437 384.386 -196.991 387.674 -195.327C387.837 -195.237 388.018 -195.147 388.18 -195.056C387.765 -194.351 387.313 -193.664 386.861 -192.977C386.319 -192.127 385.759 -191.296 385.145 -190.5L383.374 -188.077L381.477 -185.781C380.248 -184.208 378.857 -182.816 377.52 -181.369C374.051 -177.753 370.275 -174.517 366.354 -171.516C358.133 -165.875 349.045 -161.463 339.414 -158.371C333.669 -156.527 327.724 -155.189 321.671 -154.303C315.618 -153.327 309.439 -152.965 303.206 -152.875H298.526C296.954 -152.875 295.4 -153.001 293.828 -153.074C292.816 -153.11 291.804 -153.182 290.793 -153.255C289.148 -153.562 287.504 -153.869 285.86 -154.104C277.223 -155.406 268.532 -155.768 259.986 -155.334C251.422 -154.864 243.002 -153.616 234.835 -151.645C251.639 -152.314 268.28 -149.946 283.493 -144.449C291.1 -141.755 298.345 -138.23 305.085 -134.126C308.445 -132.064 311.698 -129.841 314.751 -127.472C314.823 -127.418 314.896 -127.364 314.968 -127.291L314.805 -126.984C314.372 -126.188 314.083 -125.791 313.721 -125.248C313.649 -125.14 313.577 -125.031 313.504 -124.923C313.143 -124.597 312.818 -124.254 312.456 -123.946C308.879 -120.818 305.012 -117.962 300.929 -115.431C292.744 -110.386 283.692 -106.589 274.134 -104.492C264.594 -102.359 254.584 -101.708 244.574 -102.63C239.641 -103.064 230.607 -104.112 221.573 -105.468C209.974 -108.415 199.801 -110.621 198.048 -110.205C239.967 -93.481 246.056 -85.5438 255.343 -71.9655C250.5 -69.2354 245.496 -66.7584 240.4 -64.4984C230.083 -60.0325 219.351 -56.5068 208.293 -54.3192C197.235 -52.1495 185.834 -51.1732 174.271 -51.7156C168.489 -51.9687 162.653 -52.5653 156.799 -53.5055C150.963 -54.4637 145.054 -55.6751 139.11 -57.1216C140.122 -56.3984 141.134 -55.6932 142.182 -55.0062C147.078 -49.347 167.152 -24.8844 158.19 -15.3199C145.777 -25.8969 131.449 -34.8467 115.477 -40.6685L103.515 -45.0258L109.478 -25.698C109.478 -25.698 3.12836 -82.9764 -12.5729 -88.9609C-36.5856 -98.1277 -47.8782 -101.093 -52.6301 -102.051C-54.5635 -102.34 -55.6295 -102.503 -55.6295 -102.503C-55.6295 -102.503 -54.8345 -102.485 -52.6301 -102.051C-34.6884 -99.4294 58.6701 -87.3337 82.8273 -115.539L38.8493 -128.611C106.099 -141.123 142.615 -167.357 145.199 -169.31L159.455 -180.086L87.4347 -188.891C104.744 -192.109 125.143 -196.412 146.699 -201.999C227.59 -222.99 285.408 -251.268 318.545 -286.036L330.001 -298.06L189.99 -299.723C193.549 -300.88 197.524 -302.164 201.879 -303.52C225.494 -310.047 254.114 -317.442 283.529 -325.054C291.696 -327.169 299.899 -329.284 308.066 -331.4C362.813 -343.062 421.679 -350.854 459.532 -342.808C454.111 -330.514 434.778 -299.868 373.22 -290.719Z" fill="#FFC915"/>
<path d="M10.0879 186.457L21.0193 195.913C21.0193 195.859 21.1096 195.714 21.1457 195.606L21.4167 195.118C21.6154 194.774 21.8143 194.431 22.0492 194.087C22.5009 193.4 22.9706 192.713 23.4765 192.062C24.4883 190.742 25.5905 189.549 26.7649 188.5C29.1138 186.421 31.5892 184.975 34.462 184.776C35.9075 184.685 37.4793 184.92 39.1054 185.535C40.6954 186.204 42.3397 187.144 43.8755 188.355C46.9832 190.76 49.6935 194.051 52.1508 197.522C51.3738 194.195 50.3981 190.832 48.8804 187.56C48.9708 187.795 49.0791 188.048 49.1695 188.283C47.1458 184.667 44.544 181.286 41.1472 179.171C37.7865 177.019 33.8477 176.224 30.0172 176.567C26.1687 176.929 22.4285 178.249 18.9594 180.039C17.2249 180.943 15.5445 181.955 13.9726 183.076C13.1957 183.637 12.4187 184.215 11.696 184.83C11.0817 185.408 10.3589 186.077 10.0879 186.457Z" fill="#003056"/>
<path d="M172.446 98.7478L170.007 90.0332C176.566 93.143 182.474 95.9997 185.907 97.8258L188.075 112.507C182.745 109.072 176.584 104.317 172.446 98.7478Z" fill="#003056"/>
<path d="M9.92556 194.141C6.36612 190.669 1.45152 188.988 -4.45679 189.096C-6.93214 190.254 -9.47968 191.176 -12.0634 192.098C-14.9544 192.839 -17.8634 193.635 -20.8447 194.069C-26.8072 194.936 -33.0046 194.954 -39.1297 193.797C-45.2187 192.514 -51.2715 189.892 -56.0235 185.643C-58.3362 183.473 -60.4141 181.069 -61.9318 178.357C-63.4315 175.645 -63.4495 172.661 -64.118 169.732H-79.3496L-73.1883 188.102C-59.1131 202.801 -51.6871 212.818 -51.145 217.862C-50.1874 226.812 -68.346 254.149 -71.8513 259.32C-71.508 261.472 -68.4544 266.751 -63.6663 269.264C-60.1972 271.073 -57.0895 270.783 -53.8553 268.36C-44.0803 261.056 -38.9129 231.278 -37.9552 214.228L-37.6481 208.822L-32.2638 208.298C-14.1595 206.526 7.08887 203.687 14.3523 201.716C13.9367 199.8 12.6177 196.762 9.92556 194.141Z" fill="#003056"/>
<path d="M28.9455 235.78C17.5264 232.58 3.63192 226.975 -12.8102 218.947C-16.6948 219.417 -20.9589 219.887 -25.7109 220.376C-25.9096 222.527 -26.1806 225.167 -26.5781 228.132C-10.8949 235.165 14.8523 245.706 22.4409 246.212C29.0359 246.664 34.2575 244.133 34.6008 242.994C34.6008 242.994 34.637 240.644 28.9455 235.78Z" fill="#003056"/>
<path d="M10.208 215.566C42.3874 229.126 53.8246 226.957 55.5411 224.48C56.4265 223.178 55.3062 219.96 54.1498 218.911C51.006 215.982 35.1782 213.451 21.2657 212.691C19.206 213.505 15.8633 214.463 10.208 215.566Z" fill="#003056"/>
<path d="M109.01 206.253C126.735 220.573 129.427 226.341 128.09 231.475C126.121 239.033 108.45 257.746 101.259 262.899C100.825 265.032 101.801 271.053 105.397 275.085C107.999 277.996 111.016 278.846 114.883 277.725C126.627 274.344 142.021 248.362 148.959 232.777L149.176 232.289C146.448 228.673 144.207 224.84 142.545 220.844C146.05 223.936 149.917 226.449 153.892 228.366C154.289 228.564 154.705 228.709 155.102 228.89L156.385 229.233C173.948 234.007 194.816 238.906 202.297 239.648C202.55 237.659 202.405 234.35 200.815 230.951C198.195 225.328 192.648 221.495 184.752 219.886C157.506 214.317 138.245 200.558 137.45 199.961L136.691 199.31C136.619 199.238 133.674 196.327 129.536 192.603C123.953 188.227 111.974 190.343 104.204 192.585L107.908 205.386C108.27 205.693 108.649 205.964 109.01 206.253Z" fill="#003056"/>
<path d="M170.769 246.085C166.974 245.144 162.819 244.078 158.193 242.83C157.254 244.765 156.043 247.133 154.634 249.773C166.794 261.923 187.12 280.925 194.041 284.089C200.039 286.838 205.821 286.349 206.562 285.409C206.58 285.391 207.447 283.185 203.834 276.604C194.275 269.571 183.29 259.41 170.769 246.085Z" fill="#003056"/>
<path d="M232.707 275.52C234.008 274.616 234.08 271.217 233.393 269.825C231.478 265.974 217.602 257.964 204.845 252.323C202.623 252.377 199.154 252.088 193.48 251.094C218.74 275.195 230.213 277.22 232.707 275.52Z" fill="#003056"/>
<path d="M151.123 56.1878C149.316 51.27 151.683 45.5747 156.634 42.4648C157.953 43.4231 159.236 44.4898 160.482 45.6108C163.138 47.9974 165.65 50.6914 168.035 53.5119C170.438 56.3505 172.66 59.2976 175.081 62.4797L176.653 64.559C165.487 65.8789 154.104 64.3059 151.123 56.1878Z" fill="#003056"/>
</g>
</svg>
