<svg width="356" height="356" viewBox="0 0 356 356" fill="none" xmlns="http://www.w3.org/2000/svg">
<circle cx="178" cy="178" r="178" fill="#003056"/>
<mask id="mask0" mask-type="alpha" maskUnits="userSpaceOnUse" x="0" y="0" width="356" height="356">
<circle cx="178" cy="178" r="178" fill="#003056"/>
</mask>
<g mask="url(#mask0)">
<path d="M-298.265 -328.986C-298.369 -329.211 -298.473 -329.435 -298.577 -329.66C-298.577 -329.66 -298.628 -329.453 -298.715 -328.986H-299.061L-298.801 -328.467C-299.77 -322.539 -303.005 -292.518 -292.021 -192.811C-222.087 -33.1998 -112.111 89.477 15.5616 197.221C26.3206 206.226 43.0645 209.578 57.5943 212.102C87.1901 217.287 117.063 220.069 147.351 223.993C133.132 239.496 111.631 239.651 90.0096 246.582C115.143 262.604 140.414 270.467 166.257 276.223C204.224 284.778 242.054 283.897 279.727 273.872C300.657 268.359 333.349 291 333.349 291H456.851L473 -451H-276.626L-298.265 -328.986ZM-93.1353 -312.549L-89.451 -313.154C-82.9817 -314.243 -78.5536 -313.932 -76.2876 -312.238C-74.4887 -310.89 -73.3471 -308.056 -72.8627 -303.804C-68.9362 -269.808 -65.7881 -235.051 -62.7265 -201.47C-62.2595 -196.233 -62.3805 -190.927 -62.4843 -185.293C-62.5362 -182.735 -62.5881 -180.177 -62.5881 -177.636L-62.5708 -161.2L-51.9156 -173.73C-24.7587 -205.652 -15.937 -242.535 -9.55426 -281.751C-9.17371 -280.904 -8.81049 -280.074 -8.44724 -279.227C34.6233 -179.123 86.308 -95.7307 149.565 -24.2989C169.336 -1.93436 190.127 20.1019 210.244 41.4122C223.615 55.5672 237.418 70.2234 250.789 84.8105C289.276 126.913 309.254 170.432 311.866 217.823C312.091 223.198 315.793 230.785 321.38 233.723C333.176 239.945 344.956 244.266 356.355 248.449C365.211 251.698 374.344 255.051 383.512 259.32C381.678 262.915 379.101 267.685 376.956 271.314C375.296 270.45 373.583 269.534 372.061 268.722C370.556 267.927 369.242 267.218 368.342 266.769C347.43 255.656 326.361 246.219 305.985 237.111C276.251 223.803 248.16 211.22 220.19 193.764C80.7036 106.743 -47.5394 -8.24271 -171.908 -157.743C-195.726 -186.399 -213.248 -212.548 -231.809 -240.219C-242.619 -256.362 -253.811 -273.04 -266.715 -290.928C-270.486 -296.199 -273.357 -302.542 -276.626 -309.871C-211.069 -293.071 -156.15 -302.145 -93.1353 -312.549Z" fill="#FFC915"/>
</g>
</svg>
