<?xml version="1.0" standalone="no"?>
<!DOCTYPE svg PUBLIC "-//W3C//DTD SVG 20010904//EN"
 "http://www.w3.org/TR/2001/REC-SVG-20010904/DTD/svg10.dtd">
<svg version="1.0" xmlns="http://www.w3.org/2000/svg"
 width="700.000000pt" height="700.000000pt" viewBox="0 0 700.000000 700.000000"
 preserveAspectRatio="xMidYMid meet">
<metadata>
Created by potrace 1.14, written by Peter Selinger 2001-2017
</metadata>
<g transform="translate(0.000000,700.000000) scale(0.100000,-0.100000)"
fill="#000000" stroke="none">
<path d="M3158 6995 c-1 -1 -64 -6 -138 -9 -74 -4 -155 -9 -180 -11 -25 -2
-74 -7 -110 -10 -80 -7 -154 -14 -200 -20 -19 -2 -60 -7 -90 -10 -48 -6 -195
-27 -270 -40 -14 -2 -56 -9 -95 -15 -38 -6 -89 -15 -113 -21 -23 -5 -59 -12
-80 -15 -50 -8 -135 -27 -327 -75 -294 -73 -530 -149 -745 -239 -63 -27 -133
-56 -155 -64 l-40 -16 1 -898 c1 -774 6 -1105 19 -1327 10 -185 16 -274 20
-300 2 -16 6 -61 10 -100 3 -38 8 -83 10 -100 2 -16 7 -52 10 -80 3 -27 8 -61
10 -75 2 -14 7 -45 10 -70 33 -250 119 -597 207 -840 74 -204 191 -450 292
-615 45 -74 165 -254 176 -265 3 -3 25 -32 50 -65 56 -75 147 -190 181 -230
323 -374 621 -667 949 -931 142 -114 361 -270 471 -334 162 -95 308 -165 421
-204 50 -16 46 -17 133 19 17 7 41 16 55 20 60 18 426 217 450 244 3 4 25 19
50 35 118 76 390 291 565 446 70 62 479 473 532 535 28 33 61 71 74 85 90 102
277 348 395 520 208 304 403 760 500 1170 45 191 102 548 120 745 3 39 7 86 9
105 2 19 6 87 10 150 4 63 8 140 10 170 12 164 18 547 21 1240 2 426 5 809 7
850 4 98 2 105 -41 123 -21 8 -78 34 -129 56 -157 69 -509 181 -758 240 -49
12 -103 26 -120 31 -28 8 -57 14 -115 25 -14 3 -36 7 -50 10 -14 3 -61 12
-105 20 -80 15 -109 20 -155 30 -29 5 -66 11 -130 20 -54 7 -96 14 -130 20
-14 2 -54 7 -90 11 -36 3 -67 7 -70 9 -3 1 -45 6 -95 10 -49 4 -103 9 -120 10
-32 3 -168 15 -250 21 -62 5 -862 14 -867 9z"/>
</g>
</svg>
